<?xml version="1.0" encoding="UTF-8"?>
<svg version="1.1" xmlns="http://www.w3.org/2000/svg" width="1365" height="606">
<path d="M0 0 C450.45 0 900.9 0 1365 0 C1365 199.98 1365 399.96 1365 606 C914.55 606 464.1 606 0 606 C0 406.02 0 206.04 0 0 Z " fill="#FDE4EA" transform="translate(0,0)"/>
<path d="M0 0 C0.74431344 -0.0072672 1.48862688 -0.01453441 2.25549528 -0.02202183 C4.76392451 -0.04035291 7.27084017 -0.02288013 9.77925968 -0.00571251 C11.58994379 -0.01147054 13.40062206 -0.0194095 15.21128803 -0.02934873 C20.19804651 -0.05028933 25.18432873 -0.03987418 30.17108929 -0.02441764 C35.5447497 -0.01313741 40.91832632 -0.03055033 46.29197025 -0.04431725 C56.8235977 -0.06659027 67.35504733 -0.06173023 77.88668185 -0.04725404 C86.44395842 -0.03597717 95.00118504 -0.03442417 103.55846691 -0.03987312 C104.77486492 -0.04063929 105.99126293 -0.04140545 107.24452149 -0.04219484 C109.71536971 -0.04379341 112.18621792 -0.04541448 114.65706611 -0.04705779 C137.84524212 -0.06132736 161.03331942 -0.04490393 184.22147924 -0.01805596 C204.13011686 0.00428107 224.03860871 0.00040641 243.94724369 -0.02264977 C267.04902726 -0.04939128 290.15072422 -0.05995098 313.2525211 -0.04458845 C315.71475286 -0.04299565 318.17698463 -0.0414238 320.63921642 -0.03987312 C321.85077732 -0.03910175 323.06233821 -0.03833037 324.31061308 -0.03753562 C332.85987988 -0.03321346 341.40909187 -0.04051633 349.95835018 -0.05227089 C360.37391477 -0.06627622 370.78929088 -0.06253743 381.2048338 -0.03586717 C386.52191119 -0.02270214 391.83867406 -0.01762236 397.15574932 -0.03411293 C402.0196004 -0.04896998 406.88284429 -0.04089456 411.74663997 -0.01422517 C413.50971406 -0.00862211 415.27283904 -0.01152132 417.03588062 -0.02360411 C419.42654316 -0.03873625 421.81510638 -0.02329498 424.20565796 0 C425.24070174 -0.01755875 425.24070174 -0.01755875 426.29665551 -0.03547221 C429.95996694 0.0362356 431.62721001 0.60045453 434.59267992 2.8127476 C436.94153083 6.00388024 437.29173473 7.41113903 437.29495525 11.3217411 C437.31451336 13.03542916 437.31451336 13.03542916 437.33446658 14.78373718 C437.32331297 16.03421152 437.31215936 17.28468586 437.30066776 18.57305336 C437.30642954 19.91850082 437.31437105 21.26394042 437.32430398 22.60936356 C437.3451936 26.30554088 437.33485309 30.00107346 437.31937289 33.69725323 C437.30807174 37.68370959 437.32551591 41.67005417 437.3392725 45.65648842 C437.36152275 53.46548472 437.35669583 61.27424094 437.34220929 69.08324671 C437.33092405 75.42892905 437.32938305 81.77454404 437.33482838 88.12023354 C437.33559454 89.02288024 437.33636071 89.92552694 437.33715009 90.85552657 C437.33874869 92.68915226 437.34036976 94.52277793 437.34201305 96.35640359 C437.35627578 113.55625194 437.33986961 130.75596711 437.31301121 147.95579362 C437.29067195 162.71874248 437.29455193 177.48149477 437.31760502 192.24444008 C437.34435378 209.38211683 437.35490243 226.51967681 437.3395437 243.65737152 C437.33795093 245.48430695 437.33637908 247.3112424 437.33482838 249.13817787 C437.334057 250.03709932 437.33328562 250.93602077 437.33249087 251.86218226 C437.32817109 258.20132028 437.33546639 264.54038432 437.34722614 270.87951088 C437.36123944 278.60330726 437.35747599 286.32684953 437.33082242 294.05061674 C437.31766829 297.99258188 437.3125586 301.93412314 437.32906818 305.87608528 C437.34394844 309.48353573 437.33581281 313.09016872 437.30918042 316.69754481 C437.30093371 318.62325541 437.31729072 320.54902257 437.33446658 322.47467422 C437.31490847 324.18836228 437.31490847 324.18836228 437.29495525 325.9366703 C437.29414349 326.92237196 437.29333173 327.90807362 437.29249537 328.92364502 C436.3928943 332.80707784 434.83686891 334.26275332 431.66574955 336.6292057 C428.97206326 337.12140805 426.90995651 337.30242303 424.22406864 337.2556181 C423.48028973 337.2625857 422.73651082 337.26955331 421.97019315 337.27673206 C419.4695902 337.2940229 416.97052706 337.27558747 414.46994877 337.25739479 C412.66252723 337.26243828 410.85511067 337.26966557 409.04770565 337.27889293 C404.07459882 337.29787033 399.10198187 337.28555055 394.12888718 337.26817 C388.76820273 337.25482828 383.40759149 337.2702216 378.0469141 337.28199196 C367.54282245 337.30039679 357.03891649 337.29183723 346.53483057 337.27390373 C337.999986 337.25989332 329.46519192 337.25598158 320.93033695 337.25934601 C319.71684979 337.25982345 318.50336263 337.26030089 317.25310314 337.2607928 C314.78813345 337.26181911 312.32316378 337.26287446 309.85819411 337.26395857 C288.048566 337.27253139 266.23902769 337.25583173 244.42942142 337.22612953 C223.2536018 337.19729076 202.07791155 337.19020786 180.90207767 337.20562172 C157.85779006 337.22237259 134.81356392 337.22642945 111.76927471 337.20891136 C109.3132372 337.20706692 106.85719968 337.20523219 104.40116215 337.20340729 C102.58840945 337.20203915 102.58840945 337.20203915 100.73903549 337.20064338 C92.21180905 337.19503106 83.68461255 337.19835164 75.15738773 337.20495224 C64.76931471 337.21267381 54.38136918 337.2059753 43.9933219 337.1807772 C38.69045626 337.16825485 33.38778939 337.16216875 28.08491611 337.17331886 C23.23413018 337.18332601 18.38374145 337.17497711 13.53300405 337.15173768 C11.77467103 337.14655883 10.0163027 337.14817521 8.25798488 337.15713234 C5.87398668 337.16826998 3.49134506 337.15495774 1.10743046 337.13536358 C0.41929146 337.1444424 -0.26884754 337.15352121 -0.97783923 337.16287515 C-4.33510868 337.10881339 -6.33116575 336.63097956 -9.26020473 334.9466399 C-11.81071925 332.09682347 -11.95963109 330.82818514 -11.96066284 327.04410076 C-11.97308488 325.90014971 -11.98550692 324.75619866 -11.99830538 323.57758242 C-11.98646965 322.32030429 -11.97463392 321.06302616 -11.96243954 319.7676487 C-11.96748348 318.41894061 -11.97471114 317.07023922 -11.98393768 315.72155327 C-12.00290952 312.01170469 -11.99059908 308.30251308 -11.97321475 304.59268081 C-11.95986963 300.59326398 -11.97526758 296.59394512 -11.98703671 292.59453773 C-12.00543962 284.75799008 -11.99688317 276.92169135 -11.97894848 269.08515138 C-11.96493587 262.71704071 -11.96102679 256.34899772 -11.96439075 249.98087311 C-11.9648682 249.07531556 -11.96534564 248.16975801 -11.96583755 247.23675932 C-11.96686386 245.39725509 -11.96791922 243.55775088 -11.96900331 241.71824669 C-11.97757587 225.4429924 -11.96087794 209.16785845 -11.93117428 192.89263344 C-11.90234029 177.09375388 -11.89525036 161.29504772 -11.91066647 145.49614906 C-11.92742198 128.30098702 -11.9314691 111.10590736 -11.91395611 93.91074318 C-11.91211168 92.07761348 -11.91027696 90.24448378 -11.90845203 88.41135406 C-11.90753994 87.50937352 -11.90662785 86.60739297 -11.90568813 85.67807968 C-11.90007832 79.31692625 -11.90339409 72.95581298 -11.90999699 66.59466171 C-11.9177232 58.84341875 -11.91100352 51.09234658 -11.88582195 43.34113807 C-11.8733097 39.38505999 -11.86720106 35.42924805 -11.87836361 31.47315979 C-11.88838602 27.85281504 -11.87998982 24.23300162 -11.85678243 20.61272167 C-11.84915972 18.68001187 -11.86119598 16.74725557 -11.87388617 14.81457239 C-11.85731464 13.09473419 -11.85731464 13.09473419 -11.84040833 11.34015179 C-11.83921684 10.3508703 -11.83802536 9.3615888 -11.83679777 8.34232908 C-10.53693088 1.32468297 -6.52150199 -0.11025833 0 0 Z " fill="#FE6366" transform="translate(469.3342504501343,142.37079429626465)"/>
<path d="M0 0 C0.74431344 -0.0072672 1.48862688 -0.01453441 2.25549528 -0.02202183 C4.76392451 -0.04035291 7.27084017 -0.02288013 9.77925968 -0.00571251 C11.58994379 -0.01147054 13.40062206 -0.0194095 15.21128803 -0.02934873 C20.19804651 -0.05028933 25.18432873 -0.03987418 30.17108929 -0.02441764 C35.5447497 -0.01313741 40.91832632 -0.03055033 46.29197025 -0.04431725 C56.8235977 -0.06659027 67.35504733 -0.06173023 77.88668185 -0.04725404 C86.44395842 -0.03597717 95.00118504 -0.03442417 103.55846691 -0.03987312 C104.77486492 -0.04063929 105.99126293 -0.04140545 107.24452149 -0.04219484 C109.71536971 -0.04379341 112.18621792 -0.04541448 114.65706611 -0.04705779 C137.84524212 -0.06132736 161.03331942 -0.04490393 184.22147924 -0.01805596 C204.13011686 0.00428107 224.03860871 0.00040641 243.94724369 -0.02264977 C267.04902726 -0.04939128 290.15072422 -0.05995098 313.2525211 -0.04458845 C315.71475286 -0.04299565 318.17698463 -0.0414238 320.63921642 -0.03987312 C321.85077732 -0.03910175 323.06233821 -0.03833037 324.31061308 -0.03753562 C332.85987988 -0.03321346 341.40909187 -0.04051633 349.95835018 -0.05227089 C360.37391477 -0.06627622 370.78929088 -0.06253743 381.2048338 -0.03586717 C386.52191119 -0.02270214 391.83867406 -0.01762236 397.15574932 -0.03411293 C402.0196004 -0.04896998 406.88284429 -0.04089456 411.74663997 -0.01422517 C413.50971406 -0.00862211 415.27283904 -0.01152132 417.03588062 -0.02360411 C419.42654316 -0.03873625 421.81510638 -0.02329498 424.20565796 0 C425.24070174 -0.01755875 425.24070174 -0.01755875 426.29665551 -0.03547221 C429.95996694 0.0362356 431.62721001 0.60045453 434.59267992 2.8127476 C436.94153083 6.00388024 437.29173473 7.41113903 437.29495525 11.3217411 C437.31451336 13.03542916 437.31451336 13.03542916 437.33446658 14.78373718 C437.32331297 16.03421152 437.31215936 17.28468586 437.30066776 18.57305336 C437.30642954 19.91850082 437.31437105 21.26394042 437.32430398 22.60936356 C437.3451936 26.30554088 437.33485309 30.00107346 437.31937289 33.69725323 C437.30807174 37.68370959 437.32551591 41.67005417 437.3392725 45.65648842 C437.36152275 53.46548472 437.35669583 61.27424094 437.34220929 69.08324671 C437.33092405 75.42892905 437.32938305 81.77454404 437.33482838 88.12023354 C437.33559454 89.02288024 437.33636071 89.92552694 437.33715009 90.85552657 C437.33874869 92.68915226 437.34036976 94.52277793 437.34201305 96.35640359 C437.35627578 113.55625194 437.33986961 130.75596711 437.31301121 147.95579362 C437.29067195 162.71874248 437.29455193 177.48149477 437.31760502 192.24444008 C437.34435378 209.38211683 437.35490243 226.51967681 437.3395437 243.65737152 C437.33795093 245.48430695 437.33637908 247.3112424 437.33482838 249.13817787 C437.334057 250.03709932 437.33328562 250.93602077 437.33249087 251.86218226 C437.32817109 258.20132028 437.33546639 264.54038432 437.34722614 270.87951088 C437.36123944 278.60330726 437.35747599 286.32684953 437.33082242 294.05061674 C437.31766829 297.99258188 437.3125586 301.93412314 437.32906818 305.87608528 C437.34394844 309.48353573 437.33581281 313.09016872 437.30918042 316.69754481 C437.30093371 318.62325541 437.31729072 320.54902257 437.33446658 322.47467422 C437.31490847 324.18836228 437.31490847 324.18836228 437.29495525 325.9366703 C437.29414349 326.92237196 437.29333173 327.90807362 437.29249537 328.92364502 C436.39275016 332.80770007 434.8381782 334.26323935 431.66574955 336.6292057 C428.9667013 337.11793805 426.90056789 337.29569351 424.21010208 337.24444485 C423.46482519 337.25021407 422.71954829 337.25598329 421.95168725 337.26192734 C419.44600002 337.27519756 416.94190865 337.252706 414.43630314 337.23047829 C412.62532147 337.23265809 410.81434134 337.23703494 409.00336963 337.24342412 C404.02057581 337.2546249 399.03831751 337.23457628 394.05559194 337.20953381 C388.68480482 337.18797743 383.31404883 337.19524583 377.94323063 337.19904518 C368.63584243 337.20166922 359.32862924 337.18595795 350.02128506 337.15785599 C336.56439363 337.11725157 323.10758699 337.10420189 309.65064094 337.09791603 C287.8186337 337.08696805 265.98671978 337.05368016 244.15476322 337.00640297 C222.94480704 336.96052043 201.73487619 336.92512211 180.52488041 336.90386391 C179.21788996 336.90255029 177.91089952 336.90123667 176.5643033 336.89988325 C170.00763342 336.89335815 163.45096337 336.88703958 156.89429319 336.88082373 C102.48471419 336.82897505 48.07523633 336.74089602 -6.33425045 336.6292057 C-6.33425045 335.6392057 -6.33425045 334.6492057 -6.33425045 333.6292057 C-5.41071087 333.63034486 -4.48717129 333.63148403 -3.53564566 333.63265771 C51.1516284 333.69984831 105.83889865 333.7512355 160.52620568 333.78240169 C167.08663639 333.78615399 173.64706701 333.79003694 180.2074976 333.79400063 C181.51360932 333.79478756 182.81972104 333.79557449 184.16541191 333.79638527 C205.33803902 333.80945361 226.5106418 333.83311529 247.68325446 333.86066409 C269.39419567 333.88867858 291.10512411 333.90537357 312.81608266 333.91147119 C326.22232102 333.91559586 339.62849061 333.9286421 353.03470781 333.9529551 C362.21696098 333.9687635 371.39917838 333.97361722 380.58144418 333.96970984 C385.88603606 333.96778063 391.19050742 333.97082157 396.49507809 333.98682213 C401.34525792 334.00134594 406.19523539 334.00220737 411.04542425 333.99190239 C412.80590071 333.99062746 414.56638946 333.99449651 416.32684151 334.00385525 C418.70875143 334.01578784 421.08991811 334.00947185 423.47181511 333.99834919 C424.51164198 334.01017075 424.51164198 334.01017075 425.57247546 334.02223113 C428.29203614 333.99327261 430.24647374 333.88661293 432.59229898 332.44643354 C434.07778993 329.93166892 434.03826359 328.10218953 434.03489304 325.18441677 C434.04086618 324.04634006 434.04683933 322.90826336 434.05299348 321.73569947 C434.04425495 320.4798798 434.03551643 319.22406013 434.0265131 317.93018532 C434.02782069 316.58703417 434.03044625 315.24388377 434.0342806 313.90073746 C434.04100679 310.20190658 434.02896383 306.503335 434.01394641 302.80453718 C434.0010209 298.81886754 434.00537304 294.83321315 434.00765324 290.84752846 C434.00922818 283.93943045 433.9997959 277.03141728 433.98293972 270.12334061 C433.95858422 260.13536951 433.95074799 250.14743954 433.94697575 240.15944197 C433.94040584 223.95557367 433.92043006 207.75175061 433.89206791 191.54790688 C433.86454129 175.80507064 433.84330088 160.06224668 433.83054447 144.31939125 C433.8297563 143.34940586 433.82896813 142.37942047 433.82815608 141.38004158 C433.82424103 136.5140304 433.82044989 131.64801914 433.81672037 126.78200781 C433.78560766 86.39770897 433.7327572 46.01345992 433.66574955 5.6292057 C429.44900141 5.6292057 429.0403305 5.73386911 426.0055933 8.1995182 C425.304585 8.7588102 424.6035767 9.31810219 423.88132572 9.89434242 C423.12956059 10.50809731 422.37779545 11.12185219 421.60324955 11.7542057 C419.97475508 13.05323216 418.34449191 14.35004389 416.71262455 15.6448307 C415.87537846 16.31063148 415.03813236 16.97643227 414.17551517 17.66240883 C410.29996365 20.69951419 406.33179602 23.60411295 402.35324955 26.5042057 C395.56335046 31.46866735 388.84424412 36.51587785 382.16574955 41.6292057 C374.77942946 47.28286532 367.33380223 52.8439096 359.82981205 58.3401432 C353.88903522 62.70197603 348.01821695 67.14975119 342.16574955 71.6292057 C334.77933163 77.28273965 327.33380489 82.84390764 319.82981205 88.3401432 C313.88903522 92.70197603 308.01821695 97.14975119 302.16574955 101.6292057 C294.77933163 107.28273965 287.33380489 112.84390764 279.82981205 118.3401432 C273.88903165 122.70197864 268.01834038 127.14990841 262.16574955 131.6292057 C254.73885703 137.31083984 247.2770645 142.93796438 239.71994877 148.44561195 C235.5757665 151.46717529 231.47971116 154.53468826 227.43137455 157.6838932 C226.57108646 158.34373207 225.71079838 159.00357094 224.82444096 159.68340492 C223.16957571 160.95429296 221.5254068 162.23926604 219.89377689 163.53985023 C219.1507935 164.10558754 218.4078101 164.67132484 217.64231205 165.2542057 C216.99343021 165.76209633 216.34454838 166.26998695 215.67600346 166.7932682 C213.66574955 167.6292057 213.66574955 167.6292057 211.1930933 166.97783852 C208.66813758 165.63048 206.50846861 164.18405746 204.25168705 162.4260807 C203.41830814 161.78283852 202.58492924 161.13959633 201.72629642 160.47686195 C200.84006596 159.78463539 199.95383549 159.09240883 199.04074955 158.3792057 C197.14330678 156.91437463 195.24484918 155.45085725 193.34543705 153.9885807 C192.39120853 153.25317055 191.43698002 152.51776039 190.45383549 151.76006508 C186.39833322 148.66055337 182.28676592 145.64075124 178.16574955 142.6292057 C170.53769439 137.04349565 163.0092827 131.33642609 155.50168705 125.5901432 C149.76672228 121.20856245 143.98815392 116.89377613 138.16574955 112.6292057 C130.53834938 107.0425815 123.0093039 101.33644232 115.50168705 95.5901432 C109.76672228 91.20856245 103.98815392 86.89377613 98.16574955 82.6292057 C90.53834938 77.0425815 83.0093039 71.33644232 75.50168705 65.5901432 C69.76672228 61.20856245 63.98815392 56.89377613 58.16574955 52.6292057 C51.44077544 47.70355577 44.78534151 42.6955668 38.16574955 37.6292057 C28.4205676 30.17357608 18.56672253 22.87608682 8.66574955 15.6292057 C7.15907206 14.52396467 5.65255866 13.41849991 4.1462183 12.31279945 C0.65406017 9.74978058 -2.83959524 7.18881864 -6.33425045 4.6292057 C-8.93948385 7.23443911 -8.58755476 8.30556738 -8.59596348 11.93532944 C-8.60342897 13.0679317 -8.61089446 14.20053396 -8.61858618 15.36745751 C-8.61665145 16.62229907 -8.61471671 17.87714064 -8.61272335 19.17000771 C-8.61772225 20.50817259 -8.62359684 21.84633444 -8.63027608 23.18449199 C-8.64613935 26.87409854 -8.64951022 30.56362908 -8.65092468 34.25326562 C-8.65460775 38.22738663 -8.66975767 42.2014654 -8.68353939 46.1755619 C-8.70585056 53.06508508 -8.7208406 59.9545933 -8.73090649 66.84414482 C-8.74547071 76.80536546 -8.7710011 86.76653403 -8.79923777 96.72772418 C-8.84474691 112.88774202 -8.88134464 129.04776734 -8.91237545 145.20781898 C-8.94254414 160.90900423 -8.97688665 176.61017115 -9.01686764 192.31133461 C-9.01932919 193.27859573 -9.02179073 194.24585685 -9.02432688 195.24242891 C-9.03670115 200.09472691 -9.04915775 204.94702469 -9.06165528 209.79932237 C-9.16528477 250.07592468 -9.25446763 290.35254954 -9.33425045 330.6292057 C-9.99425045 330.6292057 -10.65425045 330.6292057 -11.33425045 330.6292057 C-11.42576085 289.31125849 -11.49626622 247.99332294 -11.53851177 206.67529451 C-11.54351473 201.79982399 -11.54869201 196.92435366 -11.55397701 192.04888344 C-11.55502625 191.07824519 -11.5560755 190.10760694 -11.55715653 189.10755541 C-11.57457248 173.38107664 -11.60611671 157.65465622 -11.64286163 141.92821208 C-11.68023798 125.79726456 -11.7024793 109.66634765 -11.71060443 93.53535861 C-11.71609907 83.5777571 -11.73346739 73.62032051 -11.76591632 63.66276976 C-11.7870234 56.8390049 -11.79345915 50.01532559 -11.78825596 43.19153044 C-11.78568823 39.2516544 -11.78968646 35.31206699 -11.81107235 31.37224197 C-11.83050182 27.76658591 -11.83154439 24.16141326 -11.81784603 20.55573519 C-11.81534896 18.63075235 -11.83263342 16.70577539 -11.85057569 14.78087455 C-11.84261149 13.63881575 -11.8346473 12.49675694 -11.82644176 11.32009029 C-11.82796065 10.33471604 -11.82947953 9.34934178 -11.83104444 8.3341077 C-10.54251707 1.31844255 -6.5114073 -0.11008766 0 0 Z " fill="#FB2C36" transform="translate(469.3342504501343,142.37079429626465)"/>
<path d="M0 0 C6.22075238 0.46079647 6.22075238 0.46079647 8.69921875 2.17578125 C10.5554467 4.77895979 10.43358352 6.76906885 10.4375 9.9375 C10.46650391 11.49791016 10.46650391 11.49791016 10.49609375 13.08984375 C9.88494093 16.67495283 8.88998537 17.84788324 6 20 C2.3125 20.3125 2.3125 20.3125 -1 20 C-1.33 19.67 -1.66 19.34 -2 19 C-2.33 21.64 -2.66 24.28 -3 27 C-4.65 27 -6.3 27 -8 27 C-8 18.42 -8 9.84 -8 1 C-5.66666667 1 -3.33333333 1 -1 1 C-0.67 0.67 -0.34 0.34 0 0 Z " fill="#E70414" transform="translate(548,84)"/>
<path d="M0 0 C2.05078125 0.03255208 4.1015625 0.06510417 6.15234375 0.09765625 C7.49325168 3.86583935 8.82376165 7.63761146 10.15234375 11.41015625 C10.53390625 12.48201172 10.91546875 13.55386719 11.30859375 14.65820312 C11.66953125 15.68623047 12.03046875 16.71425781 12.40234375 17.7734375 C12.7375 18.72130127 13.07265625 19.66916504 13.41796875 20.64575195 C14.15234375 23.09765625 14.15234375 23.09765625 14.15234375 26.09765625 C12.17234375 26.09765625 10.19234375 26.09765625 8.15234375 26.09765625 C7.82234375 24.11765625 7.49234375 22.13765625 7.15234375 20.09765625 C2.20234375 20.59265625 2.20234375 20.59265625 -2.84765625 21.09765625 C-3.83765625 23.57265625 -3.83765625 23.57265625 -4.84765625 26.09765625 C-6.82765625 26.09765625 -8.80765625 26.09765625 -10.84765625 26.09765625 C-9.54012064 21.95024039 -8.22580294 17.80500556 -6.91015625 13.66015625 C-6.53697266 12.47615234 -6.16378906 11.29214844 -5.77929688 10.07226562 C-5.42158203 8.94755859 -5.06386719 7.82285156 -4.6953125 6.6640625 C-4.36539307 5.62193604 -4.03547363 4.57980957 -3.69555664 3.50610352 C-2.50788877 0.13255226 -2.50788877 0.13255226 0 0 Z " fill="#E70A15" transform="translate(489.84765625,77.90234375)"/>
<path d="M0 0 C3.78278485 1.71944766 5.49233103 3.15475253 7 7 C7.2234599 11.23084083 6.64389518 14.9000124 4.5 18.5625 C0.68743879 20.7547227 -2.71883598 20.84556798 -7 20 C-10.0625 18.125 -10.0625 18.125 -12 15 C-12.74646392 11.4973616 -12.80791422 8.49523171 -12 5 C-9.11533974 0.56963441 -5.14043886 -0.87496832 0 0 Z " fill="#E80B16" transform="translate(787,84)"/>
<path d="M0 0 C4.29980658 2.38878143 4.29980658 2.38878143 6 5 C6.80768635 8.49424591 6.75186429 11.49895254 6 15 C4.00832478 18.11199254 2.72909499 19.61304528 -0.9375 20.43359375 C-4.50547087 20.65659193 -6.7034758 20.14510759 -9.9375 18.5625 C-12.86781321 14.92180783 -13.28831514 11.61304228 -13 7 C-11.77958841 3.98108712 -10.80119643 2.58017673 -8.1875 0.6875 C-5.17760008 -0.25846855 -3.14801964 -0.44072275 0 0 Z " fill="#E70A14" transform="translate(855,84)"/>
<path d="M0 0 C2.30859375 1.27734375 2.30859375 1.27734375 4 3 C4 4.32 4 5.64 4 7 C2.35 7 0.7 7 -1 7 C-1.33 6.34 -1.66 5.68 -2 5 C-3.98 5 -5.96 5 -8 5 C-8 6.32 -8 7.64 -8 9 C-7.22914063 9.25394531 -6.45828125 9.50789063 -5.6640625 9.76953125 C-4.66117188 10.11371094 -3.65828125 10.45789063 -2.625 10.8125 C-1.12839844 11.31716797 -1.12839844 11.31716797 0.3984375 11.83203125 C3 13 3 13 5 16 C4.77725318 22.23691088 4.77725318 22.23691088 2.28515625 24.68359375 C-1.88694183 27.08700751 -6.35446855 26.87275517 -11 26 C-13.55666234 24.21361413 -14.39133325 22.77356335 -16 20 C-16 19.34 -16 18.68 -16 18 C-13.125 17.8125 -13.125 17.8125 -10 18 C-9.34 18.99 -8.68 19.98 -8 21 C-4.41642759 21.25015873 -4.41642759 21.25015873 -1 21 C-1.12383463 19.04492906 -1.12383463 19.04492906 -2 17 C-4.20761975 15.74791249 -4.20761975 15.74791249 -6.875 14.9375 C-10.30079241 13.77392911 -12.74603663 12.90833984 -15 10 C-15.5 7.0625 -15.5 7.0625 -15 4 C-11.15399576 -0.87160537 -5.78672061 -1.0444325 0 0 Z " fill="#E70A15" transform="translate(531,78)"/>
<path d="M0 0 C2.67146867 2.0266314 3.58133823 4.29709558 4.8125 7.375 C4.8125 8.695 4.8125 10.015 4.8125 11.375 C0.1925 11.375 -4.4275 11.375 -9.1875 11.375 C-8.1975 12.86 -8.1975 12.86 -7.1875 14.375 C-4.08255874 14.69345551 -2.17023923 14.36924641 0.8125 13.375 C1.8025 14.035 2.7925 14.695 3.8125 15.375 C2.05457518 17.82080845 0.7091364 19.21870558 -2.31640625 19.74609375 C-5.92246874 19.84708726 -8.46163864 19.75607721 -11.6875 18.0625 C-14.47837593 14.92276458 -14.51797674 11.45227407 -14.48046875 7.37890625 C-14.02009178 4.22992778 -12.41849654 2.540379 -10.1875 0.375 C-6.85897092 -1.28926454 -3.52999624 -1.00857035 0 0 Z " fill="#E7101B" transform="translate(724.1875,84.625)"/>
<path d="M0 0 C2.67146867 2.0266314 3.58133823 4.29709558 4.8125 7.375 C4.8125 8.695 4.8125 10.015 4.8125 11.375 C0.1925 11.375 -4.4275 11.375 -9.1875 11.375 C-8.1975 12.86 -8.1975 12.86 -7.1875 14.375 C-4.08255874 14.69345551 -2.17023923 14.36924641 0.8125 13.375 C1.8025 14.035 2.7925 14.695 3.8125 15.375 C2.05457518 17.82080845 0.7091364 19.21870558 -2.31640625 19.74609375 C-5.92246874 19.84708726 -8.46163864 19.75607721 -11.6875 18.0625 C-14.47837593 14.92276458 -14.51797674 11.45227407 -14.48046875 7.37890625 C-14.02009178 4.22992778 -12.41849654 2.540379 -10.1875 0.375 C-6.85897092 -1.28926454 -3.52999624 -1.00857035 0 0 Z " fill="#E7101B" transform="translate(677.1875,84.625)"/>
<path d="M0 0 C3.375 2.0625 3.375 2.0625 6 5 C6.375 8.8125 6.375 8.8125 6 12 C1.71 12 -2.58 12 -7 12 C-6.01 13.485 -6.01 13.485 -5 15 C-1.89505874 15.31845551 0.01726077 14.99424641 3 14 C3.99 14.66 4.98 15.32 6 16 C4.25894589 18.42233615 2.87470667 19.81559356 -0.09375 20.44140625 C-4.23049119 20.65513788 -6.47684032 20.32030185 -10.0625 18.125 C-12.77980093 13.74225657 -13.16112886 10.02332342 -12 5 C-9.14486038 0.61497328 -5.09164774 -1.06075995 0 0 Z " fill="#E70E19" transform="translate(574,84)"/>
<path d="M0 0 C2.70703125 1.5078125 2.70703125 1.5078125 5 4 C5.37233017 6.96672677 5.4808246 9.31856241 5.3125 12.25 C5.28994141 12.99507812 5.26738281 13.74015625 5.24414062 14.5078125 C5.18543561 16.339409 5.09575757 18.16996653 5 20 C2.66666667 20 0.33333333 20 -2 20 C-2.61875 20.02320312 -3.2375 20.04640625 -3.875 20.0703125 C-4.57625 20.08835937 -5.2775 20.10640625 -6 20.125 C-7.051875 20.15980469 -7.051875 20.15980469 -8.125 20.1953125 C-10 20 -10 20 -12 18 C-12.125 14.375 -12.125 14.375 -12 11 C-4.71428571 7.57142857 -4.71428571 7.57142857 0 8 C-0.33 7.01 -0.66 6.02 -1 5 C-2.66611905 4.957279 -4.33382885 4.95936168 -6 5 C-6.33 5.33 -6.66 5.66 -7 6 C-8.66617115 6.04063832 -10.33388095 6.042721 -12 6 C-9.46532142 0.15074175 -6.15786632 -0.63702065 0 0 Z " fill="#E70915" transform="translate(626,84)"/>
<path d="M0 0 C1.98 0 3.96 0 6 0 C7.65 2.97 9.3 5.94 11 9 C13.92824652 6.07175348 15.27239967 3.7020007 17 0 C18.98 0 20.96 0 23 0 C21.64033689 3.6586104 19.94574992 6.84699583 17.9375 10.1875 C14.98391746 15.47664051 14.02610944 19.98177396 14 26 C12.35 26 10.7 26 9 26 C9.020625 25.35675781 9.04125 24.71351562 9.0625 24.05078125 C8.87717643 15.93129224 6.13794291 11.18982423 1.71484375 4.65234375 C0 2 0 2 0 0 Z " fill="#E70713" transform="translate(820,78)"/>
<path d="M0 0 C1.65 0 3.3 0 5 0 C5.33 4.62 5.66 9.24 6 14 C7.65 14.33 9.3 14.66 11 15 C12.87824891 13.12175109 12.39102397 9.96064724 12.5625 7.4375 C12.64628906 6.23996094 12.73007812 5.04242188 12.81640625 3.80859375 C12.87699219 2.88175781 12.93757812 1.95492187 13 1 C14.65 1 16.3 1 18 1 C18 7.27 18 13.54 18 20 C16.35 20 14.7 20 13 20 C12.67 19.34 12.34 18.68 12 18 C11.34 18.66 10.68 19.32 10 20 C6.55000256 20.44999967 4.71786645 20.49658862 1.8203125 18.4921875 C-0.7187945 15.01589937 -0.43940605 11.873224 -0.25 7.75 C-0.23195313 7.00492187 -0.21390625 6.25984375 -0.1953125 5.4921875 C-0.14835649 3.66090299 -0.07661652 1.83028351 0 0 Z " fill="#E70811" transform="translate(865,84)"/>
<path d="M0 0 C5.61 0 11.22 0 17 0 C17 1.32 17 2.64 17 4 C13.04 4 9.08 4 5 4 C5 6.64 5 9.28 5 12 C8.3 12 11.6 12 15 12 C15 13.32 15 14.64 15 16 C11.7 16 8.4 16 5 16 C5 19.3 5 22.6 5 26 C3.35 26 1.7 26 0 26 C0 17.42 0 8.84 0 0 Z " fill="#E70013" transform="translate(756,78)"/>
<path d="M0 0 C2.9375 1.8125 2.9375 1.8125 5 4 C5 4.99 5 5.98 5 7 C3.35 7 1.7 7 0 7 C0 6.34 0 5.68 0 5 C-1.66611905 4.957279 -3.33382885 4.95936168 -5 5 C-6.25949049 6.03406673 -6.25949049 6.03406673 -6.09765625 8.28515625 C-6.08605469 9.20167969 -6.07445312 10.11820313 -6.0625 11.0625 C-6.04896484 12.44115234 -6.04896484 12.44115234 -6.03515625 13.84765625 C-6.02355469 14.55792969 -6.01195312 15.26820312 -6 16 C-3.52733235 15.65555119 -3.52733235 15.65555119 -1 15 C-0.67 14.34 -0.34 13.68 0 13 C1.65 13.33 3.3 13.66 5 14 C3.25 18.875 3.25 18.875 1 20 C-3.37936569 20.51571681 -6.85046515 20.83341277 -10.5 18.1875 C-13.23855909 14.19376799 -13.40900997 10.74451559 -13 6 C-9.30920537 0.34078157 -6.6962915 -0.56748233 0 0 Z " fill="#E80F18" transform="translate(596,84)"/>
<path d="M0 0 C1.65 0 3.3 0 5 0 C5 1.32 5 2.64 5 4 C6.32 4 7.64 4 9 4 C9 5.32 9 6.64 9 8 C7.68 8 6.36 8 5 8 C5 11.96 5 15.92 5 20 C6.32 20 7.64 20 9 20 C9 21.32 9 22.64 9 24 C5.625 24.125 5.625 24.125 2 24 C0 22 0 22 -0.1953125 18.7421875 C-0.17210937 17.46601562 -0.14890625 16.18984375 -0.125 14.875 C-0.10695313 13.59367187 -0.08890625 12.31234375 -0.0703125 10.9921875 C-0.04710937 10.00476563 -0.02390625 9.01734375 0 8 C-0.99 8 -1.98 8 -3 8 C-3 6.68 -3 5.36 -3 4 C-2.01 4 -1.02 4 0 4 C0 2.68 0 1.36 0 0 Z " fill="#E70717" transform="translate(699,80)"/>
<path d="M0 0 C1.65 0 3.3 0 5 0 C5 1.32 5 2.64 5 4 C6.32 4 7.64 4 9 4 C9 5.32 9 6.64 9 8 C7.68 8 6.36 8 5 8 C5 11.96 5 15.92 5 20 C6.32 20 7.64 20 9 20 C9 21.32 9 22.64 9 24 C5.625 24.1875 5.625 24.1875 2 24 C-0.42130331 20.36804504 -0.21022785 18.61650652 -0.125 14.3125 C-0.09792969 12.54326172 -0.09792969 12.54326172 -0.0703125 10.73828125 C-0.03550781 9.38283203 -0.03550781 9.38283203 0 8 C-0.99 8 -1.98 8 -3 8 C-3 6.68 -3 5.36 -3 4 C-2.01 4 -1.02 4 0 4 C0 2.68 0 1.36 0 0 Z " fill="#E70712" transform="translate(686,80)"/>
<path d="M0 0 C4 0 8 0 12 0 C12 1.65 12 3.3 12 5 C10.35 5.33 8.7 5.66 7 6 C6.67 10.62 6.34 15.24 6 20 C4.02 20 2.04 20 0 20 C0 13.4 0 6.8 0 0 Z " fill="#EA1C24" transform="translate(797,84)"/>
<path d="M0 0 C1.65 0 3.3 0 5 0 C5.33 0.66 5.66 1.32 6 2 C6.66 1.34 7.32 0.68 8 0 C9.32 0 10.64 0 12 0 C12 1.65 12 3.3 12 5 C10.02 5.66 8.04 6.32 6 7 C5.67 11.29 5.34 15.58 5 20 C3.35 20 1.7 20 0 20 C0 13.4 0 6.8 0 0 Z " fill="#E80C14" transform="translate(732,84)"/>
<path d="M0 0 C2.5 0.8125 2.5 0.8125 5.5 2.8125 C5.5 1.8225 5.5 0.8325 5.5 -0.1875 C6.16 -0.1875 6.82 -0.1875 7.5 -0.1875 C7.5 3.7725 7.5 7.7325 7.5 11.8125 C6.84 11.8125 6.18 11.8125 5.5 11.8125 C5.17 11.1525 4.84 10.4925 4.5 9.8125 C3.84 10.4725 3.18 11.1325 2.5 11.8125 C-0.5 12.125 -0.5 12.125 -3.5 11.8125 C-5.81282587 8.34326119 -5.92478586 6.89044425 -5.5 2.8125 C-3.84321778 0.10932901 -3.18083323 -0.23856249 0 0 Z " fill="#E58B8E" transform="translate(551.5,517.1875)"/>
<path d="M0 0 C1.65 0 3.3 0 5 0 C5 8.58 5 17.16 5 26 C3.35 26 1.7 26 0 26 C0 17.42 0 8.84 0 0 Z " fill="#E7000B" transform="translate(654,78)"/>
<path d="M0 0 C1.65 0 3.3 0 5 0 C5 8.58 5 17.16 5 26 C3.35 26 1.7 26 0 26 C0 17.42 0 8.84 0 0 Z " fill="#E7001B" transform="translate(636,78)"/>
<path d="M0 0 C0.66 0 1.32 0 2 0 C2.33 1.98 2.66 3.96 3 6 C4.32 5.01 5.64 4.02 7 3 C6.79375 3.928125 6.5875 4.85625 6.375 5.8125 C5.63307034 9.15173402 5.63307034 9.15173402 8 12 C4.125 10.125 4.125 10.125 3 9 C2.67 9.99 2.34 10.98 2 12 C1.01 11.67 0.02 11.34 -1 11 C-2.010625 11.185625 -3.02125 11.37125 -4.0625 11.5625 C-5.031875 11.706875 -6.00125 11.85125 -7 12 C-9 10 -9 10 -9.25 7.5 C-9 5 -9 5 -7 3 C-4.38419521 3.3269756 -2.35921863 3.82039068 0 5 C0 3.35 0 1.7 0 0 Z " fill="#E7928C" transform="translate(574,517)"/>
<path d="M0 0 C1.65 0 3.3 0 5 0 C5 6.6 5 13.2 5 20 C3.35 20 1.7 20 0 20 C0 13.4 0 6.8 0 0 Z " fill="#E7040F" transform="translate(605,84)"/>
<path d="M0 0 C3.25638062 0.44915595 4.60816566 0.28214224 7.625 -0.5 C8.285 0.16 8.945 0.82 9.625 1.5 C7.975 1.5 6.325 1.5 4.625 1.5 C4.625 2.16 4.625 2.82 4.625 3.5 C6.275 3.83 7.925 4.16 9.625 4.5 C9.295 5.82 8.965 7.14 8.625 8.5 C4.29166667 8.5 -0.04166667 8.5 -4.375 8.5 C-4.705 7.84 -5.035 7.18 -5.375 6.5 C-2.9 6.995 -2.9 6.995 -0.375 7.5 C-1.63041557 4.98916886 -2.87563488 4.62874554 -5.375 3.5 C-5.375 2.51 -5.375 1.52 -5.375 0.5 C-3.375 -0.5 -3.375 -0.5 0 0 Z " fill="#DF858C" transform="translate(780.375,520.5)"/>
<path d="M0 0 C0.99 0 1.98 0 3 0 C3.33 0.99 3.66 1.98 4 3 C6.01508358 3.73323796 6.01508358 3.73323796 8 4 C8 6.64 8 9.28 8 12 C7.67 12 7.34 12 7 12 C7 9.69 7 7.38 7 5 C5.68 5 4.36 5 3 5 C3 7.31 3 9.62 3 12 C1.00045254 12.04254356 -1.00041636 12.04080783 -3 12 C-5.09722394 9.90277606 -4.86940109 5.90285764 -5 3 C-4.67 2.34 -4.34 1.68 -4 1 C-3.34 1 -2.68 1 -2 1 C-2 1.66 -2 2.32 -2 3 C-1.34 3 -0.68 3 0 3 C0 2.01 0 1.02 0 0 Z " fill="#F8D9D2" transform="translate(592,517)"/>
<path d="M0 0 C4.55555556 0.55555556 4.55555556 0.55555556 6 2 C6.27314815 7.73611111 6.27314815 7.73611111 6 10 C5.34 10.66 4.68 11.32 4 12 C-0.55555556 11.44444444 -0.55555556 11.44444444 -2 10 C-2.27314815 4.26388889 -2.27314815 4.26388889 -2 2 C-1.34 1.34 -0.68 0.68 0 0 Z " fill="#F9DCE3" transform="translate(850,88)"/>
<path d="M0 0 C4.55555556 0.55555556 4.55555556 0.55555556 6 2 C6.27314815 7.73611111 6.27314815 7.73611111 6 10 C5.34 10.66 4.68 11.32 4 12 C-0.55555556 11.44444444 -0.55555556 11.44444444 -2 10 C-2.27314815 4.26388889 -2.27314815 4.26388889 -2 2 C-1.34 1.34 -0.68 0.68 0 0 Z " fill="#F9D9E2" transform="translate(547,88)"/>
<path d="M0 0 C1.875 0.75 1.875 0.75 2.875 1.75 C3.14814815 7.48611111 3.14814815 7.48611111 2.875 9.75 C2.215 10.41 1.555 11.07 0.875 11.75 C-1.6875 11.5 -1.6875 11.5 -4.125 10.75 C-5.52435013 7.95129973 -5.37765405 5.84501208 -5.125 2.75 C-3.53345125 0.28309944 -2.95833673 -0.34803962 0 0 Z " fill="#F9DDEA" transform="translate(785.125,88.25)"/>
<path d="M0 0 C1.98 0 3.96 0 6 0 C8 2 8 2 8.125 5.125 C8.08375 6.07375 8.0425 7.0225 8 8 C6.35 8.33 4.7 8.66 3 9 C2.67 9.99 2.34 10.98 2 12 C1.34 12 0.68 12 0 12 C0 8.04 0 4.08 0 0 Z " fill="#CE3337" transform="translate(666,520)"/>
<path d="M0 0 C3.27275026 0 5.846632 0.29925156 9 1 C9.33 2.32 9.66 3.64 10 5 C8.02 5 6.04 5 4 5 C4.33 5.66 4.66 6.32 5 7 C6.65 7 8.3 7 10 7 C9.67 7.66 9.34 8.32 9 9 C4.44615385 9.36923077 4.44615385 9.36923077 2.1875 7.5 C1.795625 7.005 1.40375 6.51 1 6 C0.01 6.33 -0.98 6.66 -2 7 C-1.125 1.125 -1.125 1.125 0 0 Z " fill="#D34D54" transform="translate(641,520)"/>
<path d="M0 0 C1.65 0 3.3 0 5 0 C5 3.96 5 7.92 5 12 C2.69 12 0.38 12 -2 12 C-2 11.34 -2 10.68 -2 10 C0.97 10.495 0.97 10.495 4 11 C3.67 10.34 3.34 9.68 3 9 C1.67696283 8.6278958 0.34262065 8.29369827 -1 8 C-2 7 -2 7 -2.1875 4.5625 C-2 2 -2 2 0 0 Z " fill="#CB2C2E" transform="translate(803,520)"/>
<path d="M0 0 C1.98 0 3.96 0 6 0 C8 2 8 2 8.25 4.5 C8 7 8 7 6 9 C4.68 9 3.36 9 2 9 C1.34 9.99 0.68 10.98 0 12 C0 8.04 0 4.08 0 0 Z " fill="#C92A3F" transform="translate(719,520)"/>
<path d="M0 0 C4.55555556 0.55555556 4.55555556 0.55555556 6 2 C6.1875 4.4375 6.1875 4.4375 6 7 C4 9 4 9 1.4375 9.1875 C-1 9 -1 9 -2 8 C-2.1875 5.0625 -2.1875 5.0625 -2 2 C-1.34 1.34 -0.68 0.68 0 0 Z " fill="#CA303B" transform="translate(711,520)"/>
<path d="M0 0 C4.55555556 0.55555556 4.55555556 0.55555556 6 2 C6.1875 4.4375 6.1875 4.4375 6 7 C4 9 4 9 1.4375 9.1875 C-1 9 -1 9 -2 8 C-2.1875 5.0625 -2.1875 5.0625 -2 2 C-1.34 1.34 -0.68 0.68 0 0 Z " fill="#CA303B" transform="translate(697,520)"/>
<path d="M0 0 C2.625 0.375 2.625 0.375 5 1 C5.04241723 3.33294775 5.04092937 5.66702567 5 8 C4 9 4 9 1.5 9.125 C-1 9 -1 9 -2 8 C-2.1875 5.0625 -2.1875 5.0625 -2 2 C-1.34 1.34 -0.68 0.68 0 0 Z " fill="#CA2730" transform="translate(659,520)"/>
<path d="M0 0 C3.53571429 0.53571429 3.53571429 0.53571429 5 2 C5.04092937 4.33297433 5.04241723 6.66705225 5 9 C2.69 9 0.38 9 -2 9 C-1.67 7.35 -1.34 5.7 -1 4 C0.32 4 1.64 4 3 4 C3 3.34 3 2.68 3 2 C1.35 2 -0.3 2 -2 2 C-1.34 1.34 -0.68 0.68 0 0 Z " fill="#D04E5A" transform="translate(794,520)"/>
<path d="M0 0 C2.625 0.375 2.625 0.375 5 1 C5.33 2.32 5.66 3.64 6 5 C4.02 5 2.04 5 0 5 C0.33 5.66 0.66 6.32 1 7 C2.65 7 4.3 7 6 7 C5.67 7.66 5.34 8.32 5 9 C2.625 9.125 2.625 9.125 0 9 C-2 7 -2 7 -2.25 4.5 C-2 2 -2 2 0 0 Z " fill="#D34D54" transform="translate(730,520)"/>
<path d="M0 0 C2.625 0.375 2.625 0.375 5 1 C5.33 2.32 5.66 3.64 6 5 C4.02 5 2.04 5 0 5 C0.33 5.66 0.66 6.32 1 7 C2.65 7 4.3 7 6 7 C5.67 7.66 5.34 8.32 5 9 C2.625 9.125 2.625 9.125 0 9 C-2 7 -2 7 -2.25 4.5 C-2 2 -2 2 0 0 Z " fill="#D34D54" transform="translate(604,520)"/>
<path d="M0 0 C2.625 0.375 2.625 0.375 5 1 C5.33 2.32 5.66 3.64 6 5 C4.02 5 2.04 5 0 5 C0.33 5.66 0.66 6.32 1 7 C2.32 7 3.64 7 5 7 C5 7.66 5 8.32 5 9 C2.625 9.125 2.625 9.125 0 9 C-2 7 -2 7 -2.25 4.5 C-2 2 -2 2 0 0 Z " fill="#C51E37" transform="translate(618,520)"/>
<path d="M0 0 C2.125 0.375 2.125 0.375 4 1 C4.33 2.32 4.66 3.64 5 5 C3.02 5 1.04 5 -1 5 C-0.67 5.66 -0.34 6.32 0 7 C1.65 7 3.3 7 5 7 C4.67 7.66 4.34 8.32 4 9 C2.33388095 9.042721 0.66617115 9.04063832 -1 9 C-2 8 -2 8 -2.1875 5.0625 C-2 2 -2 2 0 0 Z " fill="#D1454C" transform="translate(813,520)"/>
<path d="M0 0 C2.125 0.375 2.125 0.375 4 1 C4.33 2.32 4.66 3.64 5 5 C3.02 5 1.04 5 -1 5 C-0.67 5.66 -0.34 6.32 0 7 C1.65 7 3.3 7 5 7 C4.67 7.66 4.34 8.32 4 9 C2.33388095 9.042721 0.66617115 9.04063832 -1 9 C-2 8 -2 8 -2.1875 5.0625 C-2 2 -2 2 0 0 Z " fill="#D1454C" transform="translate(768,520)"/>
<path d="M0 0 C2.3129482 2.3129482 2.49580975 3.47904875 3.125 6.625 C3.29257812 7.44226563 3.46015625 8.25953125 3.6328125 9.1015625 C3.81457031 10.04128906 3.81457031 10.04128906 4 11 C1.69 11 -0.62 11 -3 11 C-2.01 7.37 -1.02 3.74 0 0 Z " fill="#F6CDD4" transform="translate(491,83)"/>
<path d="M0 0 C2.03833424 1.2739589 4.03852126 2.61061923 6 4 C6 4.66 6 5.32 6 6 C2.04 6 -1.92 6 -6 6 C-6.33 5.01 -6.66 4.02 -7 3 C-5.02 3 -3.04 3 -1 3 C-0.67 2.01 -0.34 1.02 0 0 Z " fill="#EBCAD5" transform="translate(774,522)"/>
<path d="M0 0 C0.66 0 1.32 0 2 0 C2.33 0.99 2.66 1.98 3 3 C5.01508358 3.73323796 5.01508358 3.73323796 7 4 C7 6.64 7 9.28 7 12 C6.67 12 6.34 12 6 12 C6 9.69 6 7.38 6 5 C4.68 5 3.36 5 2 5 C2 7.31 2 9.62 2 12 C1.34 12 0.68 12 0 12 C0 8.04 0 4.08 0 0 Z " fill="#C9324B" transform="translate(593,517)"/>
<path d="M0 0 C0.99 0 1.98 0 3 0 C2.67 3.96 2.34 7.92 2 12 C1.01 11.67 0.02 11.34 -1 11 C-1.02688151 9.35425434 -1.04634123 7.70838587 -1.0625 6.0625 C-1.07410156 5.14597656 -1.08570313 4.22945312 -1.09765625 3.28515625 C-1 1 -1 1 0 0 Z " fill="#E88781" transform="translate(561,517)"/>
<path d="M0 0 C1.99954746 -0.04254356 4.00041636 -0.04080783 6 0 C7 1 7 1 7.09765625 2.84765625 C7.06510417 4.8984375 7.03255208 6.94921875 7 9 C6.34 9 5.68 9 5 9 C5 6.69 5 4.38 5 2 C4.01 2.33 3.02 2.66 2 3 C1.67 4.98 1.34 6.96 1 9 C0.67 9 0.34 9 0 9 C0 6.03 0 3.06 0 0 Z " fill="#D33945" transform="translate(738,520)"/>
<path d="M0 0 C-0.33 1.65 -0.66 3.3 -1 5 C-2.65 5.33 -4.3 5.66 -6 6 C-6.33 4.68 -6.66 3.36 -7 2 C-4 0 -4 0 0 0 Z " fill="#F7CBCE" transform="translate(626,95)"/>
<path d="M0 0 C3.96 0 7.92 0 12 0 C12 0.66 12 1.32 12 2 C11.0409375 2.1546875 11.0409375 2.1546875 10.0625 2.3125 C9.381875 2.539375 8.70125 2.76625 8 3 C7.67 3.99 7.34 4.98 7 6 C6.34 6 5.68 6 5 6 C4.67 5.01 4.34 4.02 4 3 C1.98491642 2.26676204 1.98491642 2.26676204 0 2 C0 1.34 0 0.68 0 0 Z " fill="#F2CECB" transform="translate(785,522)"/>
<path d="M0 0 C1.65 0.33 3.3 0.66 5 1 C5 1.33 5 1.66 5 2 C3.35 2 1.7 2 0 2 C0 2.66 0 3.32 0 4 C1.65 4.33 3.3 4.66 5 5 C4.67 6.32 4.34 7.64 4 9 C2.35 9 0.7 9 -1 9 C-1.33 8.34 -1.66 7.68 -2 7 C0.475 7.495 0.475 7.495 3 8 C2.67 7.34 2.34 6.68 2 6 C1.01 5.67 0.02 5.34 -1 5 C-0.67 3.35 -0.34 1.7 0 0 Z " fill="#CB313A" transform="translate(785,520)"/>
<path d="M0 0 C0.33 0 0.66 0 1 0 C1 2.97 1 5.94 1 9 C-1.31 8.67 -3.62 8.34 -6 8 C-6.33 7.01 -6.66 6.02 -7 5 C-5.02 5 -3.04 5 -1 5 C-0.67 3.35 -0.34 1.7 0 0 Z " fill="#F3C1AE" transform="translate(625,520)"/>
<path d="M0 0 C0.33 0 0.66 0 1 0 C1.33 1.65 1.66 3.3 2 5 C3.32 4.01 4.64 3.02 6 2 C5.79375 2.928125 5.5875 3.85625 5.375 4.8125 C4.63307034 8.15173402 4.63307034 8.15173402 7 11 C3.125 9.125 3.125 9.125 2 8 C1.34 8.99 0.68 9.98 0 11 C0 7.37 0 3.74 0 0 Z " fill="#C51B37" transform="translate(575,518)"/>
<path d="M0 0 C1.65 0 3.3 0 5 0 C5.33 1.32 5.66 2.64 6 4 C3.69 4.33 1.38 4.66 -1 5 C-0.67 3.35 -0.34 1.7 0 0 Z " fill="#F8CED2" transform="translate(620,88)"/>
<path d="M0 0 C1.32 0 2.64 0 4 0 C4 1.65 4 3.3 4 5 C2.68 5.33 1.36 5.66 0 6 C-0.38218767 4.34385343 -0.71395102 2.67542976 -1 1 C-0.67 0.67 -0.34 0.34 0 0 Z " fill="#F2CFD6" transform="translate(711,522)"/>
<path d="M0 0 C1.32 0 2.64 0 4 0 C4 1.65 4 3.3 4 5 C2.68 5.33 1.36 5.66 0 6 C-0.38218767 4.34385343 -0.71395102 2.67542976 -1 1 C-0.67 0.67 -0.34 0.34 0 0 Z " fill="#F2CFD6" transform="translate(697,522)"/>
<path d="M0 0 C2.475 0.495 2.475 0.495 5 1 C4.67 2.65 4.34 4.3 4 6 C2.68 5.67 1.36 5.34 0 5 C0 3.35 0 1.7 0 0 Z " fill="#F3D0CB" transform="translate(668,522)"/>
<path d="M0 0 C1.98 0.495 1.98 0.495 4 1 C3.67 2.65 3.34 4.3 3 6 C1.68 5.67 0.36 5.34 -1 5 C-0.67 3.35 -0.34 1.7 0 0 Z " fill="#F4D5D6" transform="translate(659,522)"/>
<path d="M0 0 C1.65 0.33 3.3 0.66 5 1 C5.33 1.99 5.66 2.98 6 4 C3.36 4 0.72 4 -2 4 C-1.34 2.68 -0.68 1.36 0 0 Z " fill="#F8D6E6" transform="translate(717,88)"/>
<path d="M0 0 C1.65 0.33 3.3 0.66 5 1 C5.33 1.99 5.66 2.98 6 4 C3.36 4 0.72 4 -2 4 C-1.34 2.68 -0.68 1.36 0 0 Z " fill="#F8D6E6" transform="translate(670,88)"/>
<path d="M0 0 C1.65 0.33 3.3 0.66 5 1 C5.33 1.99 5.66 2.98 6 4 C3.36 4 0.72 4 -2 4 C-1.34 2.68 -0.68 1.36 0 0 Z " fill="#F9DAE5" transform="translate(569,88)"/>
<path d="M0 0 C1.98 0.495 1.98 0.495 4 1 C3.67 2.65 3.34 4.3 3 6 C1.68 5.67 0.36 5.34 -1 5 C-0.67 3.35 -0.34 1.7 0 0 Z " fill="#E91D26" transform="translate(606,76)"/>
<path d="M0 0 C0.66 0 1.32 0 2 0 C3.231394 3.69418201 2.64432764 6.2056261 2 10 C2.66 10.33 3.32 10.66 4 11 C2.68 10.67 1.36 10.34 0 10 C-1.125 2.25 -1.125 2.25 0 0 Z " fill="#D03F43" transform="translate(690,518)"/>
<path d="M0 0 C0.66 0 1.32 0 2 0 C3.231394 3.69418201 2.64432764 6.2056261 2 10 C2.66 10.33 3.32 10.66 4 11 C2.68 10.67 1.36 10.34 0 10 C-1.125 2.25 -1.125 2.25 0 0 Z " fill="#CC3F44" transform="translate(588,518)"/>
<path d="M0 0 C1.32 0 2.64 0 4 0 C4 1.65 4 3.3 4 5 C2.35 5 0.7 5 -1 5 C-0.67 3.35 -0.34 1.7 0 0 Z " fill="#F3CED1" transform="translate(803,522)"/>
<path d="M0 0 C1.32 0 2.64 0 4 0 C4 1.65 4 3.3 4 5 C2.68 5.33 1.36 5.66 0 6 C0 4.02 0 2.04 0 0 Z " fill="#F8DAD8" transform="translate(721,522)"/>
<path d="M0 0 C2 2 2 2 2.125 5.125 C2.08375 6.07375 2.0425 7.0225 2 8 C1.01 8 0.02 8 -1 8 C-1.04241723 5.66705225 -1.04092937 3.33297433 -1 1 C-0.67 0.67 -0.34 0.34 0 0 Z " fill="#F0D0CB" transform="translate(693,520)"/>
<path d="M0 0 C0.33 0 0.66 0 1 0 C1 1.65 1 3.3 1 5 C-0.98 5 -2.96 5 -5 5 C-5.33 4.01 -5.66 3.02 -6 2 C-4.02 2 -2.04 2 0 2 C0 1.34 0 0.68 0 0 Z " fill="#E6BED3" transform="translate(683,523)"/>
<path d="M0 0 C0.66 0 1.32 0 2 0 C2 1.65 2 3.3 2 5 C0.02 5.99 0.02 5.99 -2 7 C-1.125 1.125 -1.125 1.125 0 0 Z " fill="#D97C92" transform="translate(641,520)"/>
<path d="M0 0 C1.32 0.66 2.64 1.32 4 2 C4 2.66 4 3.32 4 4 C2.35 4 0.7 4 -1 4 C-1.33 4.99 -1.66 5.98 -2 7 C-2.125 4.625 -2.125 4.625 -2 2 C-1.34 1.34 -0.68 0.68 0 0 Z " fill="#E3887F" transform="translate(618,520)"/>
<path d="M0 0 C1.65 0.33 3.3 0.66 5 1 C4.67 1.99 4.34 2.98 4 4 C2.35 4 0.7 4 -1 4 C-0.67 2.68 -0.34 1.36 0 0 Z " fill="#DE858D" transform="translate(678,520)"/>
<path d="M0 0 C2.03833424 1.2739589 4.03852126 2.61061923 6 4 C6 4.66 6 5.32 6 6 C4.35 5.67 2.7 5.34 1 5 C0.67 3.35 0.34 1.7 0 0 Z " fill="#F7D5CB" transform="translate(774,522)"/>
<path d="M0 0 C0.99 0 1.98 0 3 0 C3 1.65 3 3.3 3 5 C2.34 5 1.68 5 1 5 C0.67 5.66 0.34 6.32 0 7 C0 4.69 0 2.38 0 0 Z " fill="#E59DAC" transform="translate(763,522)"/>
<path d="M0 0 C0.66 0.66 1.32 1.32 2 2 C0.35 3.65 -1.3 5.3 -3 7 C-3.33 6.01 -3.66 5.02 -4 4 C-2.68 2.68 -1.36 1.36 0 0 Z " fill="#F9424B" transform="translate(904,472)"/>
<path d="M0 0 C0.66 0.33 1.32 0.66 2 1 C-0.475 4.465 -0.475 4.465 -3 8 C-3.33 7.01 -3.66 6.02 -4 5 C-2.0625 2.3125 -2.0625 2.3125 0 0 Z " fill="#FB454F" transform="translate(462,143)"/>
</svg>
