<?xml version="1.0" encoding="UTF-8"?>
<svg version="1.1" xmlns="http://www.w3.org/2000/svg" width="1364" height="603">
<path d="M0 0 C450.12 0 900.24 0 1364 0 C1364 198.99 1364 397.98 1364 603 C913.88 603 463.76 603 0 603 C0 404.01 0 205.02 0 0 Z " fill="#001D4C" transform="translate(0,0)"/>
<path d="M0 0 C1.13606196 -0.0084139 1.13606196 -0.0084139 2.29507466 -0.01699778 C4.85284432 -0.03100361 7.40966016 -0.0163286 9.96741676 -0.00196791 C11.8195568 -0.00613767 13.67169358 -0.01206059 15.52382302 -0.01958537 C20.6478261 -0.03525272 25.77153027 -0.02579453 30.89552882 -0.01247356 C36.45695656 -0.00237415 42.01833661 -0.01534749 47.57975769 -0.02544689 C57.3382347 -0.03993374 67.09662329 -0.0394309 76.85510445 -0.02925825 C90.68776828 -0.01487746 104.52037212 -0.02069162 118.3530337 -0.03237442 C143.43876853 -0.0535465 168.52446862 -0.05496008 193.61020851 -0.04378462 C194.7258472 -0.04328785 194.7258472 -0.04328785 195.86402405 -0.04278104 C196.98143916 -0.04228346 196.98143916 -0.04228346 198.12142831 -0.04177583 C220.79636282 -0.03169199 243.47128297 -0.02907339 266.14621925 -0.03386641 C267.66333486 -0.03417632 269.18045047 -0.03448495 270.69756608 -0.03479229 C276.79388675 -0.0360341 282.89020741 -0.03730876 288.98652806 -0.03863134 C306.02935183 -0.04229977 323.07217565 -0.04458188 340.11499977 -0.04577589 C340.89115575 -0.04583047 341.66731174 -0.04588506 342.4669876 -0.04594129 C367.20685859 -0.04757894 391.94672458 -0.04306808 416.68659401 -0.03437757 C417.48926972 -0.03409658 418.29194542 -0.03381558 419.11894464 -0.03352607 C432.15472054 -0.02894602 445.19049633 -0.02406829 458.22627212 -0.01916538 C509.93098597 0.00026068 561.63565841 -0.00064096 613.34037209 -0.02008772 C626.36949599 -0.02497229 639.39861989 -0.02981642 652.42774391 -0.03437757 C653.22994279 -0.03465937 654.03214167 -0.03494116 654.8586496 -0.03523149 C679.57221311 -0.04385336 704.28577318 -0.04751387 728.99933815 -0.04577589 C729.77492761 -0.04572155 730.55051707 -0.04566722 731.34960924 -0.04561123 C748.37334751 -0.04436144 765.39708541 -0.04182712 782.42082331 -0.03813388 C788.51176615 -0.03681725 794.602709 -0.03556494 800.69365186 -0.03433103 C802.20898591 -0.03402148 803.72431996 -0.03370656 805.239654 -0.03338625 C827.90988002 -0.0286075 850.58008987 -0.03268614 873.25031387 -0.04278104 C873.994073 -0.04311222 874.73783213 -0.0434434 875.50412941 -0.04378462 C876.24652269 -0.04411535 876.98891596 -0.04444608 877.753806 -0.04478683 C902.76564321 -0.05580752 927.77743869 -0.05178615 952.78926992 -0.03066164 C967.22119248 -0.01877728 981.65303169 -0.01820191 996.0849536 -0.03324634 C1005.70984323 -0.0421763 1015.33465324 -0.03670581 1024.95953102 -0.01922726 C1030.45352867 -0.00965874 1035.94732928 -0.00656835 1041.44132113 -0.02085119 C1046.4311695 -0.03369193 1051.42064451 -0.02840106 1056.41046521 -0.00812855 C1058.21222978 -0.0040722 1060.01402467 -0.00683632 1061.81576541 -0.01695231 C1064.24908379 -0.02965373 1066.68108222 -0.01802118 1069.11433792 0 C1070.17052168 -0.01434445 1070.17052168 -0.01434445 1071.24804249 -0.02897869 C1074.62261916 0.02231102 1076.29707294 0.29813752 1078.99100861 2.40338704 C1080.77379983 4.79159277 1081.05796125 5.87891607 1081.06053352 8.82428789 C1081.07618001 10.11790696 1081.07618001 10.11790696 1081.09214258 11.43765974 C1081.07875825 12.85184989 1081.07875825 12.85184989 1081.06510353 14.29460955 C1081.07134349 15.29975886 1081.07758346 16.30490818 1081.08401251 17.34051657 C1081.10000506 20.71859854 1081.08731339 24.0959652 1081.07474709 27.47405291 C1081.0801654 29.89177164 1081.08728641 32.30948707 1081.09598732 34.72719622 C1081.11235923 40.61825638 1081.10992715 46.50912984 1081.09833676 52.40018487 C1081.08930751 57.18744868 1081.08807621 61.97465534 1081.09243202 66.76192522 C1081.09304495 67.44296723 1081.09365789 68.12400925 1081.09428939 68.8256889 C1081.09556828 70.20916185 1081.09686513 71.59263479 1081.09817976 72.97610772 C1081.10958917 85.95254907 1081.09646624 98.92887744 1081.07497829 111.90530026 C1081.05710694 123.04253221 1081.06021095 134.1795974 1081.07865334 145.31682634 C1081.10005373 158.24645118 1081.1084905 171.17597697 1081.09620428 184.10561705 C1081.09493007 185.48403405 1081.09367259 186.86245106 1081.09243202 188.24086809 C1081.09181492 188.91909642 1081.09119782 189.59732474 1081.09056202 190.29610544 C1081.08710661 195.07827461 1081.09294154 199.86038101 1081.10235023 204.64254045 C1081.11473245 211.07757818 1081.10593167 217.51237471 1081.08277321 223.94738436 C1081.07747181 226.31293637 1081.07902418 228.67851483 1081.08782387 231.04405642 C1081.09870605 234.26579428 1081.08510366 237.48651147 1081.06510353 240.70818377 C1081.07402642 241.6509772 1081.0829493 242.59377064 1081.09214258 243.56513357 C1081.08171159 244.42754628 1081.0712806 245.28995899 1081.06053352 246.17850542 C1081.05988411 246.92210786 1081.0592347 247.6657103 1081.05856562 248.43184614 C1080.3175307 251.49052068 1079.02867493 252.56952268 1076.55716896 254.50139666 C1073.93798158 254.8936842 1071.73901499 255.03908776 1069.12190062 255.00394398 C1068.36534464 255.00967748 1067.60878866 255.01541098 1066.82930674 255.02131822 C1064.274329 255.03574361 1061.72030119 255.02149234 1059.16533184 255.00755453 C1057.31519957 255.01202754 1055.46507085 255.01825306 1053.61494973 255.02607986 C1048.49651805 255.0425817 1043.37838154 255.03395829 1038.25994967 255.02146823 C1032.70454126 255.01226677 1027.14918422 255.02612625 1021.5937857 255.03710741 C1011.84585344 255.05313799 1002.09800743 255.05416464 992.35006714 255.04550982 C978.53229656 255.03327429 964.71458904 255.04121939 950.89682471 255.05498652 C923.58294949 255.08217371 896.26911496 255.0835769 868.95523031 255.0750285 C865.17916821 255.07385556 861.40310609 255.07272242 857.62704396 255.07163024 C856.87706449 255.0714131 856.12708502 255.07119596 855.3543789 255.07097224 C838.7457364 255.06634279 822.13709848 255.06976128 805.5284565 255.07489675 C803.25648207 255.07559909 800.98450763 255.07628408 798.7125332 255.07696389 C792.62241071 255.07878925 786.53228824 255.08063482 780.44216577 255.08251666 C763.41659375 255.08774166 746.39102156 255.09155366 729.36544895 255.09422255 C728.20239011 255.09440487 728.20239011 255.09440487 727.01583512 255.09459087 C702.30079075 255.09835573 677.58575113 255.09576215 652.87070751 255.08898306 C652.06883544 255.0887645 651.26696337 255.08854595 650.44079215 255.08832077 C641.49869213 255.08587549 632.55659215 255.08330559 623.61449219 255.08068538 C622.4034394 255.08033057 622.4034394 255.08033057 621.1679209 255.0799686 C617.90284934 255.07901122 614.63777779 255.07805367 611.37270624 255.07708844 C559.72250344 255.06183923 508.07235609 255.0698337 456.42215919 255.09832048 C443.40729754 255.10548481 430.39243586 255.11258731 417.37757397 255.11930227 C416.57624827 255.11971649 415.77492257 255.12013071 414.94931427 255.12055748 C390.26143643 255.13323679 365.57356322 255.13974929 340.88568211 255.139709 C340.11086211 255.13970819 339.33604212 255.13970739 338.53774274 255.13970657 C321.53061763 255.13962238 304.52349294 255.13798294 287.51636811 255.13492817 C281.43130462 255.13384422 275.34624112 255.13285294 269.26117761 255.13189731 C267.74731079 255.13165723 266.23344397 255.13141084 264.71957715 255.1311581 C240.57427111 255.12716064 216.42899649 255.13716018 192.2836967 255.15386235 C167.2973556 255.17100953 142.31107672 255.1695895 117.32473917 255.14695633 C102.90856106 255.1342834 88.49251568 255.13578168 74.07634379 255.1568372 C64.46067032 255.16950502 54.84511841 255.16416778 45.22945827 255.14385239 C39.74151268 255.13277058 34.2538768 255.12977126 28.76594514 255.14852769 C23.78038247 255.16540488 18.79539957 255.15956932 13.80987329 255.13506184 C12.0108073 255.13029104 10.21169516 255.13402508 8.4126695 255.14698086 C5.9803282 255.16329318 3.55003714 255.14909299 1.11778647 255.12699181 C0.41683209 255.13906365 -0.28412229 255.1511355 -1.0063177 255.16357316 C-4.84636684 255.09144115 -6.36215874 254.56746465 -9.37626994 252.09900552 C-11.51903151 249.40561482 -12.06802033 248.42798044 -12.06924343 245.07107496 C-12.08166547 244.2101546 -12.09408751 243.34923424 -12.10688597 242.46222538 C-12.09505024 241.52623573 -12.08321451 240.59024608 -12.07102013 239.62589312 C-12.07811451 238.62397293 -12.0852089 237.62205274 -12.09251827 236.58977133 C-12.11013729 233.22846271 -12.09197274 229.86830441 -12.07393456 226.50701189 C-12.07907181 224.09899668 -12.08635162 221.69098522 -12.09561729 219.28298235 C-12.11223628 213.41941755 -12.10548126 207.55615693 -12.08752907 201.69262176 C-12.07350377 196.92778152 -12.06961009 192.16303176 -12.07297134 187.39817286 C-12.07344879 186.72004169 -12.07392623 186.04191053 -12.07441814 185.34322994 C-12.07544447 183.96563551 -12.07649982 182.58804111 -12.0775839 181.21044672 C-12.08615104 169.02977544 -12.06947491 156.8492651 -12.03975487 144.66863298 C-12.010911 132.84694965 -12.00383686 121.02549811 -12.01924706 109.20378923 C-12.03600355 96.33164809 -12.0400496 83.45961698 -12.0225367 70.58747298 C-12.02069229 69.21525023 -12.01885757 67.84302747 -12.01703262 66.47080469 C-12.01612053 65.79563546 -12.01520844 65.12046623 -12.01426871 64.42483733 C-12.00866035 59.66470325 -12.01197321 54.90462285 -12.01857758 50.14449167 C-12.02711088 43.73979555 -12.01416969 37.33535874 -11.98672867 30.93071413 C-11.97982614 28.57645395 -11.97976672 26.22216259 -11.9869442 23.86790323 C-11.9955951 20.66153042 -11.97975606 17.45620178 -11.95749474 14.24991655 C-11.9657355 13.31169619 -11.97397627 12.37347582 -11.98246676 11.40682453 C-11.97141907 10.54851191 -11.96037138 9.6901993 -11.94898891 8.80587721 C-11.94779743 8.06585461 -11.94660595 7.325832 -11.94537836 6.56338447 C-10.4316921 0.35262088 -5.52347002 -0.07501645 0 0 Z " fill="#2193EE" transform="translate(146.4428310394287,98.49860334396362)"/>
<path d="M0 0 C0.91971391 -0.00461538 1.83942783 -0.00923075 2.78701186 -0.01398599 C5.89183689 -0.02463642 8.99584454 -0.00657757 12.1006279 0.01117325 C14.3397239 0.00943013 16.57881911 0.00593001 18.81790996 0.00081658 C24.98862926 -0.00815815 31.15907262 0.00791467 37.32975674 0.02792883 C43.29520591 0.04338601 49.26063573 0.04008994 55.22609762 0.03720146 C67.43153706 0.03194247 79.63688997 0.0453243 91.84230423 0.06927109 C103.92999067 0.09292619 116.01764108 0.10833224 128.10535049 0.11268234 C129.23203799 0.11309478 129.23203799 0.11309478 130.38148685 0.11351555 C134.19595532 0.11486885 138.01042383 0.1160744 141.82489237 0.11722305 C168.85406427 0.12562829 195.88318908 0.15258772 222.91233444 0.1904335 C249.17339966 0.22716143 275.43445189 0.25543306 301.69553757 0.27246475 C303.34646146 0.27354732 304.99738534 0.27463014 306.64830923 0.27571321 C320.06241086 0.28446809 333.47651285 0.29263848 346.89061493 0.30066714 C408.94151918 0.33822764 470.99230056 0.41850639 533.04319382 0.49219131 C533.04319382 84.31219131 533.04319382 168.13219131 533.04319382 254.49219131 C397.32160351 254.69408453 397.32160351 254.69408453 345.38862789 254.73301613 C331.80815109 254.74322247 318.2276745 254.75366223 304.64719845 254.76482128 C303.00447759 254.76617048 301.36175673 254.76751234 299.71903586 254.76884676 C273.51781858 254.79019156 247.31665515 254.82771832 221.11547043 254.87367742 C194.19316337 254.9208158 167.27088609 254.95161281 140.34853846 254.96176627 C136.54837414 254.9632071 132.74820992 254.96483528 128.94804573 254.96657753 C128.20009844 254.96691464 127.45215114 254.96725176 126.68153878 254.96759909 C114.62812636 254.97351409 102.57480591 254.99672156 90.52143105 255.02635148 C78.41188293 255.05575206 66.30242623 255.06704019 54.19284365 255.0596982 C47.6282486 255.05622351 41.06387148 255.06153311 34.49931908 255.08821869 C28.49552422 255.1124475 22.49218333 255.11384626 16.48836812 255.09668579 C14.31062633 255.0945631 12.13285686 255.10099296 9.95517001 255.11660723 C7.00536058 255.13653644 4.05721182 255.12594474 1.10743046 255.10743046 C0.25261464 255.12056553 -0.60220117 255.13370059 -1.4829205 255.14723369 C-5.735241 255.08649881 -7.47343466 254.85328843 -10.9841702 252.23063397 C-12.97306608 249.46961908 -13.58200845 248.38315322 -13.58321857 245.06186962 C-13.59564061 244.20094926 -13.60806265 243.3400289 -13.62086111 242.45302004 C-13.60902538 241.51703039 -13.59718966 240.58104074 -13.58499527 239.61668777 C-13.59208966 238.61476759 -13.59918404 237.6128474 -13.60649341 236.58056599 C-13.62411244 233.21925737 -13.60594788 229.85909907 -13.5879097 226.49780655 C-13.59304696 224.08979134 -13.60032676 221.68177988 -13.60959244 219.27377701 C-13.62621142 213.41021221 -13.61945641 207.54695159 -13.60150421 201.68341642 C-13.58747892 196.91857618 -13.58358524 192.15382641 -13.58694649 187.38896751 C-13.58742393 186.71083635 -13.58790137 186.03270519 -13.58839328 185.3340246 C-13.58941961 183.95643017 -13.59047497 182.57883576 -13.59155905 181.20124138 C-13.60012618 169.0205701 -13.58345005 156.84005976 -13.55373001 144.65942764 C-13.52488615 132.83774431 -13.517812 121.01629277 -13.5332222 109.19458389 C-13.54997869 96.32244274 -13.55402474 83.45041164 -13.53651184 70.57826763 C-13.53466744 69.20604489 -13.53283271 67.83382212 -13.53100777 66.46159935 C-13.53009568 65.78643012 -13.52918359 65.11126089 -13.52824386 64.41563199 C-13.5226355 59.65549791 -13.52594836 54.89541751 -13.53255272 50.13528633 C-13.54108602 43.73059021 -13.52814483 37.3261534 -13.50070381 30.92150879 C-13.49380128 28.56724861 -13.49374187 26.21295725 -13.50091934 23.85869789 C-13.50957024 20.65232508 -13.49373121 17.44699644 -13.47146988 14.24071121 C-13.47971065 13.30249084 -13.48795141 12.36427048 -13.4964419 11.39761919 C-13.48539421 10.53930657 -13.47434652 9.68099396 -13.46296406 8.79667187 C-13.46177258 8.05664926 -13.46058109 7.31662666 -13.45935351 6.55417913 C-11.74218265 -0.49149639 -5.98644846 -0.07322756 0 0 Z " fill="#FCE93A" transform="translate(147.95680618286133,98.50780868530273)"/>
<path d="M0 0 C0.73406337 0.00496818 1.46812675 0.00993636 2.22443447 0.01505509 C3.39495701 0.01114416 3.39495701 0.01114416 4.58912647 0.00715423 C7.23171327 0.00080487 9.87406686 0.00884767 12.51664695 0.0167059 C14.41919424 0.01511923 16.32174097 0.01265706 18.22428611 0.00938949 C23.4739895 0.00294725 28.72361634 0.00906624 33.97331473 0.01715377 C39.6263875 0.02370892 45.2794514 0.01878709 50.93252525 0.01527157 C62.01516169 0.01021966 73.09776838 0.01588354 84.18040112 0.02512188 C97.07242495 0.03548395 109.96444227 0.03543627 122.85646947 0.0349493 C146.5456742 0.03443305 170.234861 0.04448263 193.92406 0.05945174 C215.56787522 0.07307794 237.2116794 0.07931298 258.85549888 0.07864133 C260.24531111 0.07860091 261.63512335 0.07856055 263.02493558 0.07852025 C263.71201952 0.0784999 264.39910347 0.07847954 265.10700813 0.07845858 C268.56540836 0.07835779 272.02380859 0.0782672 275.48220882 0.07818833 C276.16443918 0.07817162 276.84666954 0.0781549 277.54957354 0.07813768 C299.48897794 0.07769459 321.42838011 0.08481158 343.367783 0.09255118 C352.3657236 0.09557382 361.36366325 0.09663148 370.3616043 0.09708348 C381.31818139 0.09776403 392.27474969 0.10220647 403.23132304 0.11141629 C408.82727523 0.11604876 414.42321613 0.11907447 420.01917037 0.11782208 C425.13310504 0.11673302 430.24701468 0.12020853 435.36094411 0.12747061 C437.21956997 0.12929503 439.07819839 0.12940357 440.93682436 0.12770332 C443.44606503 0.12566059 445.95522189 0.12966214 448.46445522 0.13530961 C449.20085976 0.13325429 449.9372643 0.13119897 450.69598413 0.12908137 C455.66736938 0.14978917 455.66736938 0.14978917 456.78152427 1.26394406 C456.89501588 4.12488623 456.94570919 6.96077862 456.94949302 9.82253781 C456.95282142 10.68202527 456.95614982 11.54151272 456.95957908 12.42704526 C456.96465197 14.24873067 456.96698729 16.07042542 456.96682701 17.89211789 C456.9690123 20.68613696 456.98716071 23.47976063 457.00613365 26.27370968 C457.00906767 28.03998437 457.01105241 29.80626094 457.01199302 31.57253781 C457.01917854 32.41215558 457.02636405 33.25177334 457.03376731 34.11683407 C457.01034608 40.03512225 457.01034608 40.03512225 454.78152427 42.26394406 C452.26420052 42.46005853 449.85704204 42.52987788 447.33861408 42.51283303 C446.16809154 42.51674396 446.16809154 42.51674396 444.97392207 42.52073389 C442.33133528 42.52708325 439.68898168 42.51904045 437.04640159 42.51118222 C435.1438543 42.51276889 433.24130758 42.51523106 431.33876243 42.51849863 C426.08905904 42.52494087 420.8394322 42.51882188 415.58973381 42.51073435 C409.93666104 42.50417919 404.28359714 42.50910103 398.63052329 42.51261654 C387.54788686 42.51766846 376.46528016 42.51200458 365.38264742 42.50276624 C352.49062359 42.49240417 339.59860627 42.49245185 326.70657907 42.49293882 C303.01737435 42.49345507 279.32818754 42.48340549 255.63898854 42.46843638 C233.99517332 42.45481018 212.35136914 42.44857514 190.70754966 42.44924679 C189.31773743 42.44928721 187.92792519 42.44932756 186.53811296 42.44936787 C185.50748705 42.4493984 185.50748705 42.4493984 184.45604041 42.44942954 C180.99764018 42.44953033 177.53923995 42.44962092 174.08083972 42.44969979 C173.39860936 42.4497165 172.71637901 42.44973322 172.013475 42.44975044 C150.0740706 42.45019353 128.13466843 42.44307654 106.19526554 42.43533694 C97.19732494 42.4323143 88.19938529 42.43125664 79.20144424 42.43080464 C68.24486715 42.43012409 57.28829885 42.42568165 46.3317255 42.41647183 C40.73577331 42.41183936 35.13983241 42.40881364 29.54387817 42.41006604 C24.4299435 42.4111551 19.31603387 42.40767959 14.20210443 42.40041751 C12.34347857 42.39859309 10.48485015 42.39848454 8.62622418 42.4001848 C6.11698351 42.40222753 3.60782665 42.39822597 1.09859332 42.39257851 C0.36218878 42.39463383 -0.37421575 42.39668915 -1.13293558 42.39880675 C-6.10432084 42.37809895 -6.10432084 42.37809895 -7.21847573 41.26394406 C-7.33196733 38.40300189 -7.38266065 35.5671095 -7.38644448 32.70535031 C-7.38977288 31.84586285 -7.39310128 30.9863754 -7.39653054 30.10084286 C-7.40160343 28.27915745 -7.40393875 26.4574627 -7.40377846 24.63577023 C-7.40596376 21.84175116 -7.42411217 19.04812749 -7.4430851 16.25417843 C-7.44601913 14.48790375 -7.44800387 12.72162718 -7.44894448 10.95535031 C-7.45613 10.11573254 -7.46331551 9.27611477 -7.47071877 8.41105404 C-7.44461033 1.81373755 -6.79233129 0.04852176 0 0 Z " fill="#FEFEFE" transform="translate(729.2184757292271,236.73605594038963)"/>
<path d="M0 0 C0.73406337 0.00496818 1.46812675 0.00993636 2.22443447 0.01505509 C3.39495701 0.01114416 3.39495701 0.01114416 4.58912647 0.00715423 C7.23171327 0.00080487 9.87406686 0.00884767 12.51664695 0.0167059 C14.41919424 0.01511923 16.32174097 0.01265706 18.22428611 0.00938949 C23.4739895 0.00294725 28.72361634 0.00906624 33.97331473 0.01715377 C39.6263875 0.02370892 45.2794514 0.01878709 50.93252525 0.01527157 C62.01516169 0.01021966 73.09776838 0.01588354 84.18040112 0.02512188 C97.07242495 0.03548395 109.96444227 0.03543627 122.85646947 0.0349493 C146.5456742 0.03443305 170.234861 0.04448263 193.92406 0.05945174 C215.56787522 0.07307794 237.2116794 0.07931298 258.85549888 0.07864133 C260.24531111 0.07860091 261.63512335 0.07856055 263.02493558 0.07852025 C263.71201952 0.0784999 264.39910347 0.07847954 265.10700813 0.07845858 C268.56540836 0.07835779 272.02380859 0.0782672 275.48220882 0.07818833 C276.16443918 0.07817162 276.84666954 0.0781549 277.54957354 0.07813768 C299.48897794 0.07769459 321.42838011 0.08481158 343.367783 0.09255118 C352.3657236 0.09557382 361.36366325 0.09663148 370.3616043 0.09708348 C381.31818139 0.09776403 392.27474969 0.10220647 403.23132304 0.11141629 C408.82727523 0.11604876 414.42321613 0.11907447 420.01917037 0.11782208 C425.13310504 0.11673302 430.24701468 0.12020853 435.36094411 0.12747061 C437.21956997 0.12929503 439.07819839 0.12940357 440.93682436 0.12770332 C443.44606503 0.12566059 445.95522189 0.12966214 448.46445522 0.13530961 C449.20085976 0.13325429 449.9372643 0.13119897 450.69598413 0.12908137 C455.66736938 0.14978917 455.66736938 0.14978917 456.78152427 1.26394406 C456.89501588 4.12488623 456.94570919 6.96077862 456.94949302 9.82253781 C456.95282142 10.68202527 456.95614982 11.54151272 456.95957908 12.42704526 C456.96465197 14.24873067 456.96698729 16.07042542 456.96682701 17.89211789 C456.9690123 20.68613696 456.98716071 23.47976063 457.00613365 26.27370968 C457.00906767 28.03998437 457.01105241 29.80626094 457.01199302 31.57253781 C457.01917854 32.41215558 457.02636405 33.25177334 457.03376731 34.11683407 C457.01034608 40.03512225 457.01034608 40.03512225 454.78152427 42.26394406 C452.26420052 42.46005853 449.85704204 42.52987788 447.33861408 42.51283303 C446.16809154 42.51674396 446.16809154 42.51674396 444.97392207 42.52073389 C442.33133528 42.52708325 439.68898168 42.51904045 437.04640159 42.51118222 C435.1438543 42.51276889 433.24130758 42.51523106 431.33876243 42.51849863 C426.08905904 42.52494087 420.8394322 42.51882188 415.58973381 42.51073435 C409.93666104 42.50417919 404.28359714 42.50910103 398.63052329 42.51261654 C387.54788686 42.51766846 376.46528016 42.51200458 365.38264742 42.50276624 C352.49062359 42.49240417 339.59860627 42.49245185 326.70657907 42.49293882 C303.01737435 42.49345507 279.32818754 42.48340549 255.63898854 42.46843638 C233.99517332 42.45481018 212.35136914 42.44857514 190.70754966 42.44924679 C189.31773743 42.44928721 187.92792519 42.44932756 186.53811296 42.44936787 C185.50748705 42.4493984 185.50748705 42.4493984 184.45604041 42.44942954 C180.99764018 42.44953033 177.53923995 42.44962092 174.08083972 42.44969979 C173.39860936 42.4497165 172.71637901 42.44973322 172.013475 42.44975044 C150.0740706 42.45019353 128.13466843 42.44307654 106.19526554 42.43533694 C97.19732494 42.4323143 88.19938529 42.43125664 79.20144424 42.43080464 C68.24486715 42.43012409 57.28829885 42.42568165 46.3317255 42.41647183 C40.73577331 42.41183936 35.13983241 42.40881364 29.54387817 42.41006604 C24.4299435 42.4111551 19.31603387 42.40767959 14.20210443 42.40041751 C12.34347857 42.39859309 10.48485015 42.39848454 8.62622418 42.4001848 C6.11698351 42.40222753 3.60782665 42.39822597 1.09859332 42.39257851 C0.36218878 42.39463383 -0.37421575 42.39668915 -1.13293558 42.39880675 C-6.10432084 42.37809895 -6.10432084 42.37809895 -7.21847573 41.26394406 C-7.33196733 38.40300189 -7.38266065 35.5671095 -7.38644448 32.70535031 C-7.38977288 31.84586285 -7.39310128 30.9863754 -7.39653054 30.10084286 C-7.40160343 28.27915745 -7.40393875 26.4574627 -7.40377846 24.63577023 C-7.40596376 21.84175116 -7.42411217 19.04812749 -7.4430851 16.25417843 C-7.44601913 14.48790375 -7.44800387 12.72162718 -7.44894448 10.95535031 C-7.45613 10.11573254 -7.46331551 9.27611477 -7.47071877 8.41105404 C-7.44461033 1.81373755 -6.79233129 0.04852176 0 0 Z " fill="#FEFEFE" transform="translate(729.2184757292271,172.73605594038963)"/>
<path d="M0 0 C3.48665715 2.37726624 4.96049365 4.02067864 6.75 7.875 C7.43369178 13.69492628 7.17832443 18.50354637 4.75 23.875 C5.74 24.865 6.73 25.855 7.75 26.875 C7.09 27.865 6.43 28.855 5.75 29.875 C5.04617188 29.54242188 4.34234375 29.20984375 3.6171875 28.8671875 C0.43053664 27.76445001 -1.77693716 27.79998586 -5.125 28 C-10.83491946 28.09844689 -13.75132661 27.39570092 -18.25 23.875 C-20.51441815 20.48218493 -20.54856503 17.4554155 -20.5625 13.4375 C-20.57925781 12.32503906 -20.59601563 11.21257812 -20.61328125 10.06640625 C-20.21125278 6.53460775 -19.36549126 4.70233904 -17.25 1.875 C-11.57468558 -1.95253763 -6.32323434 -2.18881189 0 0 Z " fill="#090903" transform="translate(432.25,147.125)"/>
<path d="M0 0 C2.866875 -0.0825 5.73375 -0.165 8.6875 -0.25 C9.58170654 -0.28641602 10.47591309 -0.32283203 11.3972168 -0.36035156 C15.39313554 -0.4159189 17.53039535 -0.27659173 21.05078125 1.796875 C23 4 23 4 23.5 7.5 C22.99603747 11.02773771 22.42668267 12.47220555 20 15 C21.32 15.66 22.64 16.32 24 17 C24.48828125 22.859375 24.48828125 22.859375 24 25 C21.8461507 27.54224836 20.15225575 28.83526374 16.80737305 29.31347656 C14.25214263 29.39387613 11.74264443 29.34831662 9.1875 29.25 C6.155625 29.1675 3.12375 29.085 0 29 C0 19.43 0 9.86 0 0 Z " fill="#0C0902" transform="translate(510,146)"/>
<path d="M0 0 C1.98 0 3.96 0 6 0 C6.50354867 2.43681587 7.00296756 4.87435439 7.5 7.3125 C7.64308594 8.00279297 7.78617188 8.69308594 7.93359375 9.40429688 C8.52625044 12.32524773 9 15.01108122 9 18 C9.66 18 10.32 18 11 18 C11.103125 16.700625 11.20625 15.40125 11.3125 14.0625 C11.848308 9.09839647 13.24930225 4.65751666 15 0 C17.31 0 19.62 0 22 0 C22.46246708 1.33190519 22.91969155 2.6656307 23.375 4 C23.63023437 4.7425 23.88546875 5.485 24.1484375 6.25 C25.24505078 9.79135665 26.10085768 13.4034307 27 17 C28.32 11.39 29.64 5.78 31 0 C32.98 0 34.96 0 37 0 C35.36817921 9.74798208 33.18362684 19.36448155 31 29 C28.69 29 26.38 29 24 29 C21.525 19.595 21.525 19.595 19 10 C17.06344788 13.87310423 15.93657889 17.59018346 14.875 21.75 C14.69324219 22.44738281 14.51148438 23.14476562 14.32421875 23.86328125 C13.87883548 25.57449065 13.43887484 27.28710983 13 29 C10.69 29 8.38 29 6 29 C5.18276225 25.48024931 4.37207078 21.95902137 3.5625 18.4375 C3.33240234 17.44685547 3.10230469 16.45621094 2.86523438 15.43554688 C1.6881531 10.30074303 0.63818953 5.23021994 0 0 Z " fill="#0C0A04" transform="translate(175,146)"/>
<path d="M0 0 C1.65 0 3.3 0 5 0 C5 0.66 5 1.32 5 2 C5.515625 1.649375 6.03125 1.29875 6.5625 0.9375 C9.95033509 -0.3655135 12.4768781 0.35943238 16 1 C18.9254644 1.2236068 18.9254644 1.2236068 21 0 C24.41264635 -0.37093982 26.29531386 -0.47610515 29.1796875 1.47265625 C31.83915544 5.1650935 31.44085758 8.32357229 31.25 12.75 C31.23195313 13.54277344 31.21390625 14.33554688 31.1953125 15.15234375 C31.14833082 17.10208348 31.07659044 19.05119878 31 21 C29.02 21 27.04 21 25 21 C24.67 15.72 24.34 10.44 24 5 C22.68 5 21.36 5 20 5 C18.5192152 7.9615696 18.64685963 10.83506295 18.4375 14.125 C18.35371094 15.40632812 18.26992188 16.68765625 18.18359375 18.0078125 C18.12300781 18.99523437 18.06242187 19.98265625 18 21 C16.35 21 14.7 21 13 21 C12.67 15.72 12.34 10.44 12 5 C10.35 5.33 8.7 5.66 7 6 C6.67 10.95 6.34 15.9 6 21 C4.02 21 2.04 21 0 21 C0 14.07 0 7.14 0 0 Z " fill="#0D0E06" transform="translate(294,154)"/>
<path d="M0 0 C1.65 0 3.3 0 5 0 C5 0.66 5 1.32 5 2 C5.99 1.34 6.98 0.68 8 0 C11.96047946 -0.33706208 14.59677126 -0.09429461 18 2 C18.99 1.34 19.98 0.68 21 0 C27.45283019 0.45283019 27.45283019 0.45283019 30 3 C30.22705078 4.87939453 30.22705078 4.87939453 30.1953125 7.1328125 C30.18886719 7.93847656 30.18242188 8.74414062 30.17578125 9.57421875 C30.15902344 10.41597656 30.14226563 11.25773438 30.125 12.125 C30.11597656 12.97449219 30.10695313 13.82398438 30.09765625 14.69921875 C30.07405647 16.79959884 30.03818483 18.89983444 30 21 C28.35 21 26.7 21 25 21 C24.67 15.72 24.34 10.44 24 5 C22.35 5.33 20.7 5.66 19 6 C18.67 10.95 18.34 15.9 18 21 C16.02 21 14.04 21 12 21 C11.67 15.72 11.34 10.44 11 5 C9.35 5 7.7 5 6 5 C5.67 10.28 5.34 15.56 5 21 C3.35 21 1.7 21 0 21 C0 14.07 0 7.14 0 0 Z " fill="#0E0702" transform="translate(515,199)"/>
<path d="M0 0 C1.65 0 3.3 0 5 0 C5 0.66 5 1.32 5 2 C5.99 1.34 6.98 0.68 8 0 C11.96047946 -0.33706208 14.59677126 -0.09429461 18 2 C18.99 1.34 19.98 0.68 21 0 C27.45283019 0.45283019 27.45283019 0.45283019 30 3 C30.22705078 4.87939453 30.22705078 4.87939453 30.1953125 7.1328125 C30.18886719 7.93847656 30.18242187 8.74414062 30.17578125 9.57421875 C30.15902344 10.41597656 30.14226562 11.25773438 30.125 12.125 C30.11597656 12.97449219 30.10695313 13.82398438 30.09765625 14.69921875 C30.07405647 16.79959884 30.03818483 18.89983444 30 21 C28.35 21 26.7 21 25 21 C24.67 15.72 24.34 10.44 24 5 C22.35 5.33 20.7 5.66 19 6 C18.67 10.95 18.34 15.9 18 21 C16.02 21 14.04 21 12 21 C11.67 15.72 11.34 10.44 11 5 C9.35 5 7.7 5 6 5 C5.67 10.28 5.34 15.56 5 21 C3.35 21 1.7 21 0 21 C0 14.07 0 7.14 0 0 Z " fill="#0E0702" transform="translate(266,199)"/>
<path d="M0 0 C3.63467079 1.62400184 4.77408696 2.66113044 7 6 C7 6.99 7 7.98 7 9 C4.125 9.1875 4.125 9.1875 1 9 C0.34 8.01 -0.32 7.02 -1 6 C-2.97747122 5.63702064 -2.97747122 5.63702064 -5.125 5.8125 C-6.40375 5.874375 -7.6825 5.93625 -9 6 C-8.67 6.99 -8.34 7.98 -8 9 C-5.34166783 10.0708655 -5.34166783 10.0708655 -2.1875 10.875 C1.61570514 12.06434953 3.73948089 12.76908533 6.75 15.4375 C8.19329964 18.39626426 8.72631255 19.77194423 8 23 C4.95005966 26.62695608 2.73096809 28.63587092 -2.05078125 29.2734375 C-6.41272782 29.46931075 -9.13735665 29.38690653 -12.5625 26.5 C-13.366875 25.675 -14.17125 24.85 -15 24 C-14.67 22.35 -14.34 20.7 -14 19 C-12.68 19 -11.36 19 -10 19 C-9.566875 19.66 -9.13375 20.32 -8.6875 21 C-7.8521875 21.99 -7.8521875 21.99 -7 23 C-3.37436186 23.33380814 -3.37436186 23.33380814 0 23 C0.33 21.68 0.66 20.36 1 19 C-0.24716797 18.61908203 -0.24716797 18.61908203 -1.51953125 18.23046875 C-2.60621094 17.88628906 -3.69289063 17.54210937 -4.8125 17.1875 C-6.43091797 16.68283203 -6.43091797 16.68283203 -8.08203125 16.16796875 C-10.86191293 15.0552718 -12.28345658 14.4137061 -14 12 C-14.3930429 8.90478713 -14.61295044 6.95763464 -14 4 C-10.29116029 -0.78559963 -5.62548731 -0.85760605 0 0 Z " fill="#0A0A03" transform="translate(423,191)"/>
<path d="M0 0 C3.62760073 1.64890942 6.08652985 3.47518657 8 7 C8.60225269 10.95766056 8.16187311 12.69937852 6.25 16.25 C3.08484 20.11852888 1.54156269 20.8001678 -3.375 21.4375 C-7.0368087 20.99555757 -9.12351519 20.2498926 -11.82421875 17.6875 C-14.12771964 14.38147878 -14.55417427 10.94156448 -14 7 C-10.68582316 0.77297243 -6.75215792 -0.45777342 0 0 Z " fill="#0F0E04" transform="translate(239,199)"/>
<path d="M0 0 C3.5386994 1.65139305 4.81070153 2.71605229 7 6 C7.54531842 9.06526351 7.54325893 11.93408329 7 15 C4.81840855 17.75569447 3.12822506 19.43588747 0 21 C-4.99691647 21.37712577 -7.99067725 21.09290612 -12 18 C-14.48250285 14.27624573 -14.40992301 11.30855244 -14 7 C-13.12230435 4.04775098 -12.2274606 3.18196848 -9.8125 1.25 C-6.25921457 -0.32923797 -3.85687108 -0.41323619 0 0 Z " fill="#0D0B03" transform="translate(283,154)"/>
<path d="M0 0 C2.82275936 1.25455972 4.46288541 2.28384722 6.3125 4.75 C7.63189267 9.06801237 7.58520303 12.68329318 5.75 16.8125 C3.8417835 19.19777062 2.90651969 20.11189676 0 21 C-4.34151954 21.48239106 -6.49499583 21.27120594 -10.375 19.1875 C-13.87904894 16.26745921 -13.93863905 14.6340632 -14.375 10.125 C-14.34859492 6.54050995 -14.04797071 6.05933219 -11.625 3.0625 C-7.531976 -0.15344743 -5.22213247 -0.35404288 0 0 Z " fill="#080803" transform="translate(390,154)"/>
<path d="M0 0 C4.84231667 0.32282111 7.04308752 1.77067585 10.625 4.875 C12.45107222 8.73004135 12.02815709 12.23701517 10.75 16.25 C8.94722587 18.86673569 7.64086123 19.59043151 4.75 21.25 C0.7796222 21.80724601 -1.43265383 21.63142821 -5.0625 19.9375 C-7.58418469 17.99220038 -9.05226082 16.36150231 -9.62109375 13.1640625 C-9.75162 8.6647459 -9.7577538 6.87492776 -6.8125 3.25 C-5.966875 2.59 -5.12125 1.93 -4.25 1.25 C-3.25 0.25 -3.25 0.25 0 0 Z " fill="#0B0803" transform="translate(357.25,198.75)"/>
<path d="M0 0 C3.34588123 0.72310254 4.83038067 1.92708577 7.1328125 4.4609375 C7.87582187 7.3745111 7.92295152 10.2145656 7.9453125 13.2109375 C7.97044922 14.00371094 7.99558594 14.79648438 8.02148438 15.61328125 C8.0801798 17.56196945 8.1094023 19.51150609 8.1328125 21.4609375 C6.1528125 21.4609375 4.1728125 21.4609375 2.1328125 21.4609375 C2.1328125 20.8009375 2.1328125 20.1409375 2.1328125 19.4609375 C1.5965625 19.7909375 1.0603125 20.1209375 0.5078125 20.4609375 C-2.53912672 21.74385928 -4.58751451 21.87089662 -7.8671875 21.4609375 C-10.3046875 19.7734375 -10.3046875 19.7734375 -11.8671875 17.4609375 C-11.9296875 14.8984375 -11.9296875 14.8984375 -10.8671875 12.4609375 C-7.16564005 9.41260431 -3.5599683 8.92101405 1.1328125 8.4609375 C0.8028125 7.4709375 0.4728125 6.4809375 0.1328125 5.4609375 C-1.5171875 5.1309375 -3.1671875 4.8009375 -4.8671875 4.4609375 C-5.1971875 5.4509375 -5.5271875 6.4409375 -5.8671875 7.4609375 C-7.5171875 7.1309375 -9.1671875 6.8009375 -10.8671875 6.4609375 C-8.5269557 1.06040258 -5.76821291 0.24882487 0 0 Z " fill="#0F0E04" transform="translate(311.8671875,198.5390625)"/>
<path d="M0 0 C3.38031589 1.18767855 3.93216817 1.89825225 6 5 C6.07905064 7.33199388 6.08798769 9.66832622 6 12 C1.71 12 -2.58 12 -7 12 C-6.34 13.32 -5.68 14.64 -5 16 C-3.741875 15.79375 -2.48375 15.5875 -1.1875 15.375 C2.4014758 14.78664331 2.75073878 14.83382585 6 17 C3.15695013 19.84304987 0.99733936 21.32780773 -3 21.5625 C-6.46652584 21.39867553 -7.0433246 20.9649716 -9.9375 18.625 C-13.15344743 14.531976 -13.35404288 12.22213247 -13 7 C-10.05154874 0.68189015 -6.79901603 -0.47712393 0 0 Z " fill="#0C0802" transform="translate(226,154)"/>
<path d="M0 0 C2.84492497 1.29314772 4.51810592 2.31157989 6.3125 4.875 C7 7 7 7 7 12 C2.38 12 -2.24 12 -7 12 C-6.34 13.32 -5.68 14.64 -5 16 C-2.43851555 16.07115235 -0.28787045 16.0822487 2.1875 15.375 C2.785625 15.25125 3.38375 15.1275 4 15 C4.66 15.66 5.32 16.32 6 17 C3.15695013 19.84304987 0.99733936 21.32780773 -3 21.5625 C-6.1184431 21.36169116 -7.19699278 20.88098353 -10 19.1875 C-12.90858446 14.55194352 -12.9125754 10.33568857 -12 5 C-8.686905 0.361667 -5.55592162 -0.43575856 0 0 Z " fill="#090803" transform="translate(550,154)"/>
<path d="M0 0 C2.5625 2.1875 2.5625 2.1875 4 5 C4 6.98 4 8.96 4 11 C-0.62 11 -5.24 11 -10 11 C-9.67 12.32 -9.34 13.64 -9 15 C-5.65747276 15.07427838 -3.1964086 15.06546953 0 14 C0.99 14.33 1.98 14.66 3 15 C2.1875 16.9375 2.1875 16.9375 1 19 C-2.60572704 20.20190901 -5.2102435 20.32670315 -9 20 C-11.75329021 18.20437595 -13.52627461 16.94745078 -15 14 C-15.55512815 9.36786507 -15.6364242 6.01827873 -13.125 2 C-9.02596228 -1.85791785 -5.25572152 -1.35360501 0 0 Z " fill="#080703" transform="translate(507,200)"/>
<path d="M0 0 C2.5625 2.1875 2.5625 2.1875 4 5 C4 6.98 4 8.96 4 11 C-0.62 11 -5.24 11 -10 11 C-9.67 12.32 -9.34 13.64 -9 15 C-5.65747276 15.07427838 -3.1964086 15.06546953 0 14 C0.99 14.33 1.98 14.66 3 15 C2.1875 16.9375 2.1875 16.9375 1 19 C-2.60572704 20.20190901 -5.2102435 20.32670315 -9 20 C-11.75329021 18.20437595 -13.52627461 16.94745078 -15 14 C-15.55512815 9.36786507 -15.6364242 6.01827873 -13.125 2 C-9.02596228 -1.85791785 -5.25572152 -1.35360501 0 0 Z " fill="#080703" transform="translate(575,155)"/>
<path d="M0 0 C2.5625 2.1875 2.5625 2.1875 4 5 C4 6.98 4 8.96 4 11 C-0.62 11 -5.24 11 -10 11 C-9.67 12.32 -9.34 13.64 -9 15 C-5.65747276 15.07427838 -3.1964086 15.06546953 0 14 C0.99 14.33 1.98 14.66 3 15 C2.1875 16.9375 2.1875 16.9375 1 19 C-2.60572704 20.20190901 -5.2102435 20.32670315 -9 20 C-11.75329021 18.20437595 -13.52627461 16.94745078 -15 14 C-15.55512815 9.36786507 -15.6364242 6.01827873 -13.125 2 C-9.02596228 -1.85791785 -5.25572152 -1.35360501 0 0 Z " fill="#080703" transform="translate(344,155)"/>
<path d="M0 0 C1.65 0 3.3 0 5 0 C5.64757625 1.43671568 6.29299453 2.87440416 6.9375 4.3125 C7.29714844 5.11300781 7.65679687 5.91351563 8.02734375 6.73828125 C9 9 9 9 10 12 C11.65 8.04 13.3 4.08 15 0 C16.98 0 18.96 0 21 0 C19.60206495 4.08998924 18.17846724 8.17058414 16.75 12.25 C16.35425781 13.40886719 15.95851563 14.56773437 15.55078125 15.76171875 C14.96103516 17.43427734 14.96103516 17.43427734 14.359375 19.140625 C14.00327148 20.16704102 13.64716797 21.19345703 13.28027344 22.25097656 C11.88750592 25.24154906 10.58353948 26.95807291 8 29 C4.25 29.25 4.25 29.25 1 29 C1 27.68 1 26.36 1 25 C2.65 24.34 4.3 23.68 6 23 C5.42841284 17.88199543 4.26682689 13.53964626 2.4375 8.6875 C0 2.1898017 0 2.1898017 0 0 Z " fill="#0E0B04" transform="translate(433,199)"/>
<path d="M0 0 C1.98 0 3.96 0 6 0 C6.33 5.28 6.66 10.56 7 16 C8.65 15.67 10.3 15.34 12 15 C12.33 10.05 12.66 5.1 13 0 C14.98 0 16.96 0 19 0 C19 6.93 19 13.86 19 21 C17.35 21 15.7 21 14 21 C14 20.34 14 19.68 14 19 C13.46375 19.33 12.9275 19.66 12.375 20 C9.296549 21.29618989 7.31123632 21.48288863 4 21 C1.72979881 18.90128883 0.20135476 17.20859177 -0.31835938 14.08911133 C-0.39306257 11.94164688 -0.34973845 9.83379481 -0.25 7.6875 C-0.23195313 6.94693359 -0.21390625 6.20636719 -0.1953125 5.44335938 C-0.14847337 3.6283429 -0.07673789 1.81399834 0 0 Z " fill="#150B03" transform="translate(443,154)"/>
<path d="M0 0 C3 0 6 0 9 0 C9.969375 -0.061875 10.93875 -0.12375 11.9375 -0.1875 C15 0 15 0 17.17578125 0.9375 C20.12901254 4.27648527 19.42244455 7.89960006 19.25 12.1875 C19.23195313 13.03248047 19.21390625 13.87746094 19.1953125 14.74804688 C19.14820586 16.83251573 19.07646233 18.91640144 19 21 C17.35 21 15.7 21 14 21 C13.67 16.05 13.34 11.1 13 6 C11.35 5.67 9.7 5.34 8 5 C6.00383446 6.99616554 6.59016573 10.81701963 6.4375 13.5625 C6.39431641 14.27341797 6.35113281 14.98433594 6.30664062 15.71679688 C6.20028223 17.47761912 6.09961154 19.2387832 6 21 C4.02 21 2.04 21 0 21 C0 14.07 0 7.14 0 0 Z " fill="#1F1404" transform="translate(373,199)"/>
<path d="M0 0 C1.65 0 3.3 0 5 0 C5.33 0.66 5.66 1.32 6 2 C6.99 1.34 7.98 0.68 9 0 C12.4501392 -0.4404433 14.26484956 -0.49889922 17.17578125 1.4765625 C19.8423153 5.16517277 19.44087211 8.32323539 19.25 12.75 C19.23195312 13.54277344 19.21390625 14.33554688 19.1953125 15.15234375 C19.14833082 17.10208348 19.07659044 19.05119878 19 21 C17.02 21 15.04 21 13 21 C12.67 15.72 12.34 10.44 12 5 C7.36980013 5.4452998 7.36980013 5.4452998 6 7 C5.76472227 9.34987262 5.58613583 11.70556039 5.4375 14.0625 C5.35371094 15.35285156 5.26992187 16.64320313 5.18359375 17.97265625 C5.12300781 18.97167969 5.06242188 19.97070312 5 21 C3.35 21 1.7 21 0 21 C0 14.07 0 7.14 0 0 Z " fill="#0A0804" transform="translate(189,199)"/>
<path d="M0 0 C5.94 0 11.88 0 18 0 C16.94586473 5.27067636 15.83159997 6.84474934 12.4375 10.8125 C11.61121094 11.78832031 10.78492188 12.76414063 9.93359375 13.76953125 C9.29550781 14.50558594 8.65742188 15.24164063 8 16 C11.3 16.33 14.6 16.66 18 17 C18 18.32 18 19.64 18 21 C12.06 21 6.12 21 0 21 C0 15.21404628 0.84924734 14.39600653 4.5 10.1875 C5.3353125 9.21167969 6.170625 8.23585937 7.03125 7.23046875 C7.6809375 6.49441406 8.330625 5.75835937 9 5 C6.03 4.67 3.06 4.34 0 4 C0 2.68 0 1.36 0 0 Z " fill="#080602" transform="translate(477,154)"/>
<path d="M0 0 C2.875 2 2.875 2 5 5 C5.66158228 8.86424194 5.24183945 12.27448166 4 16 C-0.75 15.125 -0.75 15.125 -3 14 C-3 14.99 -3 15.98 -3 17 C-2.34 17.66 -1.68 18.32 -1 19 C-7.41954359 18.63662961 -7.41954359 18.63662961 -9.9375 15.875 C-11.25446444 12.31144916 -11.4046929 9.77713372 -11 6 C-8.36812497 0.49698858 -6.09986598 -0.71763129 0 0 Z " fill="#F2E137" transform="translate(428,151)"/>
<path d="M0 0 C3 1.375 3 1.375 5 3 C5 3.66 5 4.32 5 5 C3.34385343 5.38218767 1.67542976 5.71395102 0 6 C-0.33 5.67 -0.66 5.34 -1 5 C-2.99958364 4.95919217 -5.00045254 4.95745644 -7 5 C-7 5.66 -7 6.32 -7 7 C-3.04 8.32 0.92 9.64 5 11 C6 17 6 17 4.75 18.8125 C0.85028924 21.4587323 -3.44972869 21.51345474 -8 21 C-11 19.625 -11 19.625 -13 18 C-13 17.34 -13 16.68 -13 16 C-11.34385343 15.61781233 -9.67542976 15.28604898 -8 15 C-7.67 15.33 -7.34 15.66 -7 16 C-5.00041636 16.04080783 -2.99954746 16.04254356 -1 16 C-1 15.34 -1 14.68 -1 14 C-1.69867188 13.81824219 -2.39734375 13.63648438 -3.1171875 13.44921875 C-4.02726562 13.19785156 -4.93734375 12.94648438 -5.875 12.6875 C-6.77992188 12.44386719 -7.68484375 12.20023438 -8.6171875 11.94921875 C-11 11 -11 11 -13 8 C-12.84946418 4.98928361 -12.41319987 3.47931185 -10.4375 1.1875 C-6.97441489 -0.49964403 -3.74084201 -0.5629782 0 0 Z " fill="#0D0A03" transform="translate(469,199)"/>
<path d="M0 0 C0.33 1.32 0.66 2.64 1 4 C-0.65 4 -2.3 4 -4 4 C-4 5.32 -4 6.64 -4 8 C-2.68 8 -1.36 8 0 8 C0 9.32 0 10.64 0 12 C-1.32 12 -2.64 12 -4 12 C-4 17.61 -4 23.22 -4 29 C-5.98 29 -7.96 29 -10 29 C-10 23.39 -10 17.78 -10 12 C-10.99 12 -11.98 12 -13 12 C-13 10.68 -13 9.36 -13 8 C-12.01 8 -11.02 8 -10 8 C-10.061875 7.236875 -10.12375 6.47375 -10.1875 5.6875 C-10 3 -10 3 -8.9375 1.1875 C-6.00731249 -0.60842137 -3.3527047 -0.18977574 0 0 Z " fill="#0D1106" transform="translate(224,191)"/>
<path d="M0 0 C2.875 1.3125 2.875 1.3125 5 3 C5.33 3.99 5.66 4.98 6 6 C4.02 6.33 2.04 6.66 0 7 C-0.33 6.34 -0.66 5.68 -1 5 C-2.98 5 -4.96 5 -7 5 C-7.04125 6.258125 -7.0825 7.51625 -7.125 8.8125 C-7.14820313 9.52019531 -7.17140625 10.22789062 -7.1953125 10.95703125 C-7.13254462 13.31359719 -7.13254462 13.31359719 -5 16 C-3.68 16 -2.36 16 -1 16 C-0.34 15.01 0.32 14.02 1 13 C2.65 13.33 4.3 13.66 6 14 C4.55813953 18.56589147 4.55813953 18.56589147 2.3125 20.3125 C-0.98491604 21.29281288 -3.57543187 21.36048086 -7 21 C-10.38939556 18.86320715 -11.72582557 17.8225233 -13 14 C-13.57279236 6.8973747 -13.57279236 6.8973747 -11.125 3.0625 C-7.50882222 -0.44731961 -4.97588405 -0.33734807 0 0 Z " fill="#0B0903" transform="translate(260,154)"/>
<path d="M0 0 C0 2.31 0 4.62 0 7 C1.32 7 2.64 7 4 7 C4 8.32 4 9.64 4 11 C2.68 11 1.36 11 0 11 C0 15.29 0 19.58 0 24 C1.32 24 2.64 24 4 24 C3.67 25.32 3.34 26.64 3 28 C-2.42553191 28.36170213 -2.42553191 28.36170213 -4.6875 26.9375 C-6.70439276 23.96018212 -6.28491047 21.35174705 -6.1875 17.8125 C-6.16042969 16.54019531 -6.13335937 15.26789063 -6.10546875 13.95703125 C-6.07066406 12.98121094 -6.03585937 12.00539062 -6 11 C-6.66 11 -7.32 11 -8 11 C-8 9.68 -8 8.36 -8 7 C-7.34 7 -6.68 7 -6 7 C-5.9175 6.21625 -5.835 5.4325 -5.75 4.625 C-5 2 -5 2 -3 0.6875 C-1 0 -1 0 0 0 Z " fill="#101106" transform="translate(486,192)"/>
<path d="M0 0 C1.98 0 3.96 0 6 0 C6 9.57 6 19.14 6 29 C4.02 29 2.04 29 0 29 C0 19.43 0 9.86 0 0 Z " fill="#170D05" transform="translate(177,191)"/>
<path d="M0 0 C0 1.98 0 3.96 0 6 C1.32 6 2.64 6 4 6 C4 7.32 4 8.64 4 10 C2.68 10 1.36 10 0 10 C0.33 13.96 0.66 17.92 1 22 C1.99 22.33 2.98 22.66 4 23 C4 24.32 4 25.64 4 27 C0.625 27.125 0.625 27.125 -3 27 C-5 25 -5 25 -5.1953125 21.5234375 C-5.18201493 20.14049032 -5.15816232 18.75761346 -5.125 17.375 C-5.11597656 16.66859375 -5.10695313 15.9621875 -5.09765625 15.234375 C-5.07407603 13.48943902 -5.03820461 11.74467705 -5 10 C-5.99 10 -6.98 10 -8 10 C-8 8.68 -8 7.36 -8 6 C-7.01 6 -6.02 6 -5 6 C-4.87625 5.195625 -4.7525 4.39125 -4.625 3.5625 C-4.41875 2.716875 -4.2125 1.87125 -4 1 C-2 0 -2 0 0 0 Z " fill="#050202" transform="translate(330,193)"/>
<path d="M0 0 C0 1.98 0 3.96 0 6 C1.32 6 2.64 6 4 6 C4 7.32 4 8.64 4 10 C2.68 10 1.36 10 0 10 C0.33 13.96 0.66 17.92 1 22 C1.99 22.33 2.98 22.66 4 23 C4 24.32 4 25.64 4 27 C-1.42553191 27.36170213 -1.42553191 27.36170213 -3.6875 25.9375 C-5.70439276 22.96018212 -5.28491047 20.35174705 -5.1875 16.8125 C-5.16042969 15.54019531 -5.13335937 14.26789063 -5.10546875 12.95703125 C-5.07066406 11.98121094 -5.03585937 11.00539062 -5 10 C-5.99 10 -6.98 10 -8 10 C-8 8.68 -8 7.36 -8 6 C-7.01 6 -6.02 6 -5 6 C-4.87625 5.195625 -4.7525 4.39125 -4.625 3.5625 C-4.41875 2.716875 -4.2125 1.87125 -4 1 C-2 0 -2 0 0 0 Z " fill="#0A0200" transform="translate(369,148)"/>
<path d="M0 0 C2.32845493 3.49268239 2.16704629 4.90736594 2 9 C2 10.32 2 11.64 2 13 C1.01 13 0.02 13 -1 13 C-1.969375 13.0825 -2.93875 13.165 -3.9375 13.25 C-7 13 -7 13 -9.375 11.4375 C-11.61372366 8.07941451 -11.57491549 5.95254396 -11 2 C-7.88980721 -1.98104677 -4.56233816 -1.18282841 0 0 Z " fill="#F5F7F2" transform="translate(790,187)"/>
<path d="M0 0 C1.65 0 3.3 0 5 0 C5 9.57 5 19.14 5 29 C3.35 29 1.7 29 0 29 C0 19.43 0 9.86 0 0 Z " fill="#080000" transform="translate(237,146)"/>
<path d="M0 0 C4 0 8 0 12 0 C12.33 0.66 12.66 1.32 13 2 C12.67 2.99 12.34 3.98 12 5 C11.195625 5.12375 10.39125 5.2475 9.5625 5.375 C8.2940625 5.684375 8.2940625 5.684375 7 6 C5.58365167 8.83269666 5.6536995 11.47466438 5.4375 14.625 C5.35371094 15.81351563 5.26992188 17.00203125 5.18359375 18.2265625 C5.12300781 19.14179688 5.06242187 20.05703125 5 21 C3.35 21 1.7 21 0 21 C0 14.07 0 7.14 0 0 Z " fill="#010302" transform="translate(251,199)"/>
<path d="M0 0 C2.625 0.1875 2.625 0.1875 5.625 2.1875 C6.285 1.5275 6.945 0.8675 7.625 0.1875 C10.25 0.0625 10.25 0.0625 12.625 0.1875 C12.625 1.1775 12.625 2.1675 12.625 3.1875 C11.305 2.5275 9.985 1.8675 8.625 1.1875 C8.625 2.1775 8.625 3.1675 8.625 4.1875 C10.275 4.5175 11.925 4.8475 13.625 5.1875 C13.625 6.5075 13.625 7.8275 13.625 9.1875 C13.295 9.5175 12.965 9.8475 12.625 10.1875 C10.2868385 9.88991581 7.95317964 9.55510731 5.625 9.1875 C4.965 9.1875 4.305 9.1875 3.625 9.1875 C3.295 9.5175 2.965 9.8475 2.625 10.1875 C0.1875 10.375 0.1875 10.375 -2.375 10.1875 C-3.035 9.5275 -3.695 8.8675 -4.375 8.1875 C-3.68229893 0.29070781 -3.68229893 0.29070781 0 0 Z " fill="#84771E" transform="translate(189.375,255.8125)"/>
<path d="M0 0 C0.33 0.99 0.66 1.98 1 3 C1.66 3 2.32 3 3 3 C3 3.66 3 4.32 3 5 C3.99 4.34 4.98 3.68 6 3 C9.6875 3.375 9.6875 3.375 13 4 C13 6.97 13 9.94 13 13 C10.85423363 13.02685938 8.70837355 13.04633088 6.5625 13.0625 C5.36753906 13.07410156 4.17257812 13.08570313 2.94140625 13.09765625 C0 13 0 13 -1 12 C-1.28562755 10.55166635 -1.50497976 9.08990267 -1.6875 7.625 C-1.79449219 6.83351562 -1.90148437 6.04203125 -2.01171875 5.2265625 C-2 3 -2 3 0 0 Z " fill="#E0EAE5" transform="translate(747,187)"/>
<path d="M0 0 C1.65 0 3.3 0 5 0 C5 0.66 5 1.32 5 2 C6.32 1.67 7.64 1.34 9 1 C8.68289063 1.66386719 8.36578125 2.32773438 8.0390625 3.01171875 C6.78815849 6.60924343 6.54809948 10.0439801 6.375 13.8125 C6.33632813 14.50537109 6.29765625 15.19824219 6.2578125 15.91210938 C6.16426432 17.60767015 6.08107636 19.30379712 6 21 C4.02 21 2.04 21 0 21 C0 14.07 0 7.14 0 0 Z " fill="#171004" transform="translate(294,154)"/>
<path d="M0 0 C1.6396875 0.2475 1.6396875 0.2475 3.3125 0.5 C6.87525873 1.06718184 6.87525873 1.06718184 10 1 C10.66 1.33 11.32 1.66 12 2 C11.68289063 2.67417969 11.36578125 3.34835938 11.0390625 4.04296875 C9.81297609 7.53224473 9.58180931 10.62440058 9.375 14.3125 C9.30023438 15.56675781 9.22546875 16.82101563 9.1484375 18.11328125 C9.09945313 19.06589844 9.05046875 20.01851562 9 21 C7.35 21 5.7 21 4 21 C3.67 15.72 3.34 10.44 3 5 C1.35 5 -0.3 5 -2 5 C-1.34 3.35 -0.68 1.7 0 0 Z " fill="#030201" transform="translate(303,154)"/>
<path d="M0 0 C1.98 0 3.96 0 6 0 C6 6.93 6 13.86 6 21 C4.02 21 2.04 21 0 21 C0 14.07 0 7.14 0 0 Z " fill="#151508" transform="translate(468,154)"/>
<path d="M0 0 C3.04603275 -0.20768405 5.35650657 -0.2757829 8.1875 0.9375 C11.12467189 4.27979904 10.42217595 7.90627866 10.25 12.1875 C10.23195313 13.03248047 10.21390625 13.87746094 10.1953125 14.74804688 C10.14820586 16.83251573 10.07646233 18.91640144 10 21 C8.35 21 6.7 21 5 21 C4.67 16.05 4.34 11.1 4 6 C2.35 5.67 0.7 5.34 -1 5 C-1 2 -1 2 0 0 Z " fill="#030403" transform="translate(382,199)"/>
<path d="M0 0 C6.75 0.75 6.75 0.75 9 3 C9.22705078 4.87939453 9.22705078 4.87939453 9.1953125 7.1328125 C9.18564453 8.34130859 9.18564453 8.34130859 9.17578125 9.57421875 C9.15902344 10.41597656 9.14226563 11.25773438 9.125 12.125 C9.11597656 12.97449219 9.10695313 13.82398438 9.09765625 14.69921875 C9.07405647 16.79959884 9.03818483 18.89983444 9 21 C7.35 21 5.7 21 4 21 C3.67 15.72 3.34 10.44 3 5 C1.35 4.67 -0.3 4.34 -2 4 C-1.34 2.68 -0.68 1.36 0 0 Z " fill="#000101" transform="translate(536,199)"/>
<path d="M0 0 C6.75 0.75 6.75 0.75 9 3 C9.22705078 4.87939453 9.22705078 4.87939453 9.1953125 7.1328125 C9.18564453 8.34130859 9.18564453 8.34130859 9.17578125 9.57421875 C9.15902344 10.41597656 9.14226562 11.25773438 9.125 12.125 C9.11597656 12.97449219 9.10695313 13.82398438 9.09765625 14.69921875 C9.07405647 16.79959884 9.03818483 18.89983444 9 21 C7.35 21 5.7 21 4 21 C3.67 15.72 3.34 10.44 3 5 C1.35 4.67 -0.3 4.34 -2 4 C-1.34 2.68 -0.68 1.36 0 0 Z " fill="#000101" transform="translate(287,199)"/>
<path d="M0 0 C2.5625 0.375 2.5625 0.375 4.4375 1.9375 C6.03529963 5.39939919 5.44001077 7.72995524 4.5625 11.375 C2.5625 13.375 2.5625 13.375 0.125 13.75 C-2.4375 13.375 -2.4375 13.375 -4.3125 11.8125 C-5.91029963 8.35060081 -5.31501077 6.02004476 -4.4375 2.375 C-2.4375 0.375 -2.4375 0.375 0 0 Z " fill="#EFDC35" transform="translate(386.4375,157.625)"/>
<path d="M0 0 C2.4375 0.75 2.4375 0.75 4.4375 2.75 C4.98532609 8.77608696 4.98532609 8.77608696 3.3125 11.75 C0.479616 13.26087147 -1.54262574 12.53779328 -4.5625 11.75 C-6.15117866 10.16132134 -5.77044039 8.50310484 -5.8125 6.3125 C-5.83828125 5.50941406 -5.8640625 4.70632812 -5.890625 3.87890625 C-5.78234375 3.17636719 -5.6740625 2.47382813 -5.5625 1.75 C-2.5625 -0.25 -2.5625 -0.25 0 0 Z " fill="#F5E036" transform="translate(280.5625,158.25)"/>
<path d="M0 0 C1.58867866 1.58867866 1.20794039 3.24689516 1.25 5.4375 C1.28867187 6.64212891 1.28867187 6.64212891 1.328125 7.87109375 C1.21984375 8.57363281 1.1115625 9.27617187 1 10 C-2 12 -2 12 -4.5625 11.8125 C-7 11 -7 11 -9 8 C-9.32787294 4.85241978 -9.48302295 2.83187287 -7.875 0.0625 C-5.04805609 -1.53943488 -3.05073223 -0.79584319 0 0 Z " fill="#F4E338" transform="translate(362,204)"/>
<path d="M0 0 C2.4375 0.8125 2.4375 0.8125 4.4375 2.8125 C4.98532609 8.83858696 4.98532609 8.83858696 3.3125 11.8125 C0.45348528 13.33730785 -1.52979714 12.6695682 -4.5625 11.8125 C-6.08741998 8.76266004 -5.79812548 6.1701631 -5.5625 2.8125 C-3.9058551 0.02236122 -3.24544844 -0.23747184 0 0 Z " fill="#F7E437" transform="translate(236.5625,203.1875)"/>
<path d="M0 0 C2.05078125 0.29296875 4.1015625 0.5859375 6.15234375 0.87890625 C6.76207031 0.91886719 7.37179687 0.95882813 8 1 C8.33 0.67 8.66 0.34 9 0 C11.5 -0.125 11.5 -0.125 14 0 C15 1 15 1 15.09765625 3.06640625 C15.08605469 3.89011719 15.07445312 4.71382813 15.0625 5.5625 C15.05347656 6.38878906 15.04445313 7.21507812 15.03515625 8.06640625 C15.02355469 8.70449219 15.01195312 9.34257812 15 10 C11 10 7 10 3 10 C2.8046875 7.98177083 2.609375 5.96354167 2.4140625 3.9453125 C2.13625251 1.77331755 2.13625251 1.77331755 0 0 Z " fill="#6C5E19" transform="translate(397,256)"/>
<path d="M0 0 C1.65 0 3.3 0 5 0 C5 6.93 5 13.86 5 21 C3.35 21 1.7 21 0 21 C0 14.07 0 7.14 0 0 Z " fill="#000004" transform="translate(338,199)"/>
<path d="M0 0 C1.670625 0.061875 1.670625 0.061875 3.375 0.125 C3.42889087 2.08303507 3.46774217 4.04148909 3.5 6 C3.52320313 7.09054687 3.54640625 8.18109375 3.5703125 9.3046875 C3.375 12.125 3.375 12.125 1.375 14.125 C-1.25 14.25 -1.25 14.25 -3.625 14.125 C-3.625 13.135 -3.625 12.145 -3.625 11.125 C-2.305 11.455 -0.985 11.785 0.375 12.125 C0.375 11.465 0.375 10.805 0.375 10.125 C-1.275 9.795 -2.925 9.465 -4.625 9.125 C-5.25 5.75 -5.25 5.75 -5.625 2.125 C-3.625 0.125 -3.625 0.125 0 0 Z " fill="#361C09" transform="translate(334.625,255.875)"/>
<path d="M0 0 C0.66 0 1.32 0 2 0 C2 4.62 2 9.24 2 14 C-0.31 14 -2.62 14 -5 14 C-7 12 -7 12 -7.25 9 C-7 6 -7 6 -5 4 C-3.68 4 -2.36 4 -1 4 C-0.67 2.68 -0.34 1.36 0 0 Z " fill="#555666" transform="translate(838,250)"/>
<path d="M0 0 C0.66 0 1.32 0 2 0 C2 4.62 2 9.24 2 14 C-0.31 14 -2.62 14 -5 14 C-7.14915785 10.77626323 -7.38286803 9.73296326 -7 6 C-6.34 5.34 -5.68 4.68 -5 4 C-3.68 4 -2.36 4 -1 4 C-0.67 2.68 -0.34 1.36 0 0 Z " fill="#2F3111" transform="translate(384,252)"/>
<path d="M0 0 C3.63 0 7.26 0 11 0 C9.47426795 3.81433013 8.47253678 5.96552304 6 9 C7.98 9 9.96 9 12 9 C12 9.33 12 9.66 12 10 C8.04 10 4.08 10 0 10 C0 6.7 0 3.4 0 0 Z " fill="#B8B9BD" transform="translate(805,190)"/>
<path d="M0 0 C0.66 0 1.32 0 2 0 C2 4.62 2 9.24 2 14 C-4 14 -4 14 -5.9375 12.875 C-7.52513015 10.07329973 -6.74070176 8.03014356 -6 5 C-4.35 4.67 -2.7 4.34 -1 4 C-0.67 2.68 -0.34 1.36 0 0 Z " fill="#333211" transform="translate(325,252)"/>
<path d="M0 0 C0.94875 0.04125 1.8975 0.0825 2.875 0.125 C2.92889087 2.08303507 2.96774217 4.04148909 3 6 C3.02320313 7.09054687 3.04640625 8.18109375 3.0703125 9.3046875 C2.875 12.125 2.875 12.125 0.875 14.125 C-1.75 14.25 -1.75 14.25 -4.125 14.125 C-4.455 13.135 -4.785 12.145 -5.125 11.125 C-2.65 11.62 -2.65 11.62 -0.125 12.125 C0.535 11.135 1.195 10.145 1.875 9.125 C1.09125 9.33125 0.3075 9.5375 -0.5 9.75 C-1.36625 9.87375 -2.2325 9.9975 -3.125 10.125 C-5.125 8.125 -5.125 8.125 -5.375 5.125 C-5.02345647 0.90647769 -4.22997422 0.16919897 0 0 Z " fill="#988B23" transform="translate(388.125,287.875)"/>
<path d="M0 0 C0.66 0 1.32 0 2 0 C2.33 1.32 2.66 2.64 3 4 C3.61875 4.12375 4.2375 4.2475 4.875 4.375 C7 5 7 5 9 7 C8.625 10.125 8.625 10.125 8 13 C2.25 14 2.25 14 0 14 C0 9.38 0 4.76 0 0 Z " fill="#4C485C" transform="translate(793,250)"/>
<path d="M0 0 C1.60379341 -0.05416188 3.20811406 -0.09286638 4.8125 -0.125 C5.70582031 -0.14820313 6.59914063 -0.17140625 7.51953125 -0.1953125 C10 0 10 0 13 2 C12.125 5.875 12.125 5.875 11 7 C9.14712498 7.07226502 7.29166122 7.0838122 5.4375 7.0625 C4.42558594 7.05347656 3.41367187 7.04445312 2.37109375 7.03515625 C1.58863281 7.02355469 0.80617188 7.01195312 0 7 C0 4.69 0 2.38 0 0 Z " fill="#F8E237" transform="translate(516,163)"/>
<path d="M0 0 C0.66 0 1.32 0 2 0 C2 4.62 2 9.24 2 14 C0.02 14 -1.96 14 -4 14 C-6 12 -6 12 -6.25 9 C-6 6 -6 6 -4 4 C-2.68 4 -1.36 4 0 4 C0 2.68 0 1.36 0 0 Z " fill="#21130B" transform="translate(281,284)"/>
<path d="M0 0 C0.66 0 1.32 0 2 0 C2 4.62 2 9.24 2 14 C0.02 14 -1.96 14 -4 14 C-6 12 -6 12 -6.25 9 C-6 6 -6 6 -4 4 C-2.68 4 -1.36 4 0 4 C0 2.68 0 1.36 0 0 Z " fill="#5D4A4A" transform="translate(771,250)"/>
<path d="M0 0 C2.4375 0.1875 2.4375 0.1875 3.4375 1.1875 C3.50929964 2.70678038 3.52142007 4.22917482 3.5 5.75 C3.49097656 6.57628906 3.48195313 7.40257812 3.47265625 8.25390625 C3.46105469 8.89199219 3.44945312 9.53007812 3.4375 10.1875 C-3.3125 10.3125 -3.3125 10.3125 -5.5625 9.1875 C-4.57889344 0.33504098 -4.57889344 0.33504098 0 0 Z " fill="#766318" transform="translate(346.5625,287.8125)"/>
<path d="M0 0 C1.62463842 -0.05395478 3.24978541 -0.09277195 4.875 -0.125 C5.77992188 -0.14820313 6.68484375 -0.17140625 7.6171875 -0.1953125 C10 0 10 0 12 2 C11.46428571 5.53571429 11.46428571 5.53571429 10 7 C8.31391034 7.07205511 6.62499341 7.08386068 4.9375 7.0625 C4.01839844 7.05347656 3.09929688 7.04445312 2.15234375 7.03515625 C1.44207031 7.02355469 0.73179687 7.01195312 0 7 C0 4.69 0 2.38 0 0 Z " fill="#F7E237" transform="translate(516,151)"/>
<path d="M0 0 C5.56818182 0.56818182 5.56818182 0.56818182 7 2 C7.1875 4.9375 7.1875 4.9375 7 8 C5 10 5 10 2.5 10.25 C0 10 0 10 -2 8 C-2.25 5 -2.25 5 -2 2 C-1.34 1.34 -0.68 0.68 0 0 Z " fill="#2F3111" transform="translate(421,288)"/>
<path d="M0 0 C5.56818182 0.56818182 5.56818182 0.56818182 7 2 C7.1875 4.9375 7.1875 4.9375 7 8 C5 10 5 10 2.5 10.25 C0 10 0 10 -2 8 C-2.25 5 -2.25 5 -2 2 C-1.34 1.34 -0.68 0.68 0 0 Z " fill="#2F3111" transform="translate(281,256)"/>
<path d="M0 0 C2.375 0.6875 2.375 0.6875 3.375 1.6875 C3.5625 4.625 3.5625 4.625 3.375 7.6875 C1.375 9.6875 1.375 9.6875 -1.125 10 C-2.3625 9.8453125 -2.3625 9.8453125 -3.625 9.6875 C-5.7637261 6.47941085 -6.10230962 5.41051503 -5.625 1.6875 C-2.625 -0.3125 -2.625 -0.3125 0 0 Z " fill="#504348" transform="translate(808.625,254.3125)"/>
<path d="M0 0 C2.32845493 3.49268239 2.16704629 4.90736594 2 9 C2 10.32 2 11.64 2 13 C1.01 13 0.02 13 -1 13 C-1.969375 13.0825 -2.93875 13.165 -3.9375 13.25 C-7 13 -7 13 -9.375 11.4375 C-11.61372366 8.07941451 -11.57491549 5.95254396 -11 2 C-7.88980721 -1.98104677 -4.56233816 -1.18282841 0 0 Z M-9 2 C-9.30523962 6.65088715 -9.30523962 6.65088715 -8 11 C-3.65815798 10.81535634 -3.65815798 10.81535634 0 9 C0.25005386 6.04182893 0.25005386 6.04182893 0 3 C-1.89107141 0.66721267 -1.89107141 0.66721267 -5.0625 0.8125 C-7.88833136 0.66812207 -7.88833136 0.66812207 -9 2 Z " fill="#504B57" transform="translate(790,187)"/>
<path d="M0 0 C3.125 0.375 3.125 0.375 6 1 C7.32841008 6.43440487 7.32841008 6.43440487 5.875 8.9375 C4 10 4 10 1.375 9.75 C-1 9 -1 9 -2 8 C-2.1875 5.0625 -2.1875 5.0625 -2 2 C-1.34 1.34 -0.68 0.68 0 0 Z " fill="#201D0B" transform="translate(308,288)"/>
<path d="M0 0 C3.125 0.375 3.125 0.375 6 1 C6.33 3.31 6.66 5.62 7 8 C4 10 4 10 1.375 9.6875 C-1 9 -1 9 -2 8 C-2.1875 5.0625 -2.1875 5.0625 -2 2 C-1.34 1.34 -0.68 0.68 0 0 Z " fill="#908824" transform="translate(324,288)"/>
<path d="M0 0 C2.375 0.75 2.375 0.75 3.375 1.75 C3.5625 4.6875 3.5625 4.6875 3.375 7.75 C2.715 8.41 2.055 9.07 1.375 9.75 C-1.75 9.375 -1.75 9.375 -4.625 8.75 C-5.95341008 3.31559513 -5.95341008 3.31559513 -4.5 0.8125 C-2.625 -0.25 -2.625 -0.25 0 0 Z " fill="#26190A" transform="translate(225.625,288.25)"/>
<path d="M0 0 C3.125 0.375 3.125 0.375 6 1 C7.32841008 6.43440487 7.32841008 6.43440487 5.875 8.9375 C4 10 4 10 1.375 9.75 C-1 9 -1 9 -2 8 C-2.1875 5.0625 -2.1875 5.0625 -2 2 C-1.34 1.34 -0.68 0.68 0 0 Z " fill="#201D0B" transform="translate(228,256)"/>
<path d="M0 0 C0.66 0 1.32 0 2 0 C2.83764268 1.95649397 3.66999059 3.91525556 4.5 5.875 C4.9640625 6.96554687 5.428125 8.05609375 5.90625 9.1796875 C7 12 7 12 7 14 C6.34 14 5.68 14 5 14 C4.67 12.35 4.34 10.7 4 9 C2.02 9 0.04 9 -2 9 C-2.33 10.65 -2.66 12.3 -3 14 C-3.66 14 -4.32 14 -5 14 C-4.34580901 8.93001981 -2.1453591 4.58009223 0 0 Z " fill="#1D2310" transform="translate(180,284)"/>
<path d="M0 0 C0.66 0 1.32 0 2 0 C2.66 1.65 3.32 3.3 4 5 C4.66 3.35 5.32 1.7 6 0 C6.66 0 7.32 0 8 0 C8 0.66 8 1.32 8 2 C9.65 1.34 11.3 0.68 13 0 C12.34 3.3 11.68 6.6 11 10 C10.01 10 9.02 10 8 10 C7.67 8.02 7.34 6.04 7 4 C6.34 5.98 5.68 7.96 5 10 C4.01 9.67 3.02 9.34 2 9 C1.26953125 6.93359375 1.26953125 6.93359375 0.8125 4.4375 C0.65394531 3.61121094 0.49539063 2.78492188 0.33203125 1.93359375 C0.16767578 0.97646484 0.16767578 0.97646484 0 0 Z " fill="#3E2D0E" transform="translate(289,256)"/>
<path d="M0 0 C0.66 1.32 1.32 2.64 2 4 C1.34 4 0.68 4 0 4 C0 3.34 0 2.68 0 2 C-1.98 2 -3.96 2 -6 2 C-6 2.99 -6 3.98 -6 5 C-2.04 5.99 -2.04 5.99 2 7 C2.33 8.65 2.66 10.3 3 12 C-0.8503105 14.56687367 -2.58569763 13.83288724 -7 13 C-7.33 11.68 -7.66 10.36 -8 9 C-7.34 9 -6.68 9 -6 9 C-5.67 9.66 -5.34 10.32 -5 11 C-3.35 11 -1.7 11 0 11 C0 10.34 0 9.68 0 9 C-2.31 8.01 -4.62 7.02 -7 6 C-7 4.35 -7 2.7 -7 1 C-4.53721199 -0.231394 -2.7204945 -0.07159196 0 0 Z " fill="#463D40" transform="translate(741,186)"/>
<path d="M0 0 C3.125 0.375 3.125 0.375 6 1 C6.33 2.65 6.66 4.3 7 6 C4.69 6 2.38 6 0 6 C0 6.66 0 7.32 0 8 C3.465 7.505 3.465 7.505 7 7 C6.01 8.485 6.01 8.485 5 10 C2.5 10.3125 2.5 10.3125 0 10 C-2 8 -2 8 -2.25 5 C-2 2 -2 2 0 0 Z " fill="#4E4914" transform="translate(342,256)"/>
<path d="M0 0 C3.125 0.375 3.125 0.375 6 1 C6.33 2.65 6.66 4.3 7 6 C4.69 6 2.38 6 0 6 C0 6.66 0 7.32 0 8 C3.465 7.505 3.465 7.505 7 7 C6.01 8.485 6.01 8.485 5 10 C2.5 10.3125 2.5 10.3125 0 10 C-2 8 -2 8 -2.25 5 C-2 2 -2 2 0 0 Z " fill="#4E4914" transform="translate(310,256)"/>
<path d="M0 0 C2.5625 0.1875 2.5625 0.1875 4.5625 2.1875 C4.5625 3.5075 4.5625 4.8275 4.5625 6.1875 C2.2525 6.1875 -0.0575 6.1875 -2.4375 6.1875 C-2.4375 6.8475 -2.4375 7.5075 -2.4375 8.1875 C1.0275 7.6925 1.0275 7.6925 4.5625 7.1875 C3.5725 8.6725 3.5725 8.6725 2.5625 10.1875 C0.0625 10.5 0.0625 10.5 -2.4375 10.1875 C-3.0975 9.5275 -3.7575 8.8675 -4.4375 8.1875 C-3.74456522 0.28804348 -3.74456522 0.28804348 0 0 Z " fill="#271407" transform="translate(460.4375,287.8125)"/>
<path d="M0 0 C2.5625 0.1875 2.5625 0.1875 4.5625 2.1875 C4.5625 3.5075 4.5625 4.8275 4.5625 6.1875 C2.2525 6.1875 -0.0575 6.1875 -2.4375 6.1875 C-2.4375 6.8475 -2.4375 7.5075 -2.4375 8.1875 C1.0275 7.6925 1.0275 7.6925 4.5625 7.1875 C3.5725 8.6725 3.5725 8.6725 2.5625 10.1875 C0.0625 10.5 0.0625 10.5 -2.4375 10.1875 C-3.0975 9.5275 -3.7575 8.8675 -4.4375 8.1875 C-3.74456522 0.28804348 -3.74456522 0.28804348 0 0 Z " fill="#271407" transform="translate(397.4375,287.8125)"/>
<path d="M0 0 C2.5625 0.1875 2.5625 0.1875 4.5625 2.1875 C4.5625 3.5075 4.5625 4.8275 4.5625 6.1875 C2.2525 6.1875 -0.0575 6.1875 -2.4375 6.1875 C-2.4375 6.8475 -2.4375 7.5075 -2.4375 8.1875 C1.0275 7.6925 1.0275 7.6925 4.5625 7.1875 C3.5725 8.6725 3.5725 8.6725 2.5625 10.1875 C0.0625 10.5 0.0625 10.5 -2.4375 10.1875 C-3.0975 9.5275 -3.7575 8.8675 -4.4375 8.1875 C-3.74456522 0.28804348 -3.74456522 0.28804348 0 0 Z " fill="#271407" transform="translate(365.4375,287.8125)"/>
<path d="M0 0 C2.5625 0.1875 2.5625 0.1875 4.5625 2.1875 C4.5625 3.5075 4.5625 4.8275 4.5625 6.1875 C2.2525 6.1875 -0.0575 6.1875 -2.4375 6.1875 C-2.4375 6.8475 -2.4375 7.5075 -2.4375 8.1875 C1.0275 7.6925 1.0275 7.6925 4.5625 7.1875 C3.5725 8.6725 3.5725 8.6725 2.5625 10.1875 C0.0625 10.5 0.0625 10.5 -2.4375 10.1875 C-3.0975 9.5275 -3.7575 8.8675 -4.4375 8.1875 C-3.74456522 0.28804348 -3.74456522 0.28804348 0 0 Z " fill="#271407" transform="translate(428.4375,255.8125)"/>
<path d="M0 0 C2.5625 0.1875 2.5625 0.1875 4.5625 2.1875 C4.5625 3.5075 4.5625 4.8275 4.5625 6.1875 C2.2525 6.1875 -0.0575 6.1875 -2.4375 6.1875 C-2.4375 6.8475 -2.4375 7.5075 -2.4375 8.1875 C1.0275 7.6925 1.0275 7.6925 4.5625 7.1875 C3.5725 8.6725 3.5725 8.6725 2.5625 10.1875 C0.0625 10.5 0.0625 10.5 -2.4375 10.1875 C-3.0975 9.5275 -3.7575 8.8675 -4.4375 8.1875 C-3.74456522 0.28804348 -3.74456522 0.28804348 0 0 Z " fill="#271407" transform="translate(189.4375,255.8125)"/>
<path d="M0 0 C0.33 1.65 0.66 3.3 1 5 C-0.98 5.33 -2.96 5.66 -5 6 C-3.68 6 -2.36 6 -1 6 C-0.34 6 0.32 6 1 6 C1 6.66 1 7.32 1 8 C-4.41139241 9.32278481 -4.41139241 9.32278481 -6.9375 7.9375 C-8.52666796 5.03960549 -7.87523205 3.09697496 -7 0 C-4.3333581 -1.33332095 -2.83319697 -0.67102033 0 0 Z " fill="#241B08" transform="translate(261,289)"/>
<path d="M0 0 C3.29714793 0.32971479 4.6226839 0.6226839 7 3 C7 3.99 7 4.98 7 6 C4.69 6 2.38 6 0 6 C0 6.66 0 7.32 0 8 C1.98 7.67 3.96 7.34 6 7 C5.67 7.99 5.34 8.98 5 10 C2.625 10.125 2.625 10.125 0 10 C-2 8 -2 8 -2.25 5 C-2 2 -2 2 0 0 Z " fill="#4D4A15" transform="translate(197,288)"/>
<path d="M0 0 C2.31 0.33 4.62 0.66 7 1 C7 3.97 7 6.94 7 10 C4.36 10 1.72 10 -1 10 C-1.33 8.68 -1.66 7.36 -2 6 C0.31 5.34 2.62 4.68 5 4 C4.67 3.34 4.34 2.68 4 2 C2.02 2.33 0.04 2.66 -2 3 C-1.34 2.01 -0.68 1.02 0 0 Z " fill="#424B5C" transform="translate(816,254)"/>
<path d="M0 0 C2.31 0.33 4.62 0.66 7 1 C7 3.97 7 6.94 7 10 C4.36 10 1.72 10 -1 10 C-1.33 8.68 -1.66 7.36 -2 6 C0.31 5.34 2.62 4.68 5 4 C4.67 3.34 4.34 2.68 4 2 C2.02 2.33 0.04 2.66 -2 3 C-1.34 2.01 -0.68 1.02 0 0 Z " fill="#424B5C" transform="translate(756,254)"/>
<path d="M0 0 C2.31 0.33 4.62 0.66 7 1 C7 3.97 7 6.94 7 10 C4.36 10 1.72 10 -1 10 C-1.33 8.68 -1.66 7.36 -2 6 C0.31 5.34 2.62 4.68 5 4 C4.67 3.34 4.34 2.68 4 2 C2.02 2.33 0.04 2.66 -2 3 C-1.34 2.01 -0.68 1.02 0 0 Z " fill="#424B5C" transform="translate(753,190)"/>
<path d="M0 0 C2.31 0.33 4.62 0.66 7 1 C7 3.97 7 6.94 7 10 C4.36 10 1.72 10 -1 10 C-1.33 8.68 -1.66 7.36 -2 6 C0.31 5.34 2.62 4.68 5 4 C4.67 3.34 4.34 2.68 4 2 C2.35 2.33 0.7 2.66 -1 3 C-0.67 2.01 -0.34 1.02 0 0 Z " fill="#2B1705" transform="translate(266,288)"/>
<path d="M0 0 C3.29714793 0.32971479 4.6226839 0.6226839 7 3 C7 3.99 7 4.98 7 6 C4.69 6.33 2.38 6.66 0 7 C3 8.33333333 3 8.33333333 6 7 C5.67 7.99 5.34 8.98 5 10 C2.625 10.125 2.625 10.125 0 10 C-2 8 -2 8 -2.25 5 C-2 2 -2 2 0 0 Z " fill="#383844" transform="translate(778,254)"/>
<path d="M0 0 C2.625 0.375 2.625 0.375 5 1 C5.33 2.65 5.66 4.3 6 6 C4.02 6.33 2.04 6.66 0 7 C1.98 7 3.96 7 6 7 C5.67 7.99 5.34 8.98 5 10 C2.625 10.125 2.625 10.125 0 10 C-2 8 -2 8 -2.25 5 C-2 2 -2 2 0 0 Z " fill="#3C363E" transform="translate(746,254)"/>
<path d="M0 0 C0.66 0 1.32 0 2 0 C2 1.32 2 2.64 2 4 C2.804375 4.144375 3.60875 4.28875 4.4375 4.4375 C7 5 7 5 8 6 C8.14115161 8.67058851 8.04247107 11.32432238 8 14 C7.34 14 6.68 14 6 14 C5.67 11.36 5.34 8.72 5 6 C4.34 6 3.68 6 3 6 C2.67 8.64 2.34 11.28 2 14 C1.34 14 0.68 14 0 14 C0 9.38 0 4.76 0 0 Z " fill="#232E12" transform="translate(332,284)"/>
<path d="M0 0 C0.66 0 1.32 0 2 0 C2 2.31 2 4.62 2 7 C2.66 7 3.32 7 4 7 C4.33 6.01 4.66 5.02 5 4 C5.99 4.33 6.98 4.66 8 5 C7.34 5.66 6.68 6.32 6 7 C6.26676204 8.98491642 6.26676204 8.98491642 7 11 C7.33 11.99 7.66 12.98 8 14 C7.01 13.67 6.02 13.34 5 13 C4.3125 10.9375 4.3125 10.9375 4 9 C3.34 9 2.68 9 2 9 C2 10.65 2 12.3 2 14 C1.34 14 0.68 14 0 14 C0 9.38 0 4.76 0 0 Z " fill="#41240C" transform="translate(259,252)"/>
<path d="M0 0 C0.66 0 1.32 0 2 0 C2 2.64 2 5.28 2 8 C3.32 8 4.64 8 6 8 C6 5.36 6 2.72 6 0 C6.66 0 7.32 0 8 0 C8 3.3 8 6.6 8 10 C5.66705225 10.04241723 3.33297433 10.04092937 1 10 C0 9 0 9 -0.09765625 6.93359375 C-0.08605469 6.10988281 -0.07445312 5.28617187 -0.0625 4.4375 C-0.05347656 3.61121094 -0.04445313 2.78492188 -0.03515625 1.93359375 C-0.02355469 1.29550781 -0.01195312 0.65742188 0 0 Z " fill="#2D3915" transform="translate(430,288)"/>
<path d="M0 0 C0.66 0 1.32 0 2 0 C2 2.64 2 5.28 2 8 C3.32 8 4.64 8 6 8 C6 5.36 6 2.72 6 0 C6.66 0 7.32 0 8 0 C8 3.3 8 6.6 8 10 C5.66705225 10.04241723 3.33297433 10.04092937 1 10 C0 9 0 9 -0.09765625 6.93359375 C-0.08605469 6.10988281 -0.07445312 5.28617187 -0.0625 4.4375 C-0.05347656 3.61121094 -0.04445312 2.78492188 -0.03515625 1.93359375 C-0.02355469 1.29550781 -0.01195312 0.65742188 0 0 Z " fill="#2D3915" transform="translate(237,256)"/>
<path d="M0 0 C0.66 0 1.32 0 2 0 C2 2.64 2 5.28 2 8 C3.32 8 4.64 8 6 8 C6 5.36 6 2.72 6 0 C6.66 0 7.32 0 8 0 C8 3.3 8 6.6 8 10 C5.66705225 10.04241723 3.33297433 10.04092937 1 10 C0 9 0 9 -0.09765625 6.93359375 C-0.08605469 6.10988281 -0.07445312 5.28617188 -0.0625 4.4375 C-0.05347656 3.61121094 -0.04445313 2.78492188 -0.03515625 1.93359375 C-0.02355469 1.29550781 -0.01195312 0.65742188 0 0 Z " fill="#5D4A58" transform="translate(794,190)"/>
<path d="M0 0 C0 0.66 0 1.32 0 2 C-0.928125 2.268125 -1.85625 2.53625 -2.8125 2.8125 C-5.76240366 3.91148371 -7.05615186 4.62418561 -9 7 C-9.33 6.67 -9.66 6.34 -10 6 C-11.66617115 5.95936168 -13.33388095 5.957279 -15 6 C-15.33 5.34 -15.66 4.68 -16 4 C-13.69 4 -11.38 4 -9 4 C-9 3.01 -9 2.02 -9 1 C-5.57367167 -0.61798838 -3.61944899 -1.34053666 0 0 Z " fill="#DDE5E4" transform="translate(761,256)"/>
<path d="M0 0 C0.66 0 1.32 0 2 0 C2 3.96 2 7.92 2 12 C4.31 12 6.62 12 9 12 C9 12.66 9 13.32 9 14 C6.03 14 3.06 14 0 14 C0 9.38 0 4.76 0 0 Z " fill="#634C41" transform="translate(733,250)"/>
<path d="M0 0 C0.66 0 1.32 0 2 0 C2.66 1.65 3.32 3.3 4 5 C5.93798263 2.22739701 5.93798263 2.22739701 7 0 C7.66 0.33 8.32 0.66 9 1 C8.24275352 2.98440482 7.46877038 4.96243005 6.6875 6.9375 C6.25824219 8.03964844 5.82898438 9.14179688 5.38671875 10.27734375 C4 13 4 13 1 14 C1 13.34 1 12.68 1 12 C1.66 12 2.32 12 3 12 C2.01 8.04 1.02 4.08 0 0 Z " fill="#2E240E" transform="translate(285,288)"/>
<path d="M0 0 C2.7839183 1.39195915 2.97898997 3.15575779 4 6 C4.66 4.02 5.32 2.04 6 0 C6.66 0 7.32 0 8 0 C7.54636829 1.58468677 7.08688548 3.16769924 6.625 4.75 C6.36976563 5.63171875 6.11453125 6.5134375 5.8515625 7.421875 C5.0790066 9.76080572 4.16374324 11.83442562 3 14 C2.01 14 1.02 14 0 14 C0 13.34 0 12.68 0 12 C0.99 12 1.98 12 3 12 C2.7834375 11.38511719 2.566875 10.77023437 2.34375 10.13671875 C2.0653125 9.32847656 1.786875 8.52023437 1.5 7.6875 C1.2215625 6.88699219 0.943125 6.08648437 0.65625 5.26171875 C0 3 0 3 0 0 Z " fill="#2D270F" transform="translate(211,288)"/>
<path d="M0 0 C0.66 0 1.32 0 2 0 C2.66 1.65 3.32 3.3 4 5 C4.99 3.35 5.98 1.7 7 0 C8.23593891 3.70781672 7.5678132 4.67510253 6.0625 8.1875 C5.68222656 9.08855469 5.30195313 9.98960937 4.91015625 10.91796875 C4.60980469 11.60503906 4.30945313 12.29210937 4 13 C3.01 13 2.02 13 1 13 C1.33 12.67 1.66 12.34 2 12 C1.59841673 7.91723674 1.15147536 3.94791553 0 0 Z " fill="#2D260F" transform="translate(409,288)"/>
<path d="M0 0 C0.66 0 1.32 0 2 0 C2.66 1.65 3.32 3.3 4 5 C4.99 3.35 5.98 1.7 7 0 C8.23593891 3.70781672 7.5678132 4.67510253 6.0625 8.1875 C5.68222656 9.08855469 5.30195313 9.98960937 4.91015625 10.91796875 C4.60980469 11.60503906 4.30945313 12.29210937 4 13 C3.01 13 2.02 13 1 13 C1.33 12.67 1.66 12.34 2 12 C1.59841673 7.91723674 1.15147536 3.94791553 0 0 Z " fill="#2D260F" transform="translate(216,256)"/>
<path d="M0 0 C2.33294775 -0.04241723 4.66702567 -0.04092937 7 0 C8 1 8 1 8.09765625 3.06640625 C8.08605469 3.89011719 8.07445312 4.71382813 8.0625 5.5625 C8.05347656 6.38878906 8.04445313 7.21507812 8.03515625 8.06640625 C8.02355469 8.70449219 8.01195312 9.34257812 8 10 C7.67 10 7.34 10 7 10 C7 7.36 7 4.72 7 2 C5.35 2 3.7 2 2 2 C2 4.64 2 7.28 2 10 C1.34 10 0.68 10 0 10 C0 6.7 0 3.4 0 0 Z " fill="#311909" transform="translate(372,288)"/>
<path d="M0 0 C2.33294775 -0.04241723 4.66702567 -0.04092937 7 0 C8 1 8 1 8.09765625 3.06640625 C8.08605469 3.89011719 8.07445312 4.71382813 8.0625 5.5625 C8.05347656 6.38878906 8.04445313 7.21507812 8.03515625 8.06640625 C8.02355469 8.70449219 8.01195312 9.34257812 8 10 C7.67 10 7.34 10 7 10 C7 7.36 7 4.72 7 2 C5.35 2 3.7 2 2 2 C2 4.64 2 7.28 2 10 C1.34 10 0.68 10 0 10 C0 6.7 0 3.4 0 0 Z " fill="#20140D" transform="translate(367,256)"/>
<path d="M0 0 C1.32 0.66 2.64 1.32 4 2 C3.67 3.65 3.34 5.3 3 7 C1.68 7 0.36 7 -1 7 C-1.625 4.625 -1.625 4.625 -2 2 C-1.34 1.34 -0.68 0.68 0 0 Z " fill="#DFD735" transform="translate(309,289)"/>
<path d="M0 0 C1.32 0.66 2.64 1.32 4 2 C3.67 3.65 3.34 5.3 3 7 C1.68 7 0.36 7 -1 7 C-1.625 4.625 -1.625 4.625 -2 2 C-1.34 1.34 -0.68 0.68 0 0 Z " fill="#DBC930" transform="translate(278,289)"/>
<path d="M0 0 C1.32 0.66 2.64 1.32 4 2 C3.67 3.65 3.34 5.3 3 7 C1.68 7 0.36 7 -1 7 C-1.625 4.625 -1.625 4.625 -2 2 C-1.34 1.34 -0.68 0.68 0 0 Z " fill="#EAD431" transform="translate(224,289)"/>
<path d="M0 0 C1.32 0.66 2.64 1.32 4 2 C3.67 3.65 3.34 5.3 3 7 C1.68 7 0.36 7 -1 7 C-1.625 4.625 -1.625 4.625 -2 2 C-1.34 1.34 -0.68 0.68 0 0 Z " fill="#DFD735" transform="translate(229,257)"/>
<path d="M0 0 C2.125 0.9375 2.125 0.9375 4 2 C3.67 3.65 3.34 5.3 3 7 C1.35 7 -0.3 7 -2 7 C-2 5.02 -2 3.04 -2 1 C-1.34 0.67 -0.68 0.34 0 0 Z " fill="#E8E8E0" transform="translate(807,255)"/>
<path d="M0 0 C2.97 0.495 2.97 0.495 6 1 C6 2.32 6 3.64 6 5 C3.36 5 0.72 5 -2 5 C-1.34 3.35 -0.68 1.7 0 0 Z " fill="#E7DB37" transform="translate(499,203)"/>
<path d="M0 0 C2.97 0.495 2.97 0.495 6 1 C6 2.32 6 3.64 6 5 C3.36 5 0.72 5 -2 5 C-1.34 3.35 -0.68 1.7 0 0 Z " fill="#E7DB37" transform="translate(567,158)"/>
<path d="M0 0 C1.67542976 0.28604898 3.34385343 0.61781233 5 1 C5.33 2.32 5.66 3.64 6 5 C3.36 5 0.72 5 -2 5 C-1.125 1.125 -1.125 1.125 0 0 Z " fill="#EEE037" transform="translate(545,158)"/>
<path d="M0 0 C2.97 0.495 2.97 0.495 6 1 C6 2.32 6 3.64 6 5 C3.36 5 0.72 5 -2 5 C-1.34 3.35 -0.68 1.7 0 0 Z " fill="#E7DB37" transform="translate(336,158)"/>
<path d="M0 0 C1.67542976 0.28604898 3.34385343 0.61781233 5 1 C5.33 2.32 5.66 3.64 6 5 C3.36 5 0.72 5 -2 5 C-1.125 1.125 -1.125 1.125 0 0 Z " fill="#F2DE35" transform="translate(221,158)"/>
<path d="M0 0 C-0.33 1.65 -0.66 3.3 -1 5 C-2.65 5.33 -4.3 5.66 -6 6 C-6.33 4.68 -6.66 3.36 -7 2 C-4.35261084 0.5393715 -3.10551666 0 0 0 Z " fill="#E6D834" transform="translate(313,210)"/>
<path d="M0 0 C0.66 0 1.32 0 2 0 C2.33 2.64 2.66 5.28 3 8 C1.02 8 -0.96 8 -3 8 C-1.125 1.125 -1.125 1.125 0 0 Z " fill="#84711C" transform="translate(180,284)"/>
<path d="M0 0 C0.99 0.33 1.98 0.66 3 1 C2.34 1 1.68 1 1 1 C1 1.99 1 2.98 1 4 C1.66 4.33 2.32 4.66 3 5 C2.34 5 1.68 5 1 5 C1 7.97 1 10.94 1 14 C0.34 14 -0.32 14 -1 14 C-1.22331199 12.41870971 -1.42804644 10.83478911 -1.625 9.25 C-1.74101562 8.36828125 -1.85703125 7.4865625 -1.9765625 6.578125 C-2.00207817 3.77140122 -1.44843844 2.36615134 0 0 Z " fill="#262210" transform="translate(473,284)"/>
<path d="M0 0 C1.31223496 3.93670488 0.24296256 6.12488144 -1 10 C-1.99 10 -2.98 10 -4 10 C-4 7.36 -4 4.72 -4 2 C-2.68 1.34 -1.36 0.68 0 0 Z " fill="#5F5517" transform="translate(301,256)"/>
<path d="M0 0 C0.99 0.33 1.98 0.66 3 1 C3 2.98 3 4.96 3 7 C2.01 7.33 1.02 7.66 0 8 C-0.66 7.67 -1.32 7.34 -2 7 C-2 5.02 -2 3.04 -2 1 C-1.34 0.67 -0.68 0.34 0 0 Z " fill="#E8D632" transform="translate(381,257)"/>
<path d="M0 0 C0.99 0.33 1.98 0.66 3 1 C3 2.98 3 4.96 3 7 C2.01 7.33 1.02 7.66 0 8 C-0.66 7.67 -1.32 7.34 -2 7 C-2 5.02 -2 3.04 -2 1 C-1.34 0.67 -0.68 0.34 0 0 Z " fill="#EAD833" transform="translate(333,257)"/>
<path d="M0 0 C0.99 0.33 1.98 0.66 3 1 C2.34 1 1.68 1 1 1 C1 1.99 1 2.98 1 4 C1.66 4.33 2.32 4.66 3 5 C2.34 5 1.68 5 1 5 C1 7.97 1 10.94 1 14 C0.34 14 -0.32 14 -1 14 C-1.22331199 12.41870971 -1.42804644 10.83478911 -1.625 9.25 C-1.74101562 8.36828125 -1.85703125 7.4865625 -1.9765625 6.578125 C-2.00207817 3.77140122 -1.44843844 2.36615134 0 0 Z " fill="#262210" transform="translate(442,252)"/>
<path d="M0 0 C2.31 0 4.62 0 7 0 C5.7508258 3.45925163 4.32472205 6.14693203 2 9 C3.98 9 5.96 9 8 9 C8 9.33 8 9.66 8 10 C5.03 10 2.06 10 -1 10 C0.74381547 6.51236907 2.52806709 3.96631949 5 1 C3.35 1 1.7 1 0 1 C0 0.67 0 0.34 0 0 Z " fill="#383036" transform="translate(809,190)"/>
<path d="M0 0 C1.2684375 0.12375 1.2684375 0.12375 2.5625 0.25 C3.2225 1.24 3.8825 2.23 4.5625 3.25 C4.2325 3.91 3.9025 4.57 3.5625 5.25 C1.5825 5.25 -0.3975 5.25 -2.4375 5.25 C-3 3.3125 -3 3.3125 -3.4375 1.25 C-2.4375 0.25 -2.4375 0.25 0 0 Z " fill="#84791E" transform="translate(460.4375,287.75)"/>
<path d="M0 0 C1.2684375 0.12375 1.2684375 0.12375 2.5625 0.25 C3.2225 1.24 3.8825 2.23 4.5625 3.25 C4.2325 3.91 3.9025 4.57 3.5625 5.25 C1.5825 5.25 -0.3975 5.25 -2.4375 5.25 C-3 3.3125 -3 3.3125 -3.4375 1.25 C-2.4375 0.25 -2.4375 0.25 0 0 Z " fill="#84791E" transform="translate(397.4375,287.75)"/>
<path d="M0 0 C0.05389087 1.95803507 0.09274217 3.91648909 0.125 5.875 C0.14820313 6.96554687 0.17140625 8.05609375 0.1953125 9.1796875 C0 12 0 12 -2 14 C-4.625 14.125 -4.625 14.125 -7 14 C-7.33 13.01 -7.66 12.02 -8 11 C-5.525 11.495 -5.525 11.495 -3 12 C-2.34 11.01 -1.68 10.02 -1 9 C-1.66 8.67 -2.32 8.34 -3 8 C-2.814375 7.21625 -2.62875 6.4325 -2.4375 5.625 C-1.74037734 3.02910225 -1.74037734 3.02910225 -3 1 C-1 0 -1 0 0 0 Z " fill="#1D1109" transform="translate(391,288)"/>
<path d="M0 0 C1.2684375 0.12375 1.2684375 0.12375 2.5625 0.25 C3.2225 1.24 3.8825 2.23 4.5625 3.25 C4.2325 3.91 3.9025 4.57 3.5625 5.25 C1.5825 5.25 -0.3975 5.25 -2.4375 5.25 C-3 3.3125 -3 3.3125 -3.4375 1.25 C-2.4375 0.25 -2.4375 0.25 0 0 Z " fill="#84791E" transform="translate(365.4375,287.75)"/>
<path d="M0 0 C1.32 0.33 2.64 0.66 4 1 C4 2.98 4 4.96 4 7 C2.02 7 0.04 7 -2 7 C-2 6.01 -2 5.02 -2 4 C-1.34 4 -0.68 4 0 4 C0 2.68 0 1.36 0 0 Z " fill="#A48F21" transform="translate(359,257)"/>
<path d="M0 0 C1.2684375 0.12375 1.2684375 0.12375 2.5625 0.25 C3.2225 1.24 3.8825 2.23 4.5625 3.25 C4.2325 3.91 3.9025 4.57 3.5625 5.25 C1.5825 5.25 -0.3975 5.25 -2.4375 5.25 C-3 3.3125 -3 3.3125 -3.4375 1.25 C-2.4375 0.25 -2.4375 0.25 0 0 Z " fill="#84791E" transform="translate(428.4375,255.75)"/>
<path d="M0 0 C1.2684375 0.12375 1.2684375 0.12375 2.5625 0.25 C3.2225 1.24 3.8825 2.23 4.5625 3.25 C4.2325 3.91 3.9025 4.57 3.5625 5.25 C1.5825 5.25 -0.3975 5.25 -2.4375 5.25 C-3 3.3125 -3 3.3125 -3.4375 1.25 C-2.4375 0.25 -2.4375 0.25 0 0 Z " fill="#84791E" transform="translate(189.4375,255.75)"/>
<path d="M0 0 C0.33 0 0.66 0 1 0 C1 2.97 1 5.94 1 9 C-1.31 9 -3.62 9 -6 9 C-6 7.68 -6 6.36 -6 5 C-4.35 5 -2.7 5 -1 5 C-0.67 3.35 -0.34 1.7 0 0 Z " fill="#6C7922" transform="translate(272,289)"/>
<path d="M0 0 C1.65 0 3.3 0 5 0 C5 1.98 5 3.96 5 6 C3.35 6 1.7 6 0 6 C0 4.02 0 2.04 0 0 Z " fill="#F6E135" transform="translate(421,290)"/>
<path d="M0 0 C1.65 0 3.3 0 5 0 C5 1.98 5 3.96 5 6 C3.35 6 1.7 6 0 6 C0 4.02 0 2.04 0 0 Z " fill="#F6E135" transform="translate(281,258)"/>
<path d="M0 0 C2.475 0.495 2.475 0.495 5 1 C5 2.65 5 4.3 5 6 C3.35 6 1.7 6 0 6 C0 4.02 0 2.04 0 0 Z " fill="#F1F4EB" transform="translate(833,256)"/>
<path d="M0 0 C0.33 0.99 0.66 1.98 1 3 C1.66 3.33 2.32 3.66 3 4 C2.34 4 1.68 4 1 4 C1 6.64 1 9.28 1 12 C1.66 12.33 2.32 12.66 3 13 C1.68 12.67 0.36 12.34 -1 12 C-1.2226746 10.56465159 -1.42761906 9.12654475 -1.625 7.6875 C-1.74101563 6.88699219 -1.85703125 6.08648437 -1.9765625 5.26171875 C-2 3 -2 3 0 0 Z " fill="#624748" transform="translate(747,187)"/>
<path d="M0 0 C2.83022097 3.99560608 1.76210446 7.42737323 1 12 C1.66 12.33 2.32 12.66 3 13 C1.68 12.67 0.36 12.34 -1 12 C-1.2226746 10.56465159 -1.42761906 9.12654475 -1.625 7.6875 C-1.74101562 6.88699219 -1.85703125 6.08648437 -1.9765625 5.26171875 C-2 3 -2 3 0 0 Z " fill="#272410" transform="translate(302,285)"/>
<path d="M0 0 C0.33 0 0.66 0 1 0 C1.05389087 1.95803507 1.09274217 3.91648909 1.125 5.875 C1.14820313 6.96554687 1.17140625 8.05609375 1.1953125 9.1796875 C1 12 1 12 -1 14 C-3.625 14.125 -3.625 14.125 -6 14 C-6 13.01 -6 12.02 -6 11 C-4.02 11.495 -4.02 11.495 -2 12 C-1.1558062 8.02022924 -0.55312735 4.02992782 0 0 Z " fill="#103418" transform="translate(337,256)"/>
<path d="M0 0 C1.32 0 2.64 0 4 0 C4 1.98 4 3.96 4 6 C2.35 5.67 0.7 5.34 -1 5 C-0.67 3.35 -0.34 1.7 0 0 Z " fill="#F4E335" transform="translate(321,258)"/>
<path d="M0 0 C2.475 0.495 2.475 0.495 5 1 C4.67 2.65 4.34 4.3 4 6 C2.68 6 1.36 6 0 6 C0 4.02 0 2.04 0 0 Z " fill="#F4F5ED" transform="translate(795,256)"/>
<path d="M0 0 C1.32 0 2.64 0 4 0 C4 1.98 4 3.96 4 6 C2.35 5.67 0.7 5.34 -1 5 C-0.67 3.35 -0.34 1.7 0 0 Z " fill="#E2F0F8" transform="translate(767,256)"/>
<path d="M0 0 C2.83022097 3.99560608 1.76210446 7.42737323 1 12 C1.66 12.33 2.32 12.66 3 13 C1.68 12.67 0.36 12.34 -1 12 C-1.2226746 10.56465159 -1.42761906 9.12654475 -1.625 7.6875 C-1.74101562 6.88699219 -1.85703125 6.08648437 -1.9765625 5.26171875 C-2 3 -2 3 0 0 Z " fill="#272410" transform="translate(207,253)"/>
<path d="M0 0 C0.66 0.33 1.32 0.66 2 1 C2 1.99 2 2.98 2 4 C0.02 4.66 -1.96 5.32 -4 6 C-4.33 4.68 -4.66 3.36 -5 2 C-2.625 0.9375 -2.625 0.9375 0 0 Z " fill="#958B84" transform="translate(819,258)"/>
<path d="M0 0 C0.66 0.33 1.32 0.66 2 1 C2 1.99 2 2.98 2 4 C0.02 4.66 -1.96 5.32 -4 6 C-4.33 4.68 -4.66 3.36 -5 2 C-2.625 0.9375 -2.625 0.9375 0 0 Z " fill="#958B84" transform="translate(759,258)"/>
<path d="M0 0 C0.33 1.32 0.66 2.64 1 4 C-2.8503105 6.56687367 -4.58569763 5.83288724 -9 5 C-9.33 3.68 -9.66 2.36 -10 1 C-9.34 1 -8.68 1 -8 1 C-7.67 1.66 -7.34 2.32 -7 3 C-4.69 3 -2.38 3 0 3 C0 2.01 0 1.02 0 0 Z " fill="#4C5461" transform="translate(743,194)"/>
<path d="M0 0 C0.66 0.33 1.32 0.66 2 1 C2 1.99 2 2.98 2 4 C0.02 4.66 -1.96 5.32 -4 6 C-4.33 4.68 -4.66 3.36 -5 2 C-2.625 0.9375 -2.625 0.9375 0 0 Z " fill="#958B84" transform="translate(756,194)"/>
<path d="M0 0 C0 0.66 0 1.32 0 2 C-2.97 2.66 -5.94 3.32 -9 4 C-9 3.01 -9 2.02 -9 1 C-5.57367167 -0.61798838 -3.61944899 -1.34053666 0 0 Z " fill="#DACF32" transform="translate(271,290)"/>
<path d="M0 0 C0 0.66 0 1.32 0 2 C-1.423125 2.433125 -1.423125 2.433125 -2.875 2.875 C-6.05211578 3.76825109 -6.05211578 3.76825109 -8 6 C-8 4.35 -8 2.7 -8 1 C-4.93251126 -0.86240388 -3.40254489 -1.2151946 0 0 Z " fill="#EBE9DD" transform="translate(821,256)"/>
<path d="M0 0 C1.65 0 3.3 0 5 0 C5 0.66 5 1.32 5 2 C4.01 2 3.02 2 2 2 C2 4.64 2 7.28 2 10 C1.34 10 0.68 10 0 10 C0 6.7 0 3.4 0 0 Z " fill="#43290D" transform="translate(247,288)"/>
<path d="M0 0 C1.65 0 3.3 0 5 0 C5 0.66 5 1.32 5 2 C4.01 2 3.02 2 2 2 C2 4.64 2 7.28 2 10 C1.34 10 0.68 10 0 10 C0 6.7 0 3.4 0 0 Z " fill="#43290D" transform="translate(247,256)"/>
<path d="M0 0 C0.66 0.66 1.32 1.32 2 2 C1.625 4.125 1.625 4.125 1 6 C-1.31 5.34 -3.62 4.68 -6 4 C-6 3.01 -6 2.02 -6 1 C-3.83125748 1.50603992 -2.00032373 1.99983813 0 3 C0 2.01 0 1.02 0 0 Z " fill="#DBCB31" transform="translate(204,256)"/>
<path d="M0 0 C1.65 0 3.3 0 5 0 C4.34 0.66 3.68 1.32 3 2 C2.54188325 3.97235333 2.54188325 3.97235333 2.375 6.125 C2.25125 7.40375 2.1275 8.6825 2 10 C1.34 10 0.68 10 0 10 C0 6.7 0 3.4 0 0 Z " fill="#4B435E" transform="translate(825,254)"/>
<path d="M0 0 C0.33 0.66 0.66 1.32 1 2 C1.66 2.33 2.32 2.66 3 3 C3 5.97 3 8.94 3 12 C2.01 11.67 1.02 11.34 0 11 C-0.19491452 9.54263913 -0.38069358 8.08405407 -0.5625 6.625 C-0.66691406 5.81289062 -0.77132812 5.00078125 -0.87890625 4.1640625 C-1 2 -1 2 0 0 Z " fill="#41445C" transform="translate(769,188)"/>
<path d="M0 0 C1.65 0 3.3 0 5 0 C4.34 0.66 3.68 1.32 3 2 C2.54188325 3.97235333 2.54188325 3.97235333 2.375 6.125 C2.25125 7.40375 2.1275 8.6825 2 10 C1.34 10 0.68 10 0 10 C0 6.7 0 3.4 0 0 Z " fill="#4B435E" transform="translate(762,190)"/>
<path d="M0 0 C1.98 0 3.96 0 6 0 C6 1.32 6 2.64 6 4 C4.02 4 2.04 4 0 4 C0 2.68 0 1.36 0 0 Z " fill="#151508" transform="translate(468,146)"/>
<path d="M0 0 C0.33 0 0.66 0 1 0 C1 2.97 1 5.94 1 9 C-0.32 7.68 -1.64 6.36 -3 5 C-1.125 1.125 -1.125 1.125 0 0 Z " fill="#EAE43A" transform="translate(267,257)"/>
<path d="M0 0 C1.65 0 3.3 0 5 0 C5 1.32 5 2.64 5 4 C3.35 4 1.7 4 0 4 C0 2.68 0 1.36 0 0 Z " fill="#000004" transform="translate(338,191)"/>
<path d="M0 0 C0 0.99 0 1.98 0 3 C-1.98 3 -3.96 3 -6 3 C-6 2.01 -6 1.02 -6 0 C-2.25 -1.125 -2.25 -1.125 0 0 Z " fill="#8A7C1E" transform="translate(349,293)"/>
<path d="M0 0 C0 0.99 0 1.98 0 3 C-1.98 3 -3.96 3 -6 3 C-6 2.01 -6 1.02 -6 0 C-2.25 -1.125 -2.25 -1.125 0 0 Z " fill="#8A7C1E" transform="translate(411,261)"/>
<path d="M0 0 C0.99 0.33 1.98 0.66 3 1 C2.34 1.66 1.68 2.32 1 3 C1.26676204 4.98491642 1.26676204 4.98491642 2 7 C2.33 7.99 2.66 8.98 3 10 C2.01 9.67 1.02 9.34 0 9 C-1.36623674 6.26752652 -1.128426 4.01801098 -1 1 C-0.67 0.67 -0.34 0.34 0 0 Z " fill="#353814" transform="translate(264,256)"/>
<path d="M0 0 C0.33 1.32 0.66 2.64 1 4 C-0.97746603 4.73080266 -2.98072489 5.39421747 -5 6 C-5.66 5.67 -6.32 5.34 -7 5 C-7 4.34 -7 3.68 -7 3 C-4.69 3 -2.38 3 0 3 C0 2.01 0 1.02 0 0 Z " fill="#DBD936" transform="translate(465,291)"/>
<path d="M0 0 C0.33 1.32 0.66 2.64 1 4 C-0.97746603 4.73080266 -2.98072489 5.39421747 -5 6 C-5.66 5.67 -6.32 5.34 -7 5 C-7 4.34 -7 3.68 -7 3 C-4.69 3 -2.38 3 0 3 C0 2.01 0 1.02 0 0 Z " fill="#DBD936" transform="translate(370,291)"/>
<path d="M0 0 C1.32 0.66 2.64 1.32 4 2 C4 2.66 4 3.32 4 4 C2.02 4 0.04 4 -2 4 C-1.34 2.68 -0.68 1.36 0 0 Z " fill="#C7B52A" transform="translate(257,289)"/>
<path d="M0 0 C1.32 0.66 2.64 1.32 4 2 C4 2.66 4 3.32 4 4 C2.02 4 0.04 4 -2 4 C-1.34 2.68 -0.68 1.36 0 0 Z " fill="#C7CDCD" transform="translate(779,255)"/>
<path d="M0 0 C1.32 0.66 2.64 1.32 4 2 C4 2.66 4 3.32 4 4 C2.02 4 0.04 4 -2 4 C-1.34 2.68 -0.68 1.36 0 0 Z " fill="#C7CDCD" transform="translate(747,255)"/>
</svg>
