<?xml version="1.0" encoding="UTF-8"?>
<svg version="1.1" xmlns="http://www.w3.org/2000/svg" width="1366" height="605">
<path d="M0 0 C450.78 0 901.56 0 1366 0 C1366 199.65 1366 399.3 1366 605 C915.22 605 464.44 605 0 605 C0 405.35 0 205.7 0 0 Z " fill="#222221" transform="translate(0,0)"/>
<path d="M0 0 C1.30072681 -0.00583219 2.60145362 -0.01166439 3.94159639 -0.01767331 C5.37292298 -0.01404063 6.8042491 -0.01021629 8.23557472 -0.00622082 C9.76550471 -0.00924285 11.29543318 -0.01313259 12.82535899 -0.01781338 C17.022178 -0.02809552 21.2189116 -0.02591101 25.41573763 -0.02163279 C29.94480911 -0.01916596 34.47386002 -0.0281792 39.00292397 -0.03567028 C47.87304854 -0.04842052 56.74314284 -0.05021056 65.61327504 -0.04787002 C72.8231798 -0.04608706 80.03307538 -0.04783603 87.24297905 -0.05209446 C88.78214718 -0.05298724 88.78214718 -0.05298724 90.35240961 -0.05389806 C92.43695429 -0.05510981 94.52149897 -0.05632395 96.60604365 -0.05754044 C116.15562762 -0.06841724 135.70519435 -0.06625283 155.25477929 -0.06015559 C173.13792137 -0.05498635 191.02100898 -0.06624183 208.90414028 -0.08525381 C227.26824203 -0.1046274 245.632318 -0.11288905 263.99643004 -0.10913056 C274.30579141 -0.10721779 284.61510642 -0.10971353 294.92445946 -0.1238451 C303.70094195 -0.13575376 312.47734953 -0.13716956 321.25383304 -0.12505493 C325.73088446 -0.11916264 330.20779883 -0.11807653 334.68484116 -0.13005733 C338.7856578 -0.14090373 342.88622279 -0.13782762 346.9870276 -0.12379565 C348.46812604 -0.1211453 349.94924412 -0.12352591 351.43032329 -0.13153151 C369.37822755 -0.22178756 369.37822755 -0.22178756 375.23843324 4.88192004 C381.1942134 11.04167029 381.66769811 18.16980392 381.62423611 26.33664227 C381.62744258 27.23348411 381.63064906 28.13032596 381.63395271 29.05434483 C381.64226202 32.06316729 381.6363251 35.07179119 381.63045692 38.08061695 C381.63347718 40.25814003 381.63736602 42.43566205 381.64204949 44.61318219 C381.65235446 50.60004041 381.6501413 56.58683892 381.6458689 62.5737021 C381.64340621 69.02916918 381.65241013 75.48462172 381.65990639 81.9400835 C381.67309186 94.58816948 381.67445108 107.23623652 381.67210612 119.88432799 C381.67027363 130.1629774 381.67203216 140.44162057 381.67633057 150.7202692 C381.67693297 152.1968791 381.67753416 153.673489 381.67813417 155.1500989 C381.67904142 157.37519641 381.67995009 159.60029393 381.68086652 161.82539144 C381.68929643 182.5139412 381.69363147 203.20248861 381.6894598 223.89103985 C381.68930342 224.67100099 381.68914705 225.45096213 381.68898593 226.25455845 C381.68818015 230.20772903 381.68733438 234.1608996 381.68647263 238.11407016 C381.686216 239.29174265 381.686216 239.29174265 381.68595418 240.49320649 C381.68560753 242.08089967 381.685259 243.66859285 381.6849086 245.25628603 C381.67955108 269.96223964 381.68748252 294.66815755 381.70594215 319.3741045 C381.72665663 347.13039803 381.73738594 374.88666946 381.73336667 402.64297116 C381.73297132 405.60233092 381.73260977 408.56169068 381.73226929 411.52105045 C381.73217856 412.2497216 381.73208782 412.97839274 381.73199434 413.72914483 C381.73082823 424.7305774 381.73747775 435.73198765 381.74808121 446.73341465 C381.76012759 459.2446955 381.76142015 471.75592365 381.74929104 484.26720534 C381.74338974 490.65204325 381.74233753 497.03678498 381.75429344 503.42161655 C381.76510936 509.26550553 381.76210003 515.10921753 381.74803176 520.95309807 C381.74537299 523.0681089 381.74778818 525.18313341 381.75576762 527.29813085 C381.76586002 530.17250995 381.7574631 533.04627227 381.74449062 535.92062664 C381.75179997 536.74207698 381.75910932 537.56352732 381.76664016 538.40987009 C381.70834776 544.63962696 380.93739673 551.27058903 376.74231805 556.14574962 C371.3268847 561.30641943 365.10301599 562.50324984 357.73952103 562.50895119 C356.43879422 562.51478338 355.13806741 562.52061557 353.79792464 562.5266245 C352.36659805 562.52299182 350.93527193 562.51916748 349.5039463 562.515172 C347.97401632 562.51819403 346.44408785 562.52208377 344.91416204 562.52676457 C340.71734303 562.53704671 336.52060942 562.5348622 332.3237834 562.53058398 C327.79471191 562.52811715 323.26566101 562.53713038 318.73659706 562.54462147 C309.86647249 562.5573717 300.99637818 562.55916175 292.12624599 562.5568212 C284.91634122 562.55503824 277.70644565 562.55678722 270.49654198 562.56104565 C268.95737385 562.56193843 268.95737385 562.56193843 267.38711142 562.56284925 C265.30256674 562.564061 263.21802205 562.56527513 261.13347737 562.56649163 C241.5838934 562.57736842 222.03432668 562.57520401 202.48474173 562.56910678 C184.60159966 562.56393754 166.71851205 562.57519302 148.83538075 562.594205 C130.471279 562.61357859 112.10720302 562.62184024 93.74309099 562.61808175 C83.43372962 562.61616897 73.12441461 562.61866472 62.81506157 562.63279629 C54.03857908 562.64470494 45.26217149 562.64612075 36.48568799 562.63400612 C32.00863657 562.62811382 27.53172219 562.62702772 23.05467987 562.63900852 C18.95386322 562.64985492 14.85329824 562.6467788 10.75249343 562.63274684 C9.27139499 562.63009648 7.79027691 562.6324771 6.30919774 562.6404827 C-11.63870653 562.73073874 -11.63870653 562.73073874 -17.49891222 557.62703115 C-23.45689487 551.46500297 -23.92819268 544.33623411 -23.88192177 536.1667223 C-23.88482865 535.26928126 -23.88773553 534.37184022 -23.8907305 533.44720399 C-23.89803635 530.43635971 -23.89108432 527.42571883 -23.88420677 524.41487598 C-23.88651097 522.23592779 -23.88968721 520.05698038 -23.89366126 517.87803459 C-23.90202353 511.88731228 -23.89787746 505.89665356 -23.89168882 499.905931 C-23.88717121 493.44641434 -23.89414466 486.98690876 -23.89964867 480.52739429 C-23.90842585 468.60363497 -23.90729744 456.67989582 -23.90182573 444.75613531 C-23.89679577 433.74102301 -23.89548068 422.72591815 -23.89787102 411.71080494 C-23.89802379 410.98031089 -23.89817656 410.24981684 -23.89833396 409.49718661 C-23.89895663 406.53191631 -23.89959343 403.56664602 -23.90025348 400.60137573 C-23.90637228 372.78158198 -23.90082329 344.96180115 -23.89005969 317.14200939 C-23.88056839 292.42265526 -23.88141765 267.70332173 -23.89098167 242.98396778 C-23.90168959 215.21524298 -23.90593835 187.44652961 -23.89975715 159.67780304 C-23.89911571 156.71791744 -23.89849003 153.75803185 -23.89787102 150.79814625 C-23.89771286 150.06934026 -23.89755471 149.34053427 -23.89739176 148.58964325 C-23.89511626 137.58111784 -23.8977784 126.57260069 -23.90283012 115.56407642 C-23.90854516 103.04762265 -23.90693361 90.53119402 -23.89626864 78.01474309 C-23.89100483 71.62612257 -23.88896727 65.23754391 -23.89556694 58.84892368 C-23.90151379 53.00393818 -23.89827214 47.15903347 -23.88761184 41.31405532 C-23.88537245 39.19638902 -23.88652612 37.07871593 -23.89136341 34.96105397 C-23.89742421 32.08801453 -23.89122772 29.21525368 -23.88192177 26.34222889 C-23.8866041 25.51552452 -23.89128643 24.68882016 -23.89611065 23.83706415 C-23.85839611 18.03129786 -23.42099617 12.74506822 -19.93102074 7.89119434 C-19.27488792 7.24795216 -18.61875511 6.60470997 -17.94273949 5.94197559 C-16.97787621 4.95777637 -16.97787621 4.95777637 -15.99352074 3.95369434 C-11.19077713 0.500482 -5.77714072 0.00447308 0 0 Z " fill="#0B907A" transform="translate(504.63023948669434,26.745524406433105)"/>
<path d="M0 0 C1.4194642 -0.00807831 1.4194642 -0.00807831 2.86760443 -0.01631981 C6.02878769 -0.03059201 9.18955177 -0.02349733 12.35075378 -0.01637268 C14.62124976 -0.02207668 16.89174286 -0.02904106 19.16223145 -0.03717041 C25.32349024 -0.05511518 31.48460672 -0.05393069 37.6458838 -0.04822803 C42.79241768 -0.04513756 47.93892418 -0.05122718 53.08545417 -0.05726677 C65.92376886 -0.07211829 78.7619837 -0.06849495 91.60029449 -0.05640347 C102.73498288 -0.04647629 113.86950497 -0.059404 125.00416771 -0.08333766 C136.45148844 -0.10775693 147.89870248 -0.11693013 159.34605426 -0.11068493 C165.7671199 -0.10731634 172.18804822 -0.10972395 178.60909462 -0.12693596 C184.64941768 -0.1424205 190.68942381 -0.13843238 196.72973442 -0.11963081 C198.94280563 -0.11594892 201.1559004 -0.11904169 203.36894989 -0.1295166 C206.39794089 -0.14275549 209.42588716 -0.13115271 212.45483398 -0.11352539 C213.32363074 -0.1231304 214.19242749 -0.1327354 215.08755141 -0.14263147 C224.1295898 -0.03490204 232.00616455 2.97595215 238.41789246 9.38768005 C244.03538112 16.87766493 245.34997099 23.14744473 244.41789246 32.38768005 C242.58726128 39.46282218 239.46613101 46.00025732 232.98039246 49.82518005 C226.17998495 53.30445831 220.95086064 54.53643792 213.30334473 54.53485107 C212.35904183 54.53852776 211.41473894 54.54220445 210.4418208 54.54599255 C207.26367323 54.55704431 204.08555834 54.56087577 200.90739441 54.56468201 C198.63424576 54.57094553 196.36109815 54.57759223 194.08795166 54.58459473 C187.90184259 54.60201471 181.71574126 54.61255923 175.52961373 54.62080026 C171.66592223 54.62594831 167.80223313 54.63202414 163.93854332 54.63831139 C153.23865278 54.65518217 142.53876564 54.66981691 131.83886433 54.67706013 C129.06255403 54.67896998 126.28624374 54.68089032 123.50993347 54.68284607 C122.81990583 54.68332981 122.12987819 54.68381355 121.41894063 54.68431195 C110.24386034 54.69261018 99.06888717 54.71794372 87.89385364 54.75042675 C76.41730499 54.78351385 64.94083623 54.80117773 53.46423501 54.80470437 C47.0219156 54.80705654 40.57976548 54.81603904 34.13749123 54.84116554 C28.07591438 54.86442491 22.01461854 54.86868789 15.95300865 54.85840416 C13.72941529 54.85790817 11.50580821 54.86424698 9.28225708 54.87796021 C6.24362057 54.89565018 3.20599566 54.88858665 0.1673584 54.87542725 C-0.70999252 54.88639649 -1.58734343 54.89736574 -2.49128073 54.90866739 C-11.12438567 54.81857082 -17.42235483 51.41054938 -23.58210754 45.38768005 C-29.42744112 37.61496622 -30.61664929 30.03538327 -29.58210754 20.38768005 C-27.35987164 13.05637843 -22.97750137 7.55907014 -16.58210754 3.38768005 C-10.88443469 0.45139001 -6.35732691 -0.0436417 0 0 Z " fill="#E9FDFA" transform="translate(541.5821075439453,58.61231994628906)"/>
<path d="M0 0 C4.5544625 2.21330897 7.39549294 5.36512936 10.3125 9.4375 C11.05113281 9.004375 11.78976562 8.57125 12.55078125 8.125 C20.87812972 3.5539523 26.86249322 2.00612863 36.1640625 4.0703125 C43.07433322 6.18337049 48.18105419 9.44879874 52.3125 15.4375 C53.762314 18.66292889 54.94698388 21.90287099 56.0859375 25.25 C57.58121096 29.13580619 59.67675604 32.15905426 62.11328125 35.50390625 C63.3125 37.4375 63.3125 37.4375 63.75 40.8125 C63.935625 41.67875 64.12125 42.545 64.3125 43.4375 C66.60848193 44.52051035 68.94727442 45.51546291 71.3125 46.4375 C74.20471266 49.55804524 76.14091806 51.9275789 76.625 56.1875 C76.2273114 60.32346145 74.93609816 62.24663737 72.3125 65.4375 C68.89413714 68.06700989 66.60662301 68.80556769 62.3125 68.4375 C62.993125 69.4275 63.67375 70.4175 64.375 71.4375 C66.39264723 75.00441206 66.75282907 77.49789545 65.99609375 81.5078125 C64.78400115 84.92937675 62.90659373 86.90517041 60.3125 89.4375 C56.5682002 90.68559993 53.05906719 90.61727295 49.15673828 90.64624023 C48.3255246 90.65602402 47.49431091 90.6658078 46.63790894 90.67588806 C43.88622639 90.70581213 41.13459221 90.72721636 38.3828125 90.74609375 C37.44300411 90.75266558 36.50319572 90.7592374 35.53490829 90.76600838 C30.56251276 90.79858516 25.59013855 90.82304294 20.61767578 90.8425293 C16.50082333 90.86036069 12.38465348 90.89521237 8.26806641 90.94506836 C3.29785608 91.00519186 -1.67172009 91.03599357 -6.64227676 91.04570198 C-8.5361583 91.05426909 -10.43002231 91.07311809 -12.32369614 91.1024456 C-14.97420191 91.14129191 -17.62222715 91.14240473 -20.27294922 91.13452148 C-21.05442322 91.15452209 -21.83589722 91.17452271 -22.64105225 91.19512939 C-25.56660249 91.15607743 -27.94947961 91.02262646 -30.29547501 89.16264534 C-32.49915665 86.64183577 -33.64156844 84.66256462 -34.3125 81.375 C-33.47443038 77.43607279 -31.77023388 75.94670199 -28.6875 73.4375 C-27.2025 72.9425 -27.2025 72.9425 -25.6875 72.4375 C-24.95426204 70.42241642 -24.95426204 70.42241642 -24.6875 68.4375 C-25.244375 68.51871094 -25.80125 68.59992188 -26.375 68.68359375 C-31.38203325 69.09802725 -34.21070232 68.58039989 -38.125 65.3125 C-41.87665515 61.57579168 -43.55040593 58.68603338 -43.77734375 53.30859375 C-43.5618118 47.7703596 -41.88580793 44.68922923 -38.16015625 40.65234375 C-36.6875 39.4375 -36.6875 39.4375 -34.6875 39.4375 C-35.326875 38.7775 -35.96625 38.1175 -36.625 37.4375 C-39.14772474 33.7680822 -39.93043648 30.8733401 -39.6875 26.4375 C-38.4375 23.625 -38.4375 23.625 -36.6875 21.4375 C-36.23375 20.839375 -35.78 20.24125 -35.3125 19.625 C-33.07151604 17.98735788 -31.39141348 18.21826377 -28.6875 18.4375 C-28.625625 17.261875 -28.56375 16.08625 -28.5 14.875 C-27.73356998 9.09100809 -25.27806205 5.42560576 -20.671875 1.890625 C-13.68450484 -2.45815783 -7.65762116 -2.95017231 0 0 Z " fill="#CBE2E8" transform="translate(667.6875,178.5625)"/>
<path d="M0 0 C5.79324378 2.24190598 10.8110218 6.68153964 14 12 C14.98595465 14.97208446 15.59207566 17.8983684 16 21 C17.0725 21.226875 18.145 21.45375 19.25 21.6875 C23.54651544 23.19128041 24.81355762 24.04758494 27 28 C28.67908654 35.64182692 28.67908654 35.64182692 27 39 C16.39505093 39.13904443 5.79031882 39.24564352 -4.81535625 39.31087303 C-9.74010612 39.34218093 -14.6642322 39.38464368 -19.58862305 39.45263672 C-24.34137407 39.51784888 -29.09352533 39.55371012 -33.84668922 39.56926346 C-35.65965022 39.58034652 -37.47257853 39.6019899 -39.28528404 39.63438034 C-41.82591941 39.67797066 -44.36407991 39.68393337 -46.9050293 39.68115234 C-47.65381348 39.702724 -48.40259766 39.72429565 -49.17407227 39.746521 C-52.03119353 39.71270305 -54.31143067 39.55218525 -56.58851051 37.72612381 C-58.79552664 35.20058851 -59.95259282 33.23229517 -60.625 29.9375 C-59.78693038 25.99857279 -58.08273388 24.50920199 -55 22 C-54.01 21.67 -53.02 21.34 -52 21 C-51.30611306 19.05050812 -50.61520536 17.09982369 -49.94921875 15.140625 C-48.35249417 11.53978108 -45.98078536 9.5460875 -43 7 C-40.08913331 6.0297111 -38.09776315 5.83532153 -35.0625 5.8125 C-34.20785156 5.79832031 -33.35320313 5.78414062 -32.47265625 5.76953125 C-29.82380905 6.01642222 -28.34852518 6.81878911 -26 8 C-23.63777768 8.23979762 -23.63777768 8.23979762 -21.25 8.125 C-20.05117188 8.09792969 -20.05117188 8.09792969 -18.828125 8.0703125 C-17.92320312 8.03550781 -17.92320312 8.03550781 -17 8 C-16.81050781 7.07960937 -16.81050781 7.07960937 -16.6171875 6.140625 C-14.44336608 -1.39895816 -6.3882401 -1.0228362 0 0 Z " fill="#EFF4F6" transform="translate(694,230)"/>
<path d="M0 0 C0.82564453 0.58974609 0.82564453 0.58974609 1.66796875 1.19140625 C2.71984375 1.93390625 3.77171875 2.67640625 4.85546875 3.44140625 C9.43563618 7.91979218 13.42796425 13.32342668 13.8359375 19.8984375 C13.89807066 29.77760992 12.09649861 36.51681773 5.66796875 44.19140625 C-1.27649694 49.9185154 -8.47180988 51.67287694 -17.36328125 51.5078125 C-21.70880131 51.04467155 -24.75396099 49.62771027 -28.33203125 47.19140625 C-29.90984375 46.13953125 -29.90984375 46.13953125 -31.51953125 45.06640625 C-36.43896477 40.76526219 -39.91981719 33.06032968 -40.60546875 26.625 C-40.89884507 17.97039862 -39.35043864 11.64696256 -33.46484375 5.12109375 C-24.44305732 -3.26881659 -11.21674054 -6.86397556 0 0 Z " fill="#E6FDF8" transform="translate(840.33203125,61.80859375)"/>
<path d="M0 0 C5.8671602 4.36099324 10.28777477 9.81935542 12 17 C12.87960475 24.98058057 12.98604217 32.38911342 8 39 C6.41443343 40.82811783 4.81521339 42.38647698 3 44 C2.16855469 43.47599609 2.16855469 43.47599609 1.3203125 42.94140625 C0.59585938 42.48636719 -0.12859375 42.03132813 -0.875 41.5625 C-1.59429688 41.11003906 -2.31359375 40.65757812 -3.0546875 40.19140625 C-7.61262377 37.3998991 -11.87217764 37.94628225 -17.05859375 38.0390625 C-24.80376036 38.12464445 -24.80376036 38.12464445 -27 37 C-28.125 34.671875 -28.125 34.671875 -29 31.75 C-31.61741097 23.93819043 -34.82093097 20.72759354 -42 17 C-39.56912346 8.54717929 -36.81124737 3.59485139 -29 -1 C-19.60511338 -6.15797697 -9.30970578 -5.00749326 0 0 Z " fill="#F8B13F" transform="translate(712,186)"/>
<path d="M0 0 C5.14994493 3.70796035 6.879082 8.15908359 8.125 14.25 C8.4245485 17.54643485 8.44997508 20.81660921 8.4375 24.125 C8.45361328 24.97191406 8.46972656 25.81882812 8.48632812 26.69140625 C8.49180288 33.8414388 7.1132489 39.98359109 3.375 46.125 C-0.98484932 50.24263547 -5.09067173 51.42277887 -10.9375 51.625 C-16.33321864 51.44486979 -19.7492025 49.82916386 -24.0625 46.625 C-29.04431809 40.09710043 -29.37300739 32.23896768 -29.3125 24.3125 C-29.33248047 23.38759766 -29.35246094 22.46269531 -29.37304688 21.50976562 C-29.36766316 13.82720208 -27.90794505 6.52885951 -22.5625 0.75 C-15.16781998 -3.37726327 -7.57282457 -3.93020009 0 0 Z " fill="#F6F8F9" transform="translate(677.875,326.75)"/>
<path d="M0 0 C4.5544625 2.21330897 7.39549294 5.36512936 10.3125 9.4375 C9.549375 10.448125 8.78625 11.45875 8 12.5 C5.48910085 15.99528575 3.86528725 19.4329434 2.3125 23.4375 C1.3225 23.39109375 0.3325 23.3446875 -0.6875 23.296875 C-11.39578872 22.76540452 -11.39578872 22.76540452 -20.6875 27.4375 C-22.40340856 29.39347833 -23.91547981 31.37382517 -25.36328125 33.53515625 C-26.68312714 35.43121804 -27.89978156 36.97147897 -29.6875 38.4375 C-32.72591483 38.31089938 -34.86713033 37.91840636 -37.5 36.375 C-39.40450964 33.26764216 -39.81353501 30.01549389 -39.6875 26.4375 C-38.4375 23.625 -38.4375 23.625 -36.6875 21.4375 C-36.23375 20.839375 -35.78 20.24125 -35.3125 19.625 C-33.07151604 17.98735788 -31.39141348 18.21826377 -28.6875 18.4375 C-28.625625 17.261875 -28.56375 16.08625 -28.5 14.875 C-27.73356998 9.09100809 -25.27806205 5.42560576 -20.671875 1.890625 C-13.68450484 -2.45815783 -7.65762116 -2.95017231 0 0 Z " fill="#EDF3F5" transform="translate(667.6875,178.5625)"/>
<path d="M0 0 C2.84131493 2.53904738 4.7022243 4.39201123 5.41015625 8.21484375 C5.58892047 12.88603057 5.11716506 16.32619832 2 20 C-0.1875 21.3125 -0.1875 21.3125 -2 22 C-2 22.66 -2 23.32 -2 24 C-0.8553125 24.3403125 -0.8553125 24.3403125 0.3125 24.6875 C3.77448129 26.37823505 4.57905405 27.41024181 6 31 C6.54998001 35.58065543 6.58614842 39.58090382 4.8125 43.875 C2.25864611 46.86917353 -0.4707624 49.2353812 -4 51 C-11.92444531 51.62696649 -18.61617555 52.10705956 -25 47 C-28.34182284 43.76957126 -28.56437931 40.53045523 -29 36 C-23.72928898 35.4729289 -23.72928898 35.4729289 -21 36 C-18.5625 38.9375 -18.5625 38.9375 -17 42 C-15.43058802 43.56941198 -13.85865006 43.2449847 -11.6875 43.3125 C-8.48365541 43.26148337 -7.23159897 43.14121889 -4.4375 41.4375 C-2.46025088 38.08477323 -2.51313061 35.82540234 -3 32 C-4.54262813 29.89641619 -5.68108317 29.15945841 -8 28 C-9.53668865 27.77532169 -11.07968054 27.59203195 -12.625 27.4375 C-13.44226563 27.35371094 -14.25953125 27.26992188 -15.1015625 27.18359375 C-16.04128906 27.09271484 -16.04128906 27.09271484 -17 27 C-17 24.69 -17 22.38 -17 20 C-16.22914063 19.80664062 -15.45828125 19.61328125 -14.6640625 19.4140625 C-13.66117188 19.15367187 -12.65828125 18.89328125 -11.625 18.625 C-10.62726562 18.36976563 -9.62953125 18.11453125 -8.6015625 17.8515625 C-5.87458985 17.17595681 -5.87458985 17.17595681 -4 15 C-3.50883299 10.90499352 -3.50883299 10.90499352 -5.2421875 7.33984375 C-8.02871068 5.21589386 -10.46830808 5.47506902 -13.8671875 5.5625 C-17.07653641 6.22082798 -18.04982023 8.48363901 -20 11 C-22.79476497 11.46127189 -25.14581832 11.23784847 -28 11 C-27.82071819 6.42831393 -27.50606013 4.51756149 -24.25 1.1875 C-16.36921169 -4.11687675 -8.44526157 -4.87226629 0 0 Z " fill="#F6F8FA" transform="translate(634,327)"/>
<path d="M0 0 C9.59276164 -0.48502727 16.2868013 -0.54699938 23.89453125 5.5078125 C29.54917707 10.62675503 32.74206279 16.00831598 33.23828125 23.6875 C33.24870863 27.13548628 33.17631665 30.5569276 33 34 C32.67 33.34 32.34 32.68 32 32 C30.82244141 32.05220703 30.82244141 32.05220703 29.62109375 32.10546875 C19.77971343 32.35905033 14.00242898 30.44141654 6.7265625 23.76953125 C4.69031782 21.6826108 3.27502062 19.62087572 2 17 C1.649375 16.43152344 1.29875 15.86304688 0.9375 15.27734375 C-0.3341237 12.18835784 -0.1915268 9.57633999 -0.125 6.25 C-0.09792969 4.49429688 -0.09792969 4.49429688 -0.0703125 2.703125 C-0.04710937 1.81109375 -0.02390625 0.9190625 0 0 Z " fill="#F4CA43" transform="translate(691,183)"/>
<path d="M0 0 C4.26410459 3.19807844 7.42122775 6.50433818 8.5 11.875 C5.12059788 12.16521583 1.86864992 12.33022296 -1.5 11.875 C-2.85827971 10.22860035 -4.19254251 8.56204193 -5.5 6.875 C-8.60356825 6.17307148 -11.38810778 6.24575709 -14.5 6.875 C-17.53215675 9.07331364 -18.31654398 10.32463194 -19.5 13.875 C-19.90134564 18.86094776 -20.15982444 23.37539899 -18.125 28 C-16.28705055 30.12071091 -15.2791653 30.76784564 -12.51171875 31.1484375 C-10.0861859 31.25442717 -7.89901682 31.26993447 -5.5 30.875 C-4.675 30.05 -3.85 29.225 -3 28.375 C-0.5 25.875 -0.5 25.875 1.80078125 25.54296875 C4.05276018 25.56048025 6.25921616 25.65531531 8.5 25.875 C7.59092963 30.68461649 5.01697406 33.58825675 1.5 36.875 C-3.72544318 39.9313913 -8.56926076 40.78349534 -14.5 39.875 C-20.41739284 37.99460766 -23.99862169 34.92110404 -27.5 29.875 C-30.46198936 23.75286002 -30.82319867 16.16035932 -28.8125 9.6484375 C-22.99332401 -1.35950374 -11.27974686 -3.62563292 0 0 Z " fill="#F4F7F9" transform="translate(753.5,339.125)"/>
<path d="M0 0 C3.69055333 1.45905597 4.78250511 2.58020865 6.62109375 6.12890625 C8.19239774 10.00532372 8.4610242 13.72433243 8.375 17.875 C8.36629883 18.57391357 8.35759766 19.27282715 8.34863281 19.99291992 C8.16770799 26.38534985 7.43245245 32.02700257 3.3125 37.0625 C-0.16608494 38.47273714 -3.30785949 38.66853573 -7 38 C-11.21905579 35.2243054 -11.8597898 31.75574854 -13 27 C-13.55430254 19.31312806 -13.87129114 11.24659192 -11 4 C-7.58314543 0.20349492 -5.04934271 -0.73636248 0 0 Z " fill="#083A5F" transform="translate(670,332)"/>
<path d="M0 0 C2.99993213 1.80749049 5.40611434 3.81222868 7 7 C7.41654299 11.52589985 7.51073318 15.66641891 5.875 19.9375 C2.32900952 23.83808953 -1.32597985 25.17618585 -6.5 25.4375 C-10.98528507 25.27137833 -13.58695604 24.0067292 -17 21 C-19.96433324 17.44280012 -20.49334356 14.42149131 -20.2734375 9.921875 C-19.83921285 6.86989601 -19.05731231 5.31447635 -17 3 C-11.62359232 -0.96289204 -6.41009148 -2.08150572 0 0 Z " fill="#F3F5F7" transform="translate(712,328)"/>
<path d="M0 0 C7.46007858 4.26447623 11.00020904 8.71419632 13.56640625 16.8359375 C14.08203125 18.82421875 14.08203125 18.82421875 14.08203125 20.82421875 C15.40203125 20.82421875 16.72203125 20.82421875 18.08203125 20.82421875 C18.08203125 21.48421875 18.08203125 22.14421875 18.08203125 22.82421875 C16.4375 24.33203125 16.4375 24.33203125 14.26953125 25.94921875 C13.56183594 26.48804688 12.85414063 27.026875 12.125 27.58203125 C9.24909359 29.33067033 7.29622081 28.85481726 4.01953125 28.38671875 C1.08203125 26.82421875 1.08203125 26.82421875 0.4609375 24.93359375 C0.20108543 23.35840802 -0.05661677 21.78286657 -0.3125 20.20703125 C-1.68528075 14.80447474 -5.79549724 11.66057007 -10.10546875 8.44921875 C-14.6998776 6.02784111 -19.82074016 6.00856698 -24.91796875 5.82421875 C-23.91796875 2.82421875 -23.91796875 2.82421875 -20.66796875 0.63671875 C-14.12115493 -2.37857005 -6.6993793 -2.69948215 0 0 Z " fill="#A6D5DB" transform="translate(670.91796875,202.17578125)"/>
<path d="M0 0 C2.375 1 2.375 1 4 2 C4.33 1.67 4.66 1.34 5 1 C6.65 1 8.3 1 10 1 C10 8.26 10 15.52 10 23 C7.33333333 23 4.66666667 23 2 23 C0.906875 23.2475 -0.18625 23.495 -1.3125 23.75 C-5.93897693 24.06365945 -7.50087576 22.92949937 -11 20 C-13.82792793 15.7581081 -13.78122286 11.98126257 -13 7 C-9.89822537 1.23461964 -6.34713147 -0.38082789 0 0 Z " fill="#E9F2EE" transform="translate(665,420)"/>
<path d="M0 0 C2.375 1.5 2.375 1.5 4 3 C4.33 2.34 4.66 1.68 5 1 C6.32 1 7.64 1 9 1 C9 8.26 9 15.52 9 23 C7.68 23 6.36 23 5 23 C4.67 22.34 4.34 21.68 4 21 C2.700625 21.7734375 2.700625 21.7734375 1.375 22.5625 C-2.51399796 24.21892506 -4.02899629 24.35183105 -8 23 C-10.52726683 20.80970208 -12.50012869 18.99974261 -14 16 C-14.34717992 10.70550628 -14.52421718 7.25336556 -11 3 C-7.33579969 0.12805922 -4.62314506 -0.59018873 0 0 Z " fill="#EEF6F5" transform="translate(739,420)"/>
<path d="M0 0 C6.84606613 6.48574686 6.84606613 6.48574686 7.1875 12.0625 C7.455625 13.031875 7.72375 14.00125 8 15 C10.29598193 16.08301035 12.63477442 17.07796291 15 18 C17.89221266 21.12054524 19.82841806 23.4900789 20.3125 27.75 C19.9148114 31.88596145 18.62359816 33.80913737 16 37 C12.56397188 39.57702109 11.39927132 40 7 40 C7.03480469 39.40832031 7.06960938 38.81664062 7.10546875 38.20703125 C7.27430004 33.27876563 7.25919114 29.98345584 4 26 C1.08235 24.0549 -0.62537285 23.54723683 -4 23 C-4.22914732 19.18087805 -4.3248029 16.63548394 -2.5625 13.1875 C-0.44602152 8.86988389 -0.27229991 4.75116387 0 0 Z " fill="#A1D2DA" transform="translate(724,207)"/>
<path d="M0 0 C1.65 0 3.3 0 5 0 C5.47050781 1.01320313 5.94101562 2.02640625 6.42578125 3.0703125 C7.0546429 4.42189575 7.68355166 5.77345709 8.3125 7.125 C8.62123047 7.79015625 8.92996094 8.4553125 9.24804688 9.140625 C11.10407651 13.12620443 13.01400162 17.07688936 15 21 C15.24645264 20.39937744 15.49290527 19.79875488 15.74682617 19.17993164 C16.87384173 16.46536278 18.03012808 13.76425727 19.1875 11.0625 C19.76854492 9.64420898 19.76854492 9.64420898 20.36132812 8.19726562 C20.75126953 7.29814453 21.14121094 6.39902344 21.54296875 5.47265625 C21.89383545 4.64000244 22.24470215 3.80734863 22.60620117 2.94946289 C24 1 24 1 29 0 C29 9.24 29 18.48 29 28 C27.68 28 26.36 28 25 28 C24.67 22.72 24.34 17.44 24 12 C21.69 17.28 19.38 22.56 17 28 C15.68 28 14.36 28 13 28 C10.69 23.05 8.38 18.1 6 13 C5.67 17.95 5.34 22.9 5 28 C3.35 28 1.7 28 0 28 C0 18.76 0 9.52 0 0 Z " fill="#E2EFED" transform="translate(618,415)"/>
<path d="M0 0 C1.35889896 -0.01649502 2.71771348 -0.04370022 4.07617188 -0.08203125 C16.8025623 -0.43920877 16.8025623 -0.43920877 20.75073242 2.68603516 C22.86401367 5.35009766 22.86401367 5.35009766 23.48901367 8.35009766 C22.70280449 12.12390172 21.73808161 13.77080592 18.86401367 16.35009766 C14.74947908 17.62186289 12.83549662 17.85695833 8.98901367 15.85009766 C6.31713529 12.70671132 6.09817922 10.40896721 5.86401367 6.35009766 C4.87401367 6.35009766 3.88401367 6.35009766 2.86401367 6.35009766 C2.86401367 7.01009766 2.86401367 7.67009766 2.86401367 8.35009766 C-2.08598633 8.35009766 -7.03598633 8.35009766 -12.13598633 8.35009766 C-12.46598633 6.04009766 -12.79598633 3.73009766 -13.13598633 1.35009766 C-10.52299402 -1.26289465 -3.53989373 0.03146572 0 0 Z " fill="#BAE8DC" transform="translate(680.135986328125,530.64990234375)"/>
<path d="M0 0 C3.3470103 2.07514639 4.27919125 3.75389145 5.9609375 7.234375 C7.80528054 9.93280978 10.36941446 10.76089861 13.28515625 12.05859375 C15.86966271 13.29323059 16.95649775 14.30836994 18.125 16.9375 C18.72658155 21.59975704 18.85935402 24.5471551 16 28.375 C12.87482341 31.16048348 11.24452267 31.74589429 7.125 31.9375 C7.6509375 30.9165625 7.6509375 30.9165625 8.1875 29.875 C9.40297322 26.06651724 9.15757025 23.79242894 8.125 19.9375 C5.78509983 17.01262478 4.09393133 15.29198707 0.5625 14 C-2.86320356 12.5067446 -3.86085023 10.02166684 -5.875 6.9375 C-9.96771523 3.64059051 -13.78596969 3.36877376 -18.875 2.9375 C-14.99042544 -2.88936185 -6.1866193 -2.18272499 0 0 Z " fill="#DDE9ED" transform="translate(667.875,237.0625)"/>
<path d="M0 0 C3.375 2.125 3.375 2.125 6 5 C6.82250286 8.94801375 6.37037221 10.4252845 4.1875 13.8125 C1.48963977 16.51036023 -0.12924048 16.96604016 -3.91088867 17.11352539 C-5.0682251 17.10828857 -6.22556152 17.10305176 -7.41796875 17.09765625 C-8.67158203 17.09443359 -9.92519531 17.09121094 -11.21679688 17.08789062 C-12.52712891 17.07951172 -13.83746094 17.07113281 -15.1875 17.0625 C-16.52278481 17.05748317 -17.85807141 17.05292059 -19.19335938 17.04882812 C-22.46228473 17.03702695 -25.73111991 17.02056297 -29 17 C-29.5625 15.0625 -29.5625 15.0625 -30 13 C-28.16780354 11.16780354 -25.24286259 11.76098672 -22.77734375 11.68359375 C-21.51728516 11.64169922 -20.25722656 11.59980469 -18.95898438 11.55664062 C-17.61849264 11.51682404 -16.2779978 11.47711186 -14.9375 11.4375 C-13.59308477 11.39431958 -12.2486834 11.35070544 -10.90429688 11.30664062 C-7.6029766 11.20014642 -4.30157764 11.0981354 -1 11 C-1 9.35 -1 7.7 -1 6 C-2.94999129 6.19471111 -2.94999129 6.19471111 -5 7 C-6.28436734 8.9837767 -6.28436734 8.9837767 -7 11 C-8.32 10.67 -9.64 10.34 -11 10 C-10.51644989 3.59296098 -10.51644989 3.59296098 -8.3125 1.0625 C-5.19482375 -0.36994585 -3.40494948 -0.54479192 0 0 Z " fill="#BBE7DD" transform="translate(697,513)"/>
<path d="M0 0 C4.65211706 2.26076566 7.23558936 5.33495249 10.3125 9.4375 C8.3325 12.0775 6.3525 14.7175 4.3125 17.4375 C3.838125 16.73625 3.36375 16.035 2.875 15.3125 C-0.92420114 11.04998165 -4.72802259 6.96210878 -10.66650391 6.17529297 C-15.35508015 5.92262787 -20.00629419 6.12733422 -24.6875 6.4375 C-17.21775557 -1.22024135 -10.23965944 -3.99932827 0 0 Z " fill="#D6E5E9" transform="translate(667.6875,178.5625)"/>
<path d="M0 0 C3.27385239 1.1736452 4.32139188 2.76124947 6.0703125 5.7421875 C6.53420613 8.70158358 6.45046331 11.56872746 6.3203125 14.5546875 C6.30226563 15.34294922 6.28421875 16.13121094 6.265625 16.94335938 C6.21875298 18.87683011 6.1470166 20.80967035 6.0703125 22.7421875 C4.7503125 22.7421875 3.4303125 22.7421875 2.0703125 22.7421875 C2.02132812 21.69417969 1.97234375 20.64617187 1.921875 19.56640625 C1.84683107 18.18747396 1.77128393 16.808569 1.6953125 15.4296875 C1.664375 14.73939453 1.6334375 14.04910156 1.6015625 13.33789062 C1.38906331 9.67227961 1.15097389 7.86317958 -0.9296875 4.7421875 C-4.00889882 4.48558656 -6.14105743 4.34787246 -8.9296875 5.7421875 C-9.2596875 11.3521875 -9.5896875 16.9621875 -9.9296875 22.7421875 C-11.2496875 22.7421875 -12.5696875 22.7421875 -13.9296875 22.7421875 C-13.9296875 15.4821875 -13.9296875 8.2221875 -13.9296875 0.7421875 C-11.9496875 0.7421875 -9.9696875 0.7421875 -7.9296875 0.7421875 C-5.24254938 -0.60138156 -2.93286975 -0.18957713 0 0 Z " fill="#F3F3EC" transform="translate(694.9296875,420.2578125)"/>
<path d="M0 0 C2.9375 2 2.9375 2 5 5 C5.44389331 8.93381314 4.82880319 11.94805748 2.375 15.0625 C-1.11755918 16.44114178 -3.4178041 15.97696252 -7 15 C-9.81972931 12.63506574 -9.97850831 11.1719335 -10.4375 7.5 C-10 4 -10 4 -8.375 1.5625 C-5.24316508 -0.49791771 -3.68455227 -0.6767545 0 0 Z " fill="#0A728D" transform="translate(739,424)"/>
<path d="M0 0 C2.875 2 2.875 2 5 5 C5.32868368 7.72106977 5.13129887 10.24272375 5 13 C5.86265968 15.40557853 5.86265968 15.40557853 7 17 C6.44441406 16.67773438 5.88882813 16.35546875 5.31640625 16.0234375 C2.01967406 14.56687117 -1.09519542 14.65700105 -4.66015625 14.5390625 C-7 14 -7 14 -8.78125 12.1484375 C-10.45480818 9.19825481 -10.4870729 7.33992843 -10 4 C-7.2247536 -0.05612936 -4.80517165 -0.88258255 0 0 Z " fill="#383D3D" transform="translate(828,74)"/>
<path d="M0 0 C2.375 0.9375 2.375 0.9375 4 3 C4.63249927 6.12111787 4.65303287 8.88120509 4 12 C1.58437817 14.82972843 0.04711168 15.77014622 -3.5625 16.5625 C-6 16 -6 16 -8.3125 13.9375 C-10.42157824 10.26614158 -10.60708795 8.17372967 -10 4 C-7.24846472 -0.12730291 -4.82246105 -0.70327557 0 0 Z " fill="#076A89" transform="translate(666,424)"/>
<path d="M0 0 C0.33 1.32 0.66 2.64 1 4 C-1.64 3.67 -4.28 3.34 -7 3 C-7 3.99 -7 4.98 -7 6 C-6.071875 5.938125 -5.14375 5.87625 -4.1875 5.8125 C-1 6 -1 6 0.875 7.125 C2.52854531 9.88090884 2.39365568 11.85075452 2 15 C0.9375 16.875 0.9375 16.875 -1 18 C-4.5 18.5 -4.5 18.5 -8 18 C-11.04793608 15.05038444 -11.24523291 12.0051506 -11.4375 7.9375 C-11.31959608 4.64601569 -11.12053341 3.20731747 -9.4375 0.3125 C-6.01189454 -1.53205679 -3.70353462 -0.85466184 0 0 Z " fill="#E8F6EB" transform="translate(759,507)"/>
<path d="M0 0 C0.33 0 0.66 0 1 0 C1 1.65 1 3.3 1 5 C2.0828125 4.8453125 2.0828125 4.8453125 3.1875 4.6875 C7.16642587 5.12960287 8.44514042 7.03083887 11 10 C13.46324069 13.69486103 13.38991688 15.63293092 13 20 C11.5 21.9375 11.5 21.9375 10 23 C9.21625 22.525625 8.4325 22.05125 7.625 21.5625 C6.11051322 20.66101977 4.5764103 19.78820515 3 19 C2 16.890625 2 16.890625 1 14.25 C0.67 13.38890625 0.34 12.5278125 0 11.640625 C-0.33 10.76921875 -0.66 9.8978125 -1 9 C-1.39832031 8.11441406 -1.79664063 7.22882813 -2.20703125 6.31640625 C-2.46871094 5.55199219 -2.73039063 4.78757813 -3 4 C-1.6875 1.6875 -1.6875 1.6875 0 0 Z " fill="#C2DFE6" transform="translate(719,225)"/>
<path d="M0 0 C2.97 0.33 5.94 0.66 9 1 C9 1.66 9 2.32 9 3 C10.32 3 11.64 3 13 3 C13.99 4.485 13.99 4.485 15 6 C15.66 5.01 16.32 4.02 17 3 C17.66 3 18.32 3 19 3 C17.66666667 7 16.33333333 11 15 15 C14.34 15 13.68 15 13 15 C13.020625 14.113125 13.04125 13.22625 13.0625 12.3125 C13.00713781 9.37830369 12.6694266 6.84506304 12 4 C11.01 4 10.02 4 9 4 C9 5.98 9 7.96 9 10 C9.66 10.33 10.32 10.66 11 11 C10.443125 10.814375 9.88625 10.62875 9.3125 10.4375 C6.5527914 9.91539297 4.75047422 10.437403 2 11 C-0.67340575 11.08961137 -3.3238952 11.04535771 -6 11 C-6.625 8.125 -6.625 8.125 -7 5 C-6.34 4.34 -5.68 3.68 -5 3 C-3.68 3 -2.36 3 -1 3 C-0.67 2.01 -0.34 1.02 0 0 Z " fill="#D9F7EE" transform="translate(620,540)"/>
<path d="M0 0 C3.94021739 1.6590389 3.94021739 1.6590389 5.375 4 C6.13825088 10.86925795 6.13825088 10.86925795 3.6875 14.5 C1.375 16 1.375 16 -1.125 16.5625 C-3.625 16 -3.625 16 -5.9375 13.875 C-7.93986677 10.46356032 -8.35362574 8.88600392 -7.625 5 C-3.90159574 0 -3.90159574 0 0 0 Z " fill="#0E3A5D" transform="translate(706.625,332)"/>
<path d="M0 0 C1.60875 -0.020625 3.2175 -0.04125 4.875 -0.0625 C5.77992188 -0.07410156 6.68484375 -0.08570313 7.6171875 -0.09765625 C10 0 10 0 12 1 C12.66 0.67 13.32 0.34 14 0 C17 -0.1875 17 -0.1875 20 0 C22 2 22 2 22.1953125 4.8203125 C22.17210937 5.91085937 22.14890625 7.00140625 22.125 8.125 C22.10695313 9.22070312 22.08890625 10.31640625 22.0703125 11.4453125 C22.04710937 12.28835938 22.02390625 13.13140625 22 14 C21.34 14 20.68 14 20 14 C19.505 9.05 19.505 9.05 19 4 C16.525 3.505 16.525 3.505 14 3 C13.67 6.63 13.34 10.26 13 14 C12.01 14 11.02 14 10 14 C9.67 10.7 9.34 7.4 9 4 C7.35 3.67 5.7 3.34 4 3 C3.67 6.63 3.34 10.26 3 14 C2.01 14 1.02 14 0 14 C0 9.38 0 4.76 0 0 Z " fill="#E2F4DE" transform="translate(784,511)"/>
<path d="M0 0 C1.32 0 2.64 0 4 0 C4 9.9 4 19.8 4 30 C2.68 30 1.36 30 0 30 C0 20.1 0 10.2 0 0 Z " fill="#F4F0E0" transform="translate(717,413)"/>
<path d="M0 0 C3.63 0 7.26 0 11 0 C11 0.66 11 1.32 11 2 C8.36 2 5.72 2 3 2 C3 3.32 3 4.64 3 6 C4.11375 5.6596875 4.11375 5.6596875 5.25 5.3125 C8 5 8 5 10.3125 5.9375 C13.00839523 9.23248305 12.39786754 11.82239086 12 16 C10 18 10 18 8.125 18.265625 C7.42375 18.26046875 6.7225 18.2553125 6 18.25 C4.948125 18.25773438 4.948125 18.25773438 3.875 18.265625 C2 18 2 18 0 16 C0 15.01 0 14.02 0 13 C0.99 13 1.98 13 3 13 C3.33 13.66 3.66 14.32 4 15 C5.65 14.67 7.3 14.34 9 14 C8.67 12.35 8.34 10.7 8 9 C5.36 9.33 2.72 9.66 0 10 C0 6.7 0 3.4 0 0 Z " fill="#E4F6EB" transform="translate(591,507)"/>
<path d="M0 0 C6.46153846 0.46153846 6.46153846 0.46153846 9 3 C8.625 5.5 8.625 5.5 8 8 C8 8.66 8 9.32 8 10 C8.33 10.33 8.66 10.66 9 11 C9.1875 13.9375 9.1875 13.9375 9 17 C7 19 7 19 5.125 19.265625 C4.42375 19.26046875 3.7225 19.2553125 3 19.25 C1.948125 19.25773438 1.948125 19.25773438 0.875 19.265625 C-1 19 -1 19 -3 17 C-3 16.01 -3 15.02 -3 14 C-2.01 14 -1.02 14 0 14 C0.33 14.66 0.66 15.32 1 16 C2.32 16 3.64 16 5 16 C5 14.68 5 13.36 5 12 C3.68 11.67 2.36 11.34 1 11 C1 10.01 1 9.02 1 8 C2.32 7.67 3.64 7.34 5 7 C5.33 5.68 5.66 4.36 6 3 C3.52733235 3.34444881 3.52733235 3.34444881 1 4 C0.67 4.66 0.34 5.32 0 6 C-0.99 6 -1.98 6 -3 6 C-2.42655063 3.13275314 -2.1385485 2.1385485 0 0 Z " fill="#C9F2F2" transform="translate(716,506)"/>
<path d="M0 0 C1.32 0 2.64 0 4 0 C4 9.24 4 18.48 4 28 C3.01 28 2.02 28 1 28 C0.67 21.73 0.34 15.46 0 9 C-1.32 9.33 -2.64 9.66 -4 10 C-3.52449439 8.51965236 -3.04448784 7.04074979 -2.5625 5.5625 C-2.29566406 4.73878906 -2.02882813 3.91507812 -1.75390625 3.06640625 C-1 1 -1 1 0 0 Z " fill="#F9FDFC" transform="translate(643,415)"/>
<path d="M0 0 C4.07502794 -0.07420211 8.14979392 -0.1286257 12.2253418 -0.16479492 C13.61147919 -0.17987397 14.99756894 -0.2003405 16.38354492 -0.22631836 C18.37658146 -0.26273716 20.36996723 -0.27813018 22.36328125 -0.29296875 C23.56251221 -0.3086792 24.76174316 -0.32438965 25.99731445 -0.34057617 C29 0 29 0 30.88745117 1.29956055 C32.78649432 4.20209194 32.41794556 6.65643549 32 10 C29.76679398 12.66266871 28.3799883 12.95347082 24.9375 13.375 C22 13 22 13 20.0625 11.75 C19 10 19 10 19.3125 7.8125 C19.6528125 6.9153125 19.6528125 6.9153125 20 6 C20.391875 6.66 20.78375 7.32 21.1875 8 C22.84916802 10.27329279 22.84916802 10.27329279 25.625 10.3125 C27.95137906 10.25156054 27.95137906 10.25156054 29 9 C29.16666667 6.5 29.16666667 6.5 29 4 C27.16780354 2.16780354 24.24286259 2.76098672 21.77734375 2.68359375 C19.88725586 2.62075195 19.88725586 2.62075195 17.95898438 2.55664062 C16.61849264 2.51682404 15.2779978 2.47711186 13.9375 2.4375 C12.59308477 2.39431958 11.2486834 2.35070544 9.90429688 2.30664062 C6.6029766 2.20014642 3.30157764 2.0981354 0 2 C0 1.34 0 0.68 0 0 Z " fill="#28B891" transform="translate(669,533)"/>
<path d="M0 0 C0.99 0 1.98 0 3 0 C3.33 2.64 3.66 5.28 4 8 C4.4125 7.484375 4.825 6.96875 5.25 6.4375 C5.8275 5.963125 6.405 5.48875 7 5 C9.1875 5.3125 9.1875 5.3125 11 6 C9.35 7.65 7.7 9.3 6 11 C7.37154504 13.95409701 8.98863724 16.44008376 11 19 C6.25 18.25 6.25 18.25 4 16 C3.67 16.99 3.34 17.98 3 19 C2.01 19 1.02 19 0 19 C0 12.73 0 6.46 0 0 Z " fill="#E0F4E3" transform="translate(771,506)"/>
<path d="M0 0 C1.8125 1.125 1.8125 1.125 3 3 C3.5625 5.75 3.5625 5.75 3 9 C1.22412657 11.56343469 -0.80411422 13.79104347 -3 16 C-1.02 16.33 0.96 16.66 3 17 C3 17.66 3 18.32 3 19 C-0.96 19 -4.92 19 -9 19 C-7.28655295 15.5731059 -6.60872422 14.44837438 -3.9375 12.125 C-0.97786629 9.30218634 -0.19825413 7.16333664 0 3 C-1.65 3.33 -3.3 3.66 -5 4 C-5.33 4.99 -5.66 5.98 -6 7 C-6.99 7 -7.98 7 -9 7 C-8.6875 4.625 -8.6875 4.625 -8 2 C-4.76746204 -0.15502531 -3.74849077 -0.46856135 0 0 Z " fill="#DBF2E7" transform="translate(742,506)"/>
<path d="M0 0 C3.5625 0.3125 3.5625 0.3125 5.5 1.4375 C7.09240283 4.24762264 7.01569325 6.14014724 6.5625 9.3125 C4.36330859 12.2540345 3.21058091 13.2151937 -0.46191406 13.76660156 C-1.61401367 13.7456543 -2.76611328 13.72470703 -3.953125 13.703125 C-5.20351563 13.69023438 -6.45390625 13.67734375 -7.7421875 13.6640625 C-9.69511719 13.61378906 -9.69511719 13.61378906 -11.6875 13.5625 C-13.00492188 13.54445313 -14.32234375 13.52640625 -15.6796875 13.5078125 C-18.93302308 13.46066271 -22.18489625 13.39486044 -25.4375 13.3125 C-25.4375 12.6525 -25.4375 11.9925 -25.4375 11.3125 C-24.17305054 11.27491577 -24.17305054 11.27491577 -22.88305664 11.23657227 C-19.76508326 11.14161845 -16.64728497 11.04237552 -13.52954102 10.94018555 C-12.17835853 10.89678777 -10.82711947 10.8551163 -9.47583008 10.81518555 C-7.53713299 10.75760048 -5.59863724 10.69335702 -3.66015625 10.62890625 C-2.49234619 10.59224854 -1.32453613 10.55559082 -0.12133789 10.51782227 C2.48029795 10.61173812 2.48029795 10.61173812 3.5625 9.3125 C3.72916667 6.8125 3.72916667 6.8125 3.5625 4.3125 C2.37825674 2.89672523 2.37825674 2.89672523 -1 3.25 C-2.134375 3.270625 -3.26875 3.29125 -4.4375 3.3125 C-5.0975 4.6325 -5.7575 5.9525 -6.4375 7.3125 C-5.67266544 2.46854777 -5.30770607 0.48251873 0 0 Z " fill="#20AE92" transform="translate(694.4375,514.6875)"/>
<path d="M0 0 C0 3.63 0 7.26 0 11 C-0.66 11 -1.32 11 -2 11 C-2.33 9.02 -2.66 7.04 -3 5 C-3.99 6.98 -4.98 8.96 -6 11 C-6.99 10.67 -7.98 10.34 -9 10 C-9.6875 7.9375 -9.6875 7.9375 -10 6 C-10.66 7.65 -11.32 9.3 -12 11 C-12.99 11 -13.98 11 -15 11 C-16.31626692 7.38026598 -17 4.90432869 -17 1 C-16.34 1 -15.68 1 -15 1 C-14.34 2.32 -13.68 3.64 -13 5 C-12.67 3.68 -12.34 2.36 -12 1 C-11.01 1 -10.02 1 -9 1 C-8.34 2.32 -7.68 3.64 -7 5 C-6.896875 4.360625 -6.79375 3.72125 -6.6875 3.0625 C-6.460625 2.381875 -6.23375 1.70125 -6 1 C-3 0 -3 0 0 0 Z " fill="#D2F0DA" transform="translate(729,540)"/>
<path d="M0 0 C0.66 0 1.32 0 2 0 C2 1.98 2 3.96 2 6 C2.66 5.67 3.32 5.34 4 5 C9.34179476 4.54537917 9.34179476 4.54537917 11.6796875 6.16015625 C13.52404535 8.73025254 13.29782359 10.56166483 13.1875 13.6875 C13.16042969 14.68136719 13.13335938 15.67523437 13.10546875 16.69921875 C13.07066406 17.45847656 13.03585937 18.21773437 13 19 C12.01 19 11.02 19 10 19 C9.67 15.7 9.34 12.4 9 9 C7.34385343 8.61781233 5.67542976 8.28604898 4 8 C2.33657163 9.66342837 2.63951903 11.7825709 2.4375 14.0625 C2.31181641 15.44115234 2.31181641 15.44115234 2.18359375 16.84765625 C2.12300781 17.55792969 2.06242188 18.26820313 2 19 C1.34 19 0.68 19 0 19 C0 12.73 0 6.46 0 0 Z " fill="#E5F4D9" transform="translate(822,506)"/>
<path d="M0 0 C3.95096978 -0.04939662 7.9018203 -0.08571755 11.85302734 -0.10986328 C13.8591136 -0.12488107 15.86511324 -0.15028981 17.87109375 -0.17578125 C19.12792969 -0.18222656 20.38476562 -0.18867187 21.6796875 -0.1953125 C22.84226074 -0.20578613 24.00483398 -0.21625977 25.20263672 -0.22705078 C28 0 28 0 30 2 C29.625 4.125 29.625 4.125 29 6 C27.35 6 25.7 6 24 6 C23.814375 5.360625 23.62875 4.72125 23.4375 4.0625 C22.05753944 1.57873787 22.05753944 1.57873787 18.375 1.25 C17.26125 1.1675 16.1475 1.085 15 1 C15 1.66 15 2.32 15 3 C10.05 3 5.1 3 0 3 C0 2.01 0 1.02 0 0 Z " fill="#57C8A9" transform="translate(668,536)"/>
<path d="M0 0 C1.32 0.33 2.64 0.66 4 1 C4.042721 2.66611905 4.04063832 4.33382885 4 6 C3 7 3 7 0.31616211 7.11352539 C-0.85164795 7.10828857 -2.01945801 7.10305176 -3.22265625 7.09765625 C-4.48271484 7.09443359 -5.74277344 7.09121094 -7.04101562 7.08789062 C-8.38151109 7.07953403 -9.72200588 7.07106907 -11.0625 7.0625 C-12.40689942 7.0574866 -13.7513006 7.05292342 -15.09570312 7.04882812 C-18.39717941 7.03699488 -21.69856803 7.02050971 -25 7 C-25 6.01 -25 5.02 -25 4 C-20.05 4 -15.1 4 -10 4 C-10 4.66 -10 5.32 -10 6 C-6.59919423 5.89592083 -6.59919423 5.89592083 -3 5 C-1.00916823 2.5748212 -1.00916823 2.5748212 0 0 Z " fill="#76CDBC" transform="translate(693,518)"/>
<path d="M0 0 C6.57692308 0.57692308 6.57692308 0.57692308 8 2 C8.125 5.5 8.125 5.5 8 9 C7 10 7 10 3.5625 10.1875 C0 10 0 10 -2 8 C-2.25 5 -2.25 5 -2 2 C-1.34 1.34 -0.68 0.68 0 0 Z " fill="#DEF1EE" transform="translate(822,76)"/>
<path d="M0 0 C1.32 0 2.64 0 4 0 C4 7.26 4 14.52 4 22 C2.68 22 1.36 22 0 22 C0 14.74 0 7.48 0 0 Z " fill="#F4F0E0" transform="translate(707,421)"/>
<path d="M0 0 C0.99 0 1.98 0 3 0 C2.57705798 3.97565502 1.90710633 7.48102772 0.5625 11.25 C-0.99886156 15.67512715 -1.82853441 20.08849095 -2.5703125 24.71484375 C-3 27 -3 27 -4 29 C-4.99 29 -5.98 29 -7 29 C-5.53869493 19.09802233 -2.76626489 9.59746099 0 0 Z " fill="#D7F1D7" transform="translate(816,501)"/>
<path d="M0 0 C1.670625 0.061875 1.670625 0.061875 3.375 0.125 C3.375 3.095 3.375 6.065 3.375 9.125 C0 9.25 0 9.25 -3.625 9.125 C-5.625 7.125 -5.625 7.125 -5.875 4.625 C-5.45054733 0.38047335 -4.12667778 0.14229923 0 0 Z " fill="#797177" transform="translate(557.625,81.875)"/>
<path d="M0 0 C0.66 0 1.32 0 2 0 C2 3.63 2 7.26 2 11 C-0.64 11 -3.28 11 -6 11 C-6.625 8.125 -6.625 8.125 -7 5 C-6.34 4.34 -5.68 3.68 -5 3 C-3.68 3 -2.36 3 -1 3 C-0.67 2.01 -0.34 1.02 0 0 Z " fill="#D2F0D4" transform="translate(746,540)"/>
<path d="M0 0 C1.670625 0.061875 1.670625 0.061875 3.375 0.125 C3.375 3.095 3.375 6.065 3.375 9.125 C0 9.25 0 9.25 -3.625 9.125 C-5.625 7.125 -5.625 7.125 -5.875 4.625 C-5.45054733 0.38047335 -4.12667778 0.14229923 0 0 Z " fill="#766E70" transform="translate(586.625,81.875)"/>
<path d="M0 0 C0 4.62 0 9.24 0 14 C-3.56311466 12.21844267 -5.35645475 10.83236991 -8 8 C-6.48291727 4.46014029 -4.24676932 0 0 0 Z " fill="#0BAD8C" transform="translate(784,511)"/>
<path d="M0 0 C0.66 0 1.32 0 2 0 C2 3.63 2 7.26 2 11 C-0.33294775 11.04241723 -2.66702567 11.04092937 -5 11 C-6 10 -6 10 -6.125 7 C-6 4 -6 4 -5 3 C-3.33382885 2.95936168 -1.66611905 2.957279 0 3 C0 2.01 0 1.02 0 0 Z " fill="#D3F2DA" transform="translate(795,540)"/>
<path d="M0 0 C3.96 0 7.92 0 12 0 C11.1775148 4.11242601 10.18832018 7.40328488 8.625 11.25 C8.20476563 12.30703125 7.78453125 13.3640625 7.3515625 14.453125 C6 17 6 17 3 18 C3.62816498 14.05050296 4.8645529 10.80107972 6.5625 7.1875 C7.01753906 6.21167969 7.47257813 5.23585938 7.94140625 4.23046875 C8.29074219 3.49441406 8.64007812 2.75835937 9 2 C6.03 2 3.06 2 0 2 C0 1.34 0 0.68 0 0 Z " fill="#F4FAF2" transform="translate(576,507)"/>
<path d="M0 0 C6.58695094 0.34668163 10.00151308 1.62632394 15 6 C15 6.99 15 7.98 15 9 C12.39356086 8.4987617 10.50490483 7.74168947 8.125 6.5 C5.00452217 5.00217064 2.41723537 4.40681373 -1 4 C-0.67 2.68 -0.34 1.36 0 0 Z " fill="#EDF3F5" transform="translate(698,226)"/>
<path d="M0 0 C0 6.6 0 13.2 0 20 C-0.33 20 -0.66 20 -1 20 C-1.33 14.72 -1.66 9.44 -2 4 C-3.32 6.97 -4.64 9.94 -6 13 C-6.99 13 -7.98 13 -9 13 C-10 11 -10 11 -9.328125 8.90625 C-8.97234375 8.1121875 -8.6165625 7.318125 -8.25 6.5 C-7.90453125 5.7059375 -7.5590625 4.911875 -7.203125 4.09375 C-5.32684778 0.82854029 -3.73045944 0 0 0 Z " fill="#CFF0F6" transform="translate(644,423)"/>
<path d="M0 0 C1.98 0 3.96 0 6 0 C6.66 0.66 7.32 1.32 8 2 C7.44444444 6.55555556 7.44444444 6.55555556 6 8 C4.33382885 8.04063832 2.66611905 8.042721 1 8 C0.67 9.32 0.34 10.64 0 12 C0 8.04 0 4.08 0 0 Z " fill="#E2F6E4" transform="translate(762,543)"/>
<path d="M0 0 C0.66 0 1.32 0 2 0 C2 0.66 2 1.32 2 2 C3.32 2 4.64 2 6 2 C6.99 3.485 6.99 3.485 8 5 C8.66 4.01 9.32 3.02 10 2 C10.66 2 11.32 2 12 2 C10.66666667 6 9.33333333 10 8 14 C7.34 14 6.68 14 6 14 C6.020625 13.113125 6.04125 12.22625 6.0625 11.3125 C6.00713781 8.37830369 5.6694266 5.84506304 5 3 C4.01 3 3.02 3 2 3 C2 4.98 2 6.96 2 9 C2.66 9.33 3.32 9.66 4 10 C2.68 9.67 1.36 9.34 0 9 C-1.125 2.25 -1.125 2.25 0 0 Z " fill="#CFEFD4" transform="translate(627,541)"/>
<path d="M0 0 C0 0.33 0 0.66 0 1 C-1.98 1.66 -3.96 2.32 -6 3 C-6 3.33 -6 3.66 -6 4 C-4.88625 3.79375 -3.7725 3.5875 -2.625 3.375 C-0.830625 3.189375 -0.830625 3.189375 1 3 C3 5 3 5 3.3125 7.5 C3.1578125 8.7375 3.1578125 8.7375 3 10 C2.01 10.66 1.02 11.32 0 12 C0 9.69 0 7.38 0 5 C-1.94999129 5.19471111 -1.94999129 5.19471111 -4 6 C-5.28436734 7.9837767 -5.28436734 7.9837767 -6 10 C-7.32 9.67 -8.64 9.34 -10 9 C-9.51622419 2.5899705 -9.51622419 2.5899705 -7.25 0 C-4.4193689 -1.25805827 -2.91481676 -0.89063845 0 0 Z " fill="#AEE0D8" transform="translate(696,514)"/>
<path d="M0 0 C2.33944736 0.28730055 4.6739143 0.61936779 7 1 C7.04254356 2.99954746 7.04080783 5.00041636 7 7 C6 8 6 8 3 8.125 C0 8 0 8 -1 7 C-1.125 4 -1.125 4 -1 1 C-0.67 0.67 -0.34 0.34 0 0 Z " fill="#CCF1DB" transform="translate(772,543)"/>
<path d="M0 0 C1.95803507 -0.05389087 3.91648909 -0.09274217 5.875 -0.125 C7.51082031 -0.15980469 7.51082031 -0.15980469 9.1796875 -0.1953125 C12 0 12 0 14 2 C14.125 5.125 14.125 5.125 14 8 C13.34 8 12.68 8 12 8 C11.67 6.02 11.34 4.04 11 2 C10.34 2 9.68 2 9 2 C8.67 3.98 8.34 5.96 8 8 C7.34 8 6.68 8 6 8 C6 6.02 6 4.04 6 2 C4.68 2 3.36 2 2 2 C2 3.98 2 5.96 2 8 C1.34 8 0.68 8 0 8 C0 5.36 0 2.72 0 0 Z " fill="#D7F0D2" transform="translate(595,543)"/>
<path d="M0 0 C2.5625 0.1875 2.5625 0.1875 4.5625 2.1875 C4.6875 4.8125 4.6875 4.8125 4.5625 7.1875 C2.2364143 7.56813221 -0.09805264 7.90019945 -2.4375 8.1875 C-3.4375 7.1875 -3.4375 7.1875 -3.5625 4.1875 C-3.39891479 0.26145498 -3.39891479 0.26145498 0 0 Z " fill="#ACE9C8" transform="translate(783.4375,542.8125)"/>
<path d="M0 0 C0.66 0 1.32 0 2 0 C0.65158481 4.46788317 -1.11498054 8.32932094 -3.4375 12.375 C-4.03433594 13.43460938 -4.63117187 14.49421875 -5.24609375 15.5859375 C-5.82488281 16.38257813 -6.40367187 17.17921875 -7 18 C-7.99 18 -8.98 18 -10 18 C-8.46885867 13.76543725 -6.35110294 10.00804228 -4 6.1875 C-3.64421875 5.59001953 -3.2884375 4.99253906 -2.921875 4.37695312 C-2.00555558 2.88109586 -1.00864753 1.43522138 0 0 Z " fill="#DBF3E7" transform="translate(618,507)"/>
<path d="M0 0 C2.5 0.125 2.5 0.125 3.5 1.125 C3.6875 3.5625 3.6875 3.5625 3.5 6.125 C2.84 6.785 2.18 7.445 1.5 8.125 C-1.125 7.75 -1.125 7.75 -3.5 7.125 C-3.54254356 5.12545254 -3.54080783 3.12458364 -3.5 1.125 C-2.5 0.125 -2.5 0.125 0 0 Z " fill="#B0E2D6" transform="translate(609.5,506.875)"/>
<path d="M0 0 C1.65 0 3.3 0 5 0 C6.35015859 4.05047576 5.62084998 6.7920168 5 11 C3.35 11 1.7 11 0 11 C0 7.37 0 3.74 0 0 Z " fill="#8CD5AA" transform="translate(621,540)"/>
<path d="M0 0 C0 1.98 0 3.96 0 6 C-2.375 6.625 -2.375 6.625 -5 7 C-7 5 -7 5 -7.125 2.375 C-7.08375 1.59125 -7.0425 0.8075 -7 0 C-4.3333581 -1.33332095 -2.83319697 -0.67102033 0 0 Z " fill="#0AAA88" transform="translate(758,516)"/>
<path d="M0 0 C0.66 0 1.32 0 2 0 C2 1.32 2 2.64 2 4 C3.32 4 4.64 4 6 4 C6 2.68 6 1.36 6 0 C6.66 0 7.32 0 8 0 C8 3.3 8 6.6 8 10 C7.34 10 6.68 10 6 10 C6 8.68 6 7.36 6 6 C4.68 6 3.36 6 2 6 C2 7.32 2 8.64 2 10 C1.34 10 0.68 10 0 10 C0 6.7 0 3.4 0 0 Z " fill="#CAF4E1" transform="translate(576,541)"/>
<path d="M0 0 C0.66 0 1.32 0 2 0 C2.125 2.875 2.125 2.875 2 6 C0 8 0 8 -1.875 8.265625 C-2.57625 8.26046875 -3.2775 8.2553125 -4 8.25 C-4.70125 8.25515625 -5.4025 8.2603125 -6.125 8.265625 C-8 8 -8 8 -10 6 C-10 5.01 -10 4.02 -10 3 C-9.01 3 -8.02 3 -7 3 C-6.67 3.66 -6.34 4.32 -6 5 C-4.35 4.67 -2.7 4.34 -1 4 C-0.67 2.68 -0.34 1.36 0 0 Z " fill="#E6F4E9" transform="translate(723,517)"/>
<path d="M0 0 C2.875 -0.125 2.875 -0.125 6 0 C8 2 8 2 8.1953125 4.8203125 C8.16050781 6.45613281 8.16050781 6.45613281 8.125 8.125 C8.10695313 9.22070312 8.08890625 10.31640625 8.0703125 11.4453125 C8.04710937 12.28835938 8.02390625 13.13140625 8 14 C7.34 14 6.68 14 6 14 C5.67 10.7 5.34 7.4 5 4 C3.35 3.67 1.7 3.34 0 3 C0 2.01 0 1.02 0 0 Z " fill="#F3FCF4" transform="translate(798,511)"/>
<path d="M0 0 C0.66 0 1.32 0 2 0 C2 2.31 2 4.62 2 7 C2.66 7.33 3.32 7.66 4 8 C3.67 8.33 3.34 8.66 3 9 C2.76712992 10.68183948 2.58735834 12.3712416 2.4375 14.0625 C2.31181641 15.44115234 2.31181641 15.44115234 2.18359375 16.84765625 C2.12300781 17.55792969 2.06242188 18.26820313 2 19 C1.34 19 0.68 19 0 19 C0 12.73 0 6.46 0 0 Z " fill="#F5FEF4" transform="translate(822,506)"/>
<path d="M0 0 C2.375 1.125 2.375 1.125 4 3 C4.25 6.1875 4.25 6.1875 4 9 C3.731875 8.38125 3.46375 7.7625 3.1875 7.125 C2.04443152 4.7004767 2.04443152 4.7004767 -1 3 C-3.62531524 2.83286431 -3.62531524 2.83286431 -6 3 C-6.99 4.98 -7.98 6.96 -9 9 C-9.33 9 -9.66 9 -10 9 C-9.6875 5.625 -9.6875 5.625 -9 2 C-5.51131349 -0.32579101 -4.10281481 -0.41865457 0 0 Z " fill="#343838" transform="translate(828,74)"/>
<path d="M0 0 C1.65 0 3.3 0 5 0 C5.33 0.99 5.66 1.98 6 3 C3.525 2.01 3.525 2.01 1 1 C1 1.99 1 2.98 1 4 C2.32 4.33 3.64 4.66 5 5 C5.5625 6.9375 5.5625 6.9375 6 9 C5 10 5 10 2.4375 10.0625 C1.633125 10.041875 0.82875 10.02125 0 10 C-0.33 9.01 -0.66 8.02 -1 7 C-0.34 7 0.32 7 1 7 C1 7.66 1 8.32 1 9 C1.99 9 2.98 9 4 9 C4 8.01 4 7.02 4 6 C2.35 5.67 0.7 5.34 -1 5 C-0.67 3.35 -0.34 1.7 0 0 Z " fill="#D3F2DC" transform="translate(754,541)"/>
<path d="M0 0 C3.63 0 7.26 0 11 0 C11 0.66 11 1.32 11 2 C8.03 2 5.06 2 2 2 C2.33 4.64 2.66 7.28 3 10 C2.01 10 1.02 10 0 10 C0 6.7 0 3.4 0 0 Z " fill="#F2FDFA" transform="translate(591,507)"/>
<path d="M0 0 C2.33294775 -0.04241723 4.66702567 -0.04092937 7 0 C8 1 8 1 8.0625 4.5625 C8.041875 5.696875 8.02125 6.83125 8 8 C7.34 8 6.68 8 6 8 C6 6.02 6 4.04 6 2 C4.68 2 3.36 2 2 2 C2 3.98 2 5.96 2 8 C1.34 8 0.68 8 0 8 C0 5.36 0 2.72 0 0 Z " fill="#C5F0DE" transform="translate(730,543)"/>
<path d="M0 0 C0.99 0 1.98 0 3 0 C2.46148032 5.27749285 1.22656164 9.25645564 -1 14 C-1.66 14 -2.32 14 -3 14 C-2.48594831 9.03083364 -1.76615118 4.70973649 0 0 Z " fill="#DCF4E3" transform="translate(816,501)"/>
<path d="M0 0 C0.66 0 1.32 0 2 0 C2.33 1.98 2.66 3.96 3 6 C3.66 6 4.32 6 5 6 C5.33 4.02 5.66 2.04 6 0 C6.66 0 7.32 0 8 0 C8 2.64 8 5.28 8 8 C5.66705225 8.04241723 3.33297433 8.04092937 1 8 C0 7 0 7 -0.0625 3.4375 C-0.041875 2.303125 -0.02125 1.16875 0 0 Z " fill="#D5F0C4" transform="translate(586,543)"/>
<path d="M0 0 C3 0.125 3 0.125 4 1.125 C4.04063832 2.79117115 4.042721 4.45888095 4 6.125 C3.34 6.125 2.68 6.125 2 6.125 C2 4.805 2 3.485 2 2.125 C0.68 2.125 -0.64 2.125 -2 2.125 C-1.2236068 5.1995356 -1.2236068 5.1995356 1 7.125 C-0.65 6.795 -2.3 6.465 -4 6.125 C-4.042721 4.45888095 -4.04063832 2.79117115 -4 1.125 C-3 0.125 -3 0.125 0 0 Z " fill="#D4F0E4" transform="translate(619,517.875)"/>
<path d="M0 0 C0.66 0.99 1.32 1.98 2 3 C-0.31 3.33 -2.62 3.66 -5 4 C-5.33 4.99 -5.66 5.98 -6 7 C-6.99 7 -7.98 7 -9 7 C-8.6875 4.625 -8.6875 4.625 -8 2 C-4.79191085 -0.1387261 -3.72301503 -0.47730962 0 0 Z " fill="#D2EEE7" transform="translate(742,506)"/>
<path d="M0 0 C0.66 0 1.32 0 2 0 C2.66 1.32 3.32 2.64 4 4 C4.66 2.68 5.32 1.36 6 0 C7.46726798 3.81489674 6.43336419 6.29011622 5 10 C4.01 10 3.02 10 2 10 C0.68373308 6.38026598 0 3.90432869 0 0 Z " fill="#C0EFE1" transform="translate(712,541)"/>
<path d="M0 0 C3.19902639 -0.08886184 5.92677456 0.08941469 9 1 C9 1.66 9 2.32 9 3 C8.34 3 7.68 3 7 3 C6.67 3.66 6.34 4.32 6 5 C3.69 5 1.38 5 -1 5 C-0.67 3.35 -0.34 1.7 0 0 Z " fill="#17A88B" transform="translate(752,509)"/>
<path d="M0 0 C-1 3 -1 3 -3.375 4.75 C-6 6 -6 6 -9 5 C-8 2 -8 2 -5.625 0.25 C-3 -1 -3 -1 0 0 Z " fill="#D9D98C" transform="translate(736,187)"/>
<path d="M0 0 C2.125 0.9375 2.125 0.9375 4 2 C3.67 3.32 3.34 4.64 3 6 C1.0625 6.5625 1.0625 6.5625 -1 7 C-2 6 -2 6 -2.0625 3.4375 C-2.041875 2.633125 -2.02125 1.82875 -2 1 C-1.34 0.67 -0.68 0.34 0 0 Z " fill="#DDF0E8" transform="translate(585,83)"/>
<path d="M0 0 C2.31 0.33 4.62 0.66 7 1 C7 4.96 7 8.92 7 13 C6.67 13 6.34 13 6 13 C5.81824219 12.36191406 5.63648438 11.72382812 5.44921875 11.06640625 C5.19785156 10.24011719 4.94648437 9.41382813 4.6875 8.5625 C4.44386719 7.73878906 4.20023438 6.91507813 3.94921875 6.06640625 C3.63597656 5.38449219 3.32273437 4.70257812 3 4 C2.01 3.67 1.02 3.34 0 3 C0 2.01 0 1.02 0 0 Z " fill="#0CC9A3" transform="translate(755,542)"/>
<path d="M0 0 C2.0625 0.4375 2.0625 0.4375 4 1 C4 2.65 4 4.3 4 6 C2.02 6 0.04 6 -2 6 C-1.125 1.125 -1.125 1.125 0 0 Z " fill="#11A78B" transform="translate(693,518)"/>
<path d="M0 0 C2.64752004 2.57784846 4.94432065 4.91648098 7 8 C2.25 7.25 2.25 7.25 0 5 C-0.66 5.99 -1.32 6.98 -2 8 C-2 6.02 -2 4.04 -2 2 C-1.34 2 -0.68 2 0 2 C0 1.34 0 0.68 0 0 Z " fill="#D8EED6" transform="translate(775,517)"/>
<path d="M0 0 C2.0625 0.4375 2.0625 0.4375 4 1 C4 2.65 4 4.3 4 6 C2.0625 6.5625 2.0625 6.5625 0 7 C-1 6 -1 6 -1.125 3.5 C-1 1 -1 1 0 0 Z " fill="#DEF4EF" transform="translate(555,83)"/>
<path d="M0 0 C0.99 0 1.98 0 3 0 C3 3.63 3 7.26 3 11 C2.34 11 1.68 11 1 11 C0.67 9.02 0.34 7.04 0 5 C-0.99 5.495 -0.99 5.495 -2 6 C-1.34 4.02 -0.68 2.04 0 0 Z " fill="#A1DEAD" transform="translate(726,540)"/>
<path d="M0 0 C3.3 0.66 6.6 1.32 10 2 C10 2.66 10 3.32 10 4 C6.04 4 2.08 4 -2 4 C-1.34 2.68 -0.68 1.36 0 0 Z " fill="#F4FCFC" transform="translate(735,521)"/>
<path d="M0 0 C1.32 0 2.64 0 4 0 C5.76462683 3.08809695 6 4.23312136 6 8 C2.83884224 6.63016497 2.0072908 6.0109362 0 3 C0 2.01 0 1.02 0 0 Z " fill="#DFDC8D" transform="translate(673,171)"/>
<path d="M0 0 C1.32 0 2.64 0 4 0 C3.40312566 3.34249629 2.26396123 5.46436342 0 8 C-0.66 8 -1.32 8 -2 8 C-1.125 2.25 -1.125 2.25 0 0 Z " fill="#DEDC8D" transform="translate(716,171)"/>
<path d="M0 0 C0.66 0 1.32 0 2 0 C2 0.66 2 1.32 2 2 C3.32 2 4.64 2 6 2 C5.67 3.32 5.34 4.64 5 6 C5 5.01 5 4.02 5 3 C4.01 3 3.02 3 2 3 C2 4.98 2 6.96 2 9 C2.66 9.33 3.32 9.66 4 10 C2.68 9.67 1.36 9.34 0 9 C-1.125 2.25 -1.125 2.25 0 0 Z " fill="#D8F5E5" transform="translate(627,541)"/>
<path d="M0 0 C0.33 0 0.66 0 1 0 C0.93999894 1.6260287 0.8512115 3.25101549 0.75 4.875 C0.70359375 5.77992188 0.6571875 6.68484375 0.609375 7.6171875 C0 10 0 10 -2.046875 11.3203125 C-2.69140625 11.54460938 -3.3359375 11.76890625 -4 12 C-3.33501617 7.61110675 -1.81242323 4.0188515 0 0 Z " fill="#CEF3E9" transform="translate(583,513)"/>
<path d="M0 0 C0.33 1.32 0.66 2.64 1 4 C2.1446875 3.690625 2.1446875 3.690625 3.3125 3.375 C6 3 6 3 9 5 C8.67 5.99 8.34 6.98 8 8 C1.125 7.125 1.125 7.125 0 6 C-0.04080783 4.00041636 -0.04254356 1.99954746 0 0 Z " fill="#D3ECDC" transform="translate(593,509)"/>
<path d="M0 0 C0.33 0 0.66 0 1 0 C1.28875 1.03125 1.5775 2.0625 1.875 3.125 C2.82308798 6.45007997 3.88256594 9.72751453 5 13 C4.01 13.33 3.02 13.66 2 14 C0.09391902 10.78817851 -0.22266247 8.46117397 -0.125 4.75 C-0.09792969 3.41195312 -0.09792969 3.41195312 -0.0703125 2.046875 C-0.04710937 1.37140625 -0.02390625 0.6959375 0 0 Z " fill="#C3F0EB" transform="translate(748,510)"/>
<path d="M0 0 C0.99 0 1.98 0 3 0 C3 2.97 3 5.94 3 9 C2.01 9 1.02 9 0 9 C0 6.03 0 3.06 0 0 Z " fill="#EDE48D" transform="translate(695,165)"/>
<path d="M0 0 C0.99 0 1.98 0 3 0 C2.95875 1.2375 2.9175 2.475 2.875 3.75 C2.86341709 7.01637962 3.1431298 9.2146947 5 12 C2.50638429 10.79618552 0.31856917 9.54571278 -2 8 C-1.01 8 -0.02 8 1 8 C0.67 5.36 0.34 2.72 0 0 Z " fill="#697170" transform="translate(830,79)"/>
<path d="M0 0 C2.64 0 5.28 0 8 0 C8 0.99 8 1.98 8 3 C5.03 3 2.06 3 -1 3 C-0.67 2.01 -0.34 1.02 0 0 Z " fill="#E9E08D" transform="translate(733,208)"/>
<path d="M0 0 C0.66 0.33 1.32 0.66 2 1 C2.33 1.99 2.66 2.98 3 4 C5.31 4 7.62 4 10 4 C8 7 8 7 5.625 7.5 C3 7 3 7 0.6875 4.5 C0.130625 3.675 -0.42625 2.85 -1 2 C-0.67 1.34 -0.34 0.68 0 0 Z " fill="#A5E2D1" transform="translate(689,537)"/>
<path d="M0 0 C2.31 0.33 4.62 0.66 7 1 C7.33 2.32 7.66 3.64 8 5 C4.5625 4.1875 4.5625 4.1875 1 3 C0.67 2.01 0.34 1.02 0 0 Z " fill="#D6EEE5" transform="translate(752,506)"/>
<path d="M0 0 C0.78375 0.04125 1.5675 0.0825 2.375 0.125 C2.045 1.115 1.715 2.105 1.375 3.125 C0.385 3.455 -0.605 3.785 -1.625 4.125 C-1.955 4.785 -2.285 5.445 -2.625 6.125 C-3.615 6.125 -4.605 6.125 -5.625 6.125 C-4.86443086 2.32215429 -4.27658992 0.20364714 0 0 Z " fill="#C2E8E0" transform="translate(718.625,505.875)"/>
<path d="M0 0 C1.65 0 3.3 0 5 0 C4.67 1.65 4.34 3.3 4 5 C2.68 4.67 1.36 4.34 0 4 C0 2.68 0 1.36 0 0 Z " fill="#25C186" transform="translate(763,545)"/>
<path d="M0 0 C1.32 0.66 2.64 1.32 4 2 C3.34 3.32 2.68 4.64 2 6 C1.01 5.67 0.02 5.34 -1 5 C-0.67 3.35 -0.34 1.7 0 0 Z " fill="#18BD88" transform="translate(742,544)"/>
<path d="M0 0 C1.32 0.66 2.64 1.32 4 2 C3.34 3.32 2.68 4.64 2 6 C1.01 5.67 0.02 5.34 -1 5 C-0.67 3.35 -0.34 1.7 0 0 Z " fill="#18BE88" transform="translate(616,544)"/>
<path d="M0 0 C1.98 0.495 1.98 0.495 4 1 C4 2.32 4 3.64 4 5 C2.35 4.67 0.7 4.34 -1 4 C-0.67 2.68 -0.34 1.36 0 0 Z " fill="#ECF4F2" transform="translate(707,412)"/>
<path d="M0 0 C0.99 0.33 1.98 0.66 3 1 C3.33 1.99 3.66 2.98 4 4 C2.02 4.99 2.02 4.99 0 6 C-0.38218767 4.34385343 -0.71395102 2.67542976 -1 1 C-0.67 0.67 -0.34 0.34 0 0 Z " fill="#68D7B3" transform="translate(774,544)"/>
<path d="M0 0 C1.32 0.33 2.64 0.66 4 1 C4.33 2.32 4.66 3.64 5 5 C3.68 5.33 2.36 5.66 1 6 C0.67 4.02 0.34 2.04 0 0 Z " fill="#EDF3F5" transform="translate(713,237)"/>
<path d="M0 0 C1.32 0 2.64 0 4 0 C4.33 1.65 4.66 3.3 5 5 C3.68 5.33 2.36 5.66 1 6 C0.67 4.02 0.34 2.04 0 0 Z " fill="#5AC6A9" transform="translate(617,520)"/>
<path d="M0 0 C2.125 0.375 2.125 0.375 4 1 C1.03 3.475 1.03 3.475 -2 6 C-2 2 -2 2 0 0 Z " fill="#DEF4EB" transform="translate(778,511)"/>
<path d="M0 0 C2.875 -0.125 2.875 -0.125 6 0 C6.66 0.66 7.32 1.32 8 2 C7.625 4.625 7.625 4.625 7 7 C6.6596875 6.071875 6.6596875 6.071875 6.3125 5.125 C4.62070165 2.38589791 3.00755839 1.94975528 0 1 C0 0.67 0 0.34 0 0 Z " fill="#F3F5E5" transform="translate(717,507)"/>
<path d="M0 0 C0.99 0.33 1.98 0.66 3 1 C2.67 3.64 2.34 6.28 2 9 C1.34 9 0.68 9 0 9 C0 6.03 0 3.06 0 0 Z " fill="#7B7B85" transform="translate(563,82)"/>
<path d="M0 0 C0.99 0 1.98 0 3 0 C2.67 2.64 2.34 5.28 2 8 C1.34 8 0.68 8 0 8 C0 5.36 0 2.72 0 0 Z " fill="#BAF3E9" transform="translate(595,543)"/>
<path d="M0 0 C1.32 0 2.64 0 4 0 C3.67 1.65 3.34 3.3 3 5 C2.01 4.67 1.02 4.34 0 4 C0 2.68 0 1.36 0 0 Z " fill="#0BC381" transform="translate(791,545)"/>
<path d="M0 0 C0.66 0 1.32 0 2 0 C2 2.31 2 4.62 2 7 C1.01 7 0.02 7 -1 7 C-0.67 4.69 -0.34 2.38 0 0 Z " fill="#B9F1E5" transform="translate(810,523)"/>
<path d="M0 0 C-0.33 0.99 -0.66 1.98 -1 3 C-3.31 3 -5.62 3 -8 3 C-8 2.34 -8 1.68 -8 1 C-2.25 0 -2.25 0 0 0 Z " fill="#EFFAF8" transform="translate(759,522)"/>
</svg>
